<?xml version="1.0" standalone="no"?>
<!DOCTYPE svg PUBLIC "-//W3C//DTD SVG 20010904//EN"
 "http://www.w3.org/TR/2001/REC-SVG-20010904/DTD/svg10.dtd">
<svg version="1.0" xmlns="http://www.w3.org/2000/svg"
 width="700.000000pt" height="700.000000pt" viewBox="0 0 700.000000 700.000000"
 preserveAspectRatio="xMidYMid meet">
<metadata>
Created by potrace 1.14, written by Peter Selinger 2001-2017
</metadata>
<g transform="translate(0.000000,700.000000) scale(0.100000,-0.100000)"
fill="#000000" stroke="none">
<path d="M1192 6987 c-24 -6 -56 -22 -73 -38 -25 -23 -29 -35 -29 -77 0 -78
26 -102 160 -146 176 -57 259 -108 372 -222 122 -124 205 -250 349 -532 91
-176 179 -346 269 -517 26 -49 98 -187 160 -305 62 -118 133 -253 157 -300 25
-47 74 -139 108 -205 86 -165 140 -268 218 -415 117 -222 216 -413 269 -516
l51 -101 -158 -294 c-87 -162 -170 -316 -185 -344 -15 -27 -44 -80 -64 -118
-20 -37 -52 -97 -72 -135 -20 -37 -49 -89 -64 -117 -15 -27 -45 -84 -67 -125
-22 -41 -56 -104 -75 -140 -20 -36 -68 -126 -108 -200 -40 -74 -87 -162 -105
-195 -89 -163 -653 -1211 -693 -1285 -24 -47 -84 -157 -131 -245 -48 -88 -100
-185 -116 -215 -43 -82 -50 -95 -55 -100 -4 -4 -26 -47 -48 -93 -2 -4 148 -6
333 -5 l337 3 57 110 c31 61 101 196 155 300 55 105 125 240 156 300 31 61 97
187 145 280 48 94 119 231 158 305 38 74 98 189 132 255 34 66 104 201 155
300 51 99 118 230 150 290 100 192 184 354 301 580 62 121 132 256 155 299
l42 79 42 -84 c24 -46 55 -106 70 -134 15 -27 67 -126 115 -220 96 -186 179
-345 260 -500 80 -152 242 -464 375 -720 45 -88 104 -200 130 -250 26 -49 76
-144 110 -210 34 -66 88 -169 120 -230 31 -60 95 -182 140 -270 46 -88 95
-182 110 -210 15 -27 53 -101 84 -162 l57 -113 375 0 c206 0 374 3 374 6 0 4
-25 55 -56 113 -32 58 -79 149 -107 201 -27 52 -80 151 -117 220 -37 69 -98
184 -135 255 -37 72 -80 153 -95 180 -48 87 -96 177 -150 280 -29 55 -65 123
-80 150 -15 28 -60 113 -100 190 -40 77 -76 145 -80 150 -4 6 -39 71 -78 145
-39 74 -91 173 -116 220 -26 47 -60 112 -77 145 -17 33 -45 87 -63 120 -17 33
-58 110 -90 170 -32 61 -76 142 -96 180 -63 118 -112 210 -255 480 -204 386
-215 405 -247 465 l-30 55 212 375 c117 206 224 395 238 420 14 25 90 160 170
300 80 140 174 307 210 370 35 63 76 135 90 160 54 96 274 484 382 675 62 110
127 225 143 255 17 30 38 67 49 82 10 14 18 28 18 31 0 2 43 80 97 173 123
216 122 213 132 267 11 60 -13 118 -61 144 -29 16 -64 18 -268 21 l-235 4 -24
-44 c-89 -165 -156 -289 -201 -373 -76 -141 -108 -202 -150 -280 -23 -44 -53
-98 -65 -120 -12 -22 -43 -78 -67 -125 -39 -72 -131 -244 -368 -685 -43 -79
-225 -419 -275 -510 -17 -33 -108 -201 -200 -373 l-168 -314 -703 1411 -703
1411 -473 -1 c-279 -1 -491 -6 -516 -12z"/>
<path d="M3080 1330 l0 -300 38 -1 c213 -5 362 -3 365 6 1 6 2 141 2 300 l-1
290 -202 3 -202 2 0 -300z"/>
<path d="M3564 1330 c0 -165 3 -300 6 -301 7 0 318 -1 361 0 l36 1 -1 300 0
300 -201 0 -201 0 0 -300z"/>
<path d="M3080 645 l0 -302 200 -1 c181 -1 200 1 201 16 0 9 1 146 2 303 l2
285 -202 0 -203 0 0 -301z"/>
<path d="M3566 931 c-2 -9 -3 -144 -2 -301 l1 -285 201 -2 200 -2 0 300 c0
164 -2 300 -5 300 -3 1 -93 3 -198 4 -170 2 -193 0 -197 -14z"/>
</g>
</svg>
