<svg width="25" height="26" viewBox="0 0 25 26" fill="none" xmlns="http://www.w3.org/2000/svg">
<path fill-rule="evenodd" clip-rule="evenodd" d="M7.10631 0.515263C6.15089 0.669353 5.17427 1.22789 4.61461 1.94033C4.36698 2.2555 4.04547 2.84931 3.95316 3.16189L3.89177 3.36979H2.33468C0.898325 3.36979 0.763525 3.37703 0.596344 3.46313C-0.193604 3.87012 -0.193604 4.924 0.596344 5.33099C0.763525 5.41709 0.898325 5.42433 2.33468 5.42433H3.89177L3.95316 5.63223C4.04547 5.94481 4.36698 6.53862 4.61461 6.85379C4.93183 7.25756 5.42937 7.65036 5.93413 7.89549C6.58357 8.21086 6.89483 8.28106 7.64355 8.28106C8.39306 8.28106 8.70471 8.21062 9.35297 7.89475C10.1494 7.50669 10.7234 6.93191 11.1116 6.13363C11.2294 5.89149 11.3403 5.63286 11.3581 5.55885L11.3905 5.42433H17.7849C23.4553 5.42433 24.1998 5.41572 24.3608 5.34836C25.1897 5.00153 25.219 3.8799 24.41 3.46313C24.2344 3.37268 24.0303 3.36979 17.8096 3.36979H11.3905L11.3581 3.23527C11.2916 2.95908 10.8891 2.20991 10.6491 1.91572C10.5124 1.74823 10.2638 1.49924 10.0966 1.36237C9.75068 1.07928 9.05378 0.72282 8.62037 0.607326C8.32571 0.528765 7.37928 0.471238 7.10631 0.515263ZM8.42627 2.75681C8.80674 2.94323 9.10672 3.25332 9.29383 3.65347C9.42785 3.94027 9.44704 4.03326 9.44704 4.39706C9.44704 4.76086 9.42785 4.85385 9.29383 5.14065C9.10628 5.54173 8.80694 5.85064 8.42237 6.03976C8.16029 6.16861 8.08434 6.18255 7.64355 6.18255C7.23901 6.18255 7.11388 6.16347 6.91485 6.07155C5.6112 5.46943 5.44202 3.70018 6.61121 2.89681C6.95861 2.65809 7.23056 2.58594 7.72077 2.60238C8.0651 2.61397 8.19096 2.64146 8.42627 2.75681ZM16.8256 9.12473C16.1761 9.22952 15.3946 9.57507 14.9098 9.97184C14.3688 10.4147 13.9057 11.084 13.6986 11.7224L13.6153 11.9793H7.19642C0.976079 11.9793 0.771975 11.9822 0.596344 12.0726C0.232432 12.2601 0 12.6241 0 13.0065C0 13.389 0.232432 13.753 0.596344 13.9405C0.771975 14.0309 0.976079 14.0338 7.19642 14.0338H13.6153L13.6986 14.2906C14.0056 15.2372 14.7251 16.0519 15.6534 16.5042C16.3004 16.8195 16.6134 16.8904 17.3628 16.8914C17.8748 16.8921 18.0715 16.8712 18.3787 16.7833C19.2472 16.5348 20.0055 16.0127 20.489 15.3301C20.7304 14.9894 20.9638 14.5385 21.0525 14.2417L21.1146 14.0338H22.6469C23.9217 14.0338 24.2097 14.021 24.3608 13.9578C25.1897 13.611 25.219 12.4894 24.41 12.0726C24.2429 11.9865 24.1081 11.9793 22.6717 11.9793H21.1146L21.0525 11.7714C20.9638 11.4746 20.7304 11.0237 20.489 10.683C20.0102 10.0072 19.2456 9.47733 18.4046 9.23862C18.0504 9.13809 17.1469 9.07293 16.8256 9.12473ZM18.1314 11.3552C18.2854 11.4261 18.5172 11.59 18.6463 11.7194C19.536 12.6114 19.2826 14.0881 18.1436 14.6482C17.8793 14.7782 17.8044 14.792 17.3628 14.792C16.922 14.792 16.8461 14.7781 16.584 14.6492C16.1994 14.4601 15.9001 14.1512 15.7126 13.7501C15.5783 13.4628 15.5594 13.3709 15.5599 13.0065C15.5603 12.6595 15.5821 12.5435 15.6916 12.3053C15.933 11.7799 16.3115 11.4291 16.8136 11.2652C17.1503 11.1553 17.7922 11.1991 18.1314 11.3552ZM7.10631 17.7342C6.15089 17.8883 5.17427 18.4468 4.61461 19.1593C4.36698 19.4744 4.04547 20.0683 3.95316 20.3808L3.89177 20.5887H2.33468C0.898325 20.5887 0.763525 20.596 0.596344 20.6821C-0.193604 21.0891 -0.193604 22.1429 0.596344 22.5499C0.763525 22.636 0.898325 22.6433 2.33468 22.6433H3.89177L3.95316 22.8512C4.04547 23.1638 4.36698 23.7576 4.61461 24.0727C4.93183 24.4765 5.42937 24.8693 5.93413 25.1144C6.58357 25.4298 6.89483 25.5 7.64355 25.5C8.39306 25.5 8.70471 25.4296 9.35297 25.1137C10.1494 24.7256 10.7234 24.1509 11.1116 23.3526C11.2294 23.1104 11.3403 22.8518 11.3581 22.7778L11.3905 22.6433H17.7849C23.4553 22.6433 24.1998 22.6347 24.3608 22.5673C25.1897 22.2205 25.219 21.0988 24.41 20.6821C24.2344 20.5916 24.0303 20.5887 17.8096 20.5887H11.3905L11.3581 20.4542C11.2916 20.178 10.8891 19.4289 10.6491 19.1347C10.5124 18.9672 10.2638 18.7182 10.0966 18.5813C9.75068 18.2982 9.05378 17.9418 8.62037 17.8263C8.32571 17.7477 7.37928 17.6902 7.10631 17.7342ZM8.42627 19.9758C9.16411 20.3373 9.58458 21.1676 9.42404 21.9461C9.30238 22.5359 8.94423 23.002 8.41123 23.2641C8.1617 23.3869 8.07994 23.4015 7.64355 23.4015C7.21552 23.4015 7.12052 23.3853 6.875 23.27C6.14561 22.9276 5.70654 22.0912 5.85018 21.3178C5.97902 20.6238 6.39719 20.1267 7.0477 19.8943C7.4374 19.7551 8.04976 19.7912 8.42627 19.9758Z" fill="black"/>
</svg>
