<svg width="18" height="18" viewBox="0 0 18 18" fill="none" xmlns="http://www.w3.org/2000/svg">
<path fill-rule="evenodd" clip-rule="evenodd" d="M9.74389 0.0615501C9.39802 0.23491 9.36713 0.723934 9.68875 0.934188C9.73825 0.966546 9.98093 1.03784 10.2281 1.09264C10.9842 1.26026 11.3574 1.38357 12.0346 1.68967C13.0048 2.12812 13.8627 2.73757 14.6635 3.55727C15.8195 4.74051 16.5776 6.16298 16.9311 7.81228C17.0266 8.25748 17.0502 8.3128 17.1883 8.41533C17.4091 8.57919 17.6838 8.56365 17.863 8.3771C18.0242 8.20922 18.0351 8.09974 17.9378 7.62327C17.2307 4.15987 14.6047 1.29663 11.2057 0.28313C10.8185 0.167697 10.0723 -0.000105465 9.94649 4.9736e-08C9.90253 4.9736e-08 9.81136 0.0277151 9.74389 0.0615501ZM2.9347 1.12218C2.48304 1.26635 2.10791 1.57983 1.05069 2.69656C0.293381 3.49657 0.0857739 3.89956 0.0154082 4.70643C-0.0846055 5.85337 0.30297 7.30549 1.15765 8.98623C1.51932 9.69747 1.68131 9.97321 2.13918 10.6569C3.86733 13.2373 6.13243 15.2949 8.80897 16.7155C10.3258 17.5206 11.6074 17.9341 12.775 17.9949C13.6004 18.038 14.3335 17.8076 14.8843 17.3324C14.9489 17.2766 15.3539 16.8705 15.7844 16.4298C16.4971 15.7003 16.5803 15.6022 16.716 15.3322C16.9824 14.802 16.9831 14.3291 16.7184 13.7871C16.576 13.4956 16.5397 13.4555 15.2642 12.1823C14.0261 10.9464 13.9417 10.8696 13.6896 10.7498C13.1497 10.4935 12.5947 10.5183 12.0711 10.8222C11.9832 10.8732 11.5832 11.2385 11.1822 11.6339L10.4531 12.3529L10.102 12.1674C8.55236 11.3487 6.51503 9.30228 5.75786 7.80387L5.62245 7.53597L6.30016 6.85424C7.02265 6.12746 7.1963 5.90841 7.31296 5.57689C7.4704 5.12944 7.43867 4.6989 7.21488 4.24642C7.09946 4.01306 6.9802 3.88338 5.78088 2.6872C4.4158 1.32565 4.30588 1.23395 3.89095 1.11103C3.63843 1.03622 3.18765 1.04146 2.9347 1.12218ZM3.72487 2.14553C3.94566 2.24904 6.22356 4.53261 6.321 4.74807C6.50421 5.15325 6.42715 5.28686 5.45881 6.24286C5.02776 6.66843 4.64749 7.07094 4.61378 7.13734C4.51479 7.33229 4.55681 7.68865 4.71947 8.03393C5.17273 8.99597 5.90705 9.96586 7.02614 11.0805C7.94452 11.9952 8.88885 12.7036 9.84376 13.1941C10.2431 13.3993 10.2973 13.4177 10.4959 13.416C10.635 13.4149 10.7569 13.3911 10.836 13.3497C10.9039 13.3141 11.3164 12.9332 11.7526 12.5031C12.1889 12.073 12.5999 11.6936 12.666 11.66C12.8423 11.5704 13.1508 11.5995 13.3286 11.7224C13.578 11.8948 15.7216 14.0747 15.8064 14.2421C15.9097 14.4461 15.9095 14.6763 15.8059 14.8797C15.7298 15.0291 14.5939 16.2175 14.2029 16.5568C13.6379 17.0472 12.8439 17.1064 11.5411 16.7553C10.5895 16.4988 9.12047 15.7883 7.91001 14.9992C5.33553 13.3208 2.98103 10.6013 1.79063 7.93112C1.02531 6.21451 0.836635 4.89829 1.23859 4.07982C1.31104 3.93231 1.5263 3.69149 2.14524 3.06544C2.65888 2.54592 3.01515 2.21397 3.11555 2.16139C3.31283 2.05809 3.52657 2.05253 3.72487 2.14553ZM9.57541 3.34104C9.33431 3.48767 9.24907 3.80481 9.3891 4.03395C9.48809 4.19588 9.57432 4.23953 10.0005 4.34329C10.9782 4.58133 11.7624 5.02842 12.4304 5.72876C13.0592 6.38794 13.4864 7.18053 13.6744 8.0366C13.7472 8.36827 13.7984 8.47952 13.9236 8.57771C14.2091 8.80183 14.6673 8.63663 14.7333 8.28586C14.7834 8.01916 14.5186 7.10227 14.2151 6.49184C13.4285 4.91004 12.0024 3.77091 10.2896 3.3563C9.86195 3.25279 9.72527 3.24988 9.57541 3.34104Z" fill="#1B5027"/>
</svg>
