<svg width="50" height="53" viewBox="0 0 50 53" fill="none" xmlns="http://www.w3.org/2000/svg">
<ellipse cx="18.9806" cy="34.1968" rx="18.9806" ry="18.8032" fill="#CFE8D5"/>
<path fill-rule="evenodd" clip-rule="evenodd" d="M16.1442 13.935L2.08191 27.8699V30.3865C2.08191 32.6667 2.09763 32.9224 2.24944 33.1082C2.38842 33.2783 2.7362 33.3767 4.28502 33.6842C5.31245 33.8881 6.17179 34.0729 6.19463 34.0948C6.21746 34.1166 5.30141 35.0639 4.15905 36.2001L2.08191 38.2659V40.7781C2.08191 43.0572 2.09754 43.3094 2.25 43.4961C2.39946 43.679 3.48164 43.9126 11.9952 45.6002C17.2626 46.6442 21.6617 47.4758 21.771 47.4479C21.8803 47.4199 28.2765 41.1459 35.9849 33.5054L50 19.6136V17.0829C50 14.5773 49.9979 14.5501 49.788 14.3422C49.6161 14.1717 49.2326 14.0658 47.7524 13.7803C46.7494 13.5867 45.9101 13.4107 45.8873 13.3892C45.8644 13.3676 46.7805 12.4204 47.9229 11.2842L50 9.21845V6.73619C50 5.27781 49.9618 4.18335 49.9074 4.08263C49.8566 3.9884 49.6355 3.8466 49.4161 3.76749C48.98 3.6102 30.7829 0 30.4262 0C30.2589 0 26.8469 3.329 16.1442 13.935ZM31.2635 1.63635C31.4555 1.68727 31.2018 1.97088 28.9202 4.25504C25.0734 8.10609 23.0031 10.3772 20.2445 13.7723C16.6046 18.252 13.3286 23.0081 10.3212 28.1791C9.98399 28.7589 9.89536 28.8521 9.72381 28.8072C9.613 28.7783 8.42731 28.5422 7.08897 28.2826C5.75064 28.023 4.59443 27.7906 4.51974 27.7661C4.35661 27.7126 30.6925 1.57598 30.9075 1.57793C30.9847 1.57858 31.145 1.60491 31.2635 1.63635ZM34.2367 2.22722C34.7408 2.32998 35.1718 2.43246 35.1945 2.45509C35.2173 2.47762 34.3813 3.38474 33.3368 4.47085C31.1453 6.74954 30.1406 7.853 29.1314 9.08879C24.316 14.986 20.9016 21.7239 19.074 28.9358C18.8607 29.7774 18.6669 30.4845 18.6434 30.5071C18.6072 30.5418 11.6393 29.2169 11.551 29.1585C11.5002 29.125 11.8008 28.5903 12.7974 26.9407C16.4298 20.9282 20.6265 15.3125 25.5147 9.92348C26.4615 8.87947 33.2176 2.04034 33.302 2.04034C33.3121 2.04034 33.7327 2.12446 34.2367 2.22722ZM38.699 3.11078C39.4583 3.25722 40.0795 3.40542 40.0795 3.4402C40.0795 3.47498 38.9603 4.55664 37.5925 5.844C34.4827 8.77087 33.5264 9.83695 32.0616 12.0102C29.8452 15.2988 28.3048 19.3262 27.7697 23.2321C27.6857 23.8442 27.5994 24.4704 27.5778 24.6237C27.5467 24.8441 26.8869 25.5479 24.4184 27.9932L21.2982 31.084L20.7215 30.9716C20.4043 30.9098 20.1451 30.8334 20.1454 30.8017C20.1485 30.5152 21.1252 27.1041 21.6382 25.5882C23.6698 19.5846 27.0281 13.7332 31.1614 8.99605C32.8538 7.05634 37.0202 2.76828 37.1741 2.8076C37.2535 2.82791 37.9397 2.96434 38.699 3.11078ZM44.8057 4.3169C46.247 4.60014 47.4874 4.85258 47.5622 4.8779C47.6508 4.90795 44.51 8.08319 38.5307 14.0086C33.4887 19.0051 29.3511 23.0564 29.336 23.0114C29.291 22.8777 29.6796 21.0792 29.9798 20.0324C31.1185 16.0614 33.4176 12.0764 36.2134 9.22791C37.4174 8.0012 41.9464 3.80245 42.0657 3.80218C42.1315 3.80208 43.3645 4.03376 44.8057 4.3169ZM35.4264 21.5367L22.3441 34.5012L22.3177 33.3677L22.2913 32.2344L35.3735 19.2701L48.4558 6.30568L48.4822 7.43909L48.5086 8.5724L35.4264 21.5367ZM46.1628 14.9756C46.8577 15.1098 47.4874 15.2402 47.5621 15.2654C47.6507 15.2951 45.5711 17.4189 41.5763 21.3778C38.2095 24.7144 35.4446 27.4343 35.4321 27.422C35.4197 27.4097 35.5112 27.0028 35.6354 26.5179C36.1304 24.5862 36.9899 22.794 38.234 21.099C38.4961 20.7419 40.0188 19.1438 41.6178 17.5477C43.8862 15.2832 44.5661 14.655 44.7122 14.6886C44.8151 14.7123 45.4679 14.8414 46.1628 14.9756ZM35.4264 31.9239L22.3441 44.8884L22.3177 43.7549L22.2913 42.6216L35.3735 29.6573L48.4558 16.6929L48.4822 17.8263L48.5086 18.9596L35.4264 31.9239ZM34.4658 25.2672C34.1457 26.2057 33.7537 27.8885 33.6628 28.7147L33.6004 29.2821L27.4511 35.3752L21.3017 41.4683L20.4191 41.3056C19.9336 41.2162 19.5258 41.1368 19.5128 41.1292C19.3996 41.0634 20.3312 38.9322 20.9494 37.8429C21.3138 37.2007 21.4074 37.0971 21.6229 37.0971C21.8296 37.0971 22.9941 35.9868 28.2821 30.7484C31.8068 27.2566 34.7027 24.4115 34.7173 24.4259C34.7319 24.4404 34.6188 24.819 34.4658 25.2672ZM12.447 30.8509L20.7999 32.5051V33.9728C20.7999 35.3412 20.7884 35.4386 20.6296 35.4111C20.5359 35.3947 16.6615 34.6302 12.02 33.712L3.58066 32.0426L3.58 30.5711L3.57935 29.0996L3.83672 29.1481C3.97823 29.1748 7.85286 29.9411 12.447 30.8509ZM11.2235 35.0886C11.2415 35.1064 11.1452 35.3674 11.0095 35.6685C10.8738 35.9696 10.538 36.8838 10.2632 37.6999C9.98839 38.5161 9.73037 39.1769 9.68975 39.1684C9.64913 39.16 8.49984 38.9393 7.13577 38.6779C5.7717 38.4166 4.59471 38.1817 4.52021 38.1559C4.42999 38.1247 5.00257 37.4965 6.23628 36.2728L8.08758 34.4364L9.63921 34.7464C10.4926 34.9168 11.2055 35.0708 11.2235 35.0886ZM16.4012 36.0858C18.2285 36.4479 19.7387 36.7586 19.7572 36.7761C19.7757 36.7938 19.5387 37.301 19.2305 37.9032C18.9223 38.5055 18.5307 39.374 18.3604 39.833C18.1901 40.2921 18.0243 40.6995 17.9921 40.7385C17.9448 40.7958 11.3659 39.5577 11.2833 39.476C11.2478 39.4407 11.8446 37.6115 12.1199 36.9116C12.6003 35.6904 12.7404 35.4277 12.9116 35.4276C13.0036 35.4275 14.5738 35.7237 16.4012 36.0858ZM12.447 41.2381L20.7999 42.8922V44.3644C20.7999 45.7203 20.787 45.8333 20.6361 45.7956C20.546 45.7729 16.6717 45.0064 12.0264 44.0922L3.58047 42.4298L3.57991 40.9583L3.57935 39.4868L3.83672 39.5353C3.97823 39.562 7.85286 40.3283 12.447 41.2381Z" fill="black"/>
</svg>
