<svg width="50" height="49" viewBox="0 0 50 49" fill="none" xmlns="http://www.w3.org/2000/svg">
<ellipse cx="18.5543" cy="30.4925" rx="18.5543" ry="18.5074" fill="#CFE8D5"/>
<path fill-rule="evenodd" clip-rule="evenodd" d="M18.4416 0.214569C17.8062 0.474506 17.1656 1.08235 16.8463 1.7283L16.6115 2.20359L16.5853 5.03368L16.5593 7.86378L12.9816 7.86508C9.04035 7.86646 8.76985 7.89385 7.77645 8.3929C6.7392 8.91399 5.88127 10.0458 5.63587 11.2166C5.56849 11.5383 5.53992 15.2798 5.53992 23.7935C5.53992 34.3968 5.5565 35.9759 5.67286 36.4204C6.04764 37.8524 7.1152 38.9887 8.47974 39.4084C9.02107 39.5749 9.3909 39.5782 27.7698 39.5782C46.1488 39.5782 46.5186 39.5749 47.0599 39.4084C48.0866 39.0927 48.9598 38.3735 49.4674 37.4258C50.0289 36.3774 49.9997 37.1247 49.9997 23.7935C49.9997 15.303 49.9711 11.5375 49.9041 11.2166C49.6634 10.0646 48.7347 8.84701 47.7263 8.36119C46.761 7.89619 46.4513 7.86646 42.558 7.86508L38.9804 7.86378L38.9543 5.03368L38.9282 2.20359L38.689 1.71888C38.369 1.07042 37.67 0.423089 37.0341 0.186311L36.5337 0L27.7448 0.00207398L18.956 0.00406159L18.4416 0.214569ZM36.6061 1.9007C36.7618 1.99515 36.9668 2.19909 37.0617 2.35404C37.2238 2.61864 37.2343 2.79372 37.2346 5.24972L37.2349 7.86378H36.106H34.9772V6.17203V4.48028L34.7234 4.22769L34.4695 3.9751H27.7698H21.0701L20.8163 4.22769L20.5625 4.48028V6.17203V7.86378H19.4336H18.3048L18.3051 5.24972C18.3054 2.79372 18.3159 2.61864 18.478 2.35404C18.5729 2.19909 18.7778 1.99515 18.9335 1.9007C19.2109 1.73237 19.3879 1.72891 27.7698 1.72891C36.1518 1.72891 36.3288 1.73237 36.6061 1.9007ZM33.2405 6.78359V7.86378H27.7698H22.2992V6.78359V5.7034H27.7698H33.2405V6.78359ZM46.8004 9.82126C47.3536 10.0758 47.8717 10.6318 48.0855 11.2005C48.2559 11.6535 48.2629 11.8507 48.2616 16.0981C48.2598 21.0522 48.2416 21.2495 47.6853 22.3173C47.2656 23.1229 46.4215 23.9673 45.6573 24.3459C44.873 24.7345 44.1931 24.8876 43.2518 24.8876H42.445V22.8934V20.8992L42.1912 20.6466L41.9374 20.394H38.9797H36.022L35.7384 20.646L35.4548 20.898L35.4272 22.8928L35.3996 24.8876H27.7698H20.14L20.1125 22.8928L20.0849 20.898L19.8013 20.646L19.5177 20.394H16.56H13.6023L13.3484 20.6466L13.0946 20.8992V22.8934V24.8876H12.2879C11.3465 24.8876 10.6667 24.7345 9.88239 24.3459C9.11815 23.9673 8.27402 23.1229 7.85435 22.3173C7.29808 21.2495 7.27984 21.0522 7.27811 16.0981C7.27672 11.8594 7.2841 11.6533 7.45256 11.2157C7.73946 10.4705 8.34723 9.91061 9.08463 9.71212C9.40731 9.62527 13.289 9.60608 27.9435 9.61905L46.3961 9.63529L46.8004 9.82126ZM16.9323 12.7453C16.6239 13.0036 16.5429 13.3399 16.6993 13.7126C16.943 14.2931 16.2424 14.2585 27.7698 14.2585C39.2973 14.2585 38.5967 14.2931 38.8403 13.7126C38.9968 13.3399 38.9158 13.0036 38.6073 12.7453L38.3505 12.5302H27.7698H17.1892L16.9323 12.7453ZM18.3709 25.3413L18.3482 28.5602L16.5897 28.5836L14.8313 28.607V25.3647V22.1223H16.6125H18.3937L18.3709 25.3413ZM40.7083 25.3647V28.607L38.9499 28.5836L37.1915 28.5602L37.1687 25.3413L37.146 22.1223H38.9272H40.7083V25.3647ZM8.31866 25.4288C8.76456 25.7539 9.76247 26.2319 10.3593 26.4064C10.6636 26.4953 11.3319 26.5796 11.9658 26.6089L13.0512 26.6591L13.0728 28.1713C13.086 29.0975 13.1329 29.7575 13.1939 29.8742C13.4166 30.3004 13.6501 30.3317 16.6072 30.3317C18.932 30.3317 19.3959 30.3109 19.6184 30.1964C20.0515 29.9735 20.1283 29.6494 20.1283 28.0445V26.6159H27.7698H35.4114V28.0445C35.4114 29.6494 35.4881 29.9735 35.9213 30.1964C36.1437 30.3108 36.6071 30.3317 38.9266 30.3317C41.876 30.3317 42.1231 30.2998 42.3366 29.8914C42.4087 29.7535 42.4526 29.1747 42.4668 28.1713L42.4885 26.6591L43.5739 26.6071C45.3682 26.5212 46.6639 26.0068 47.837 24.9149L48.263 24.5182V30.1314C48.263 34.8615 48.2426 35.813 48.1332 36.1796C47.9642 36.746 47.399 37.3834 46.8335 37.6454L46.3961 37.8481H27.7698H9.14359L8.70612 37.6454C8.14064 37.3834 7.57543 36.746 7.40645 36.1796C7.29704 35.813 7.27663 34.8608 7.27663 30.1252V24.506L7.64568 24.8565C7.84862 25.0494 8.1515 25.3069 8.31866 25.4288Z" fill="black"/>
</svg>
