<svg width="18" height="18" viewBox="0 0 18 18" fill="none" xmlns="http://www.w3.org/2000/svg">
<path fill-rule="evenodd" clip-rule="evenodd" d="M1.66341 3.04046C1.21415 3.14176 0.89611 3.31491 0.592172 3.62363C0.360726 3.85873 0.209223 4.10232 0.0891252 4.43234L0 4.67734V9.50366V14.33L0.0891252 14.575C0.331284 15.2405 0.824849 15.7185 1.48043 15.9224L1.72994 16H8.5H15.2701L15.5196 15.9224C16.1752 15.7185 16.6687 15.2405 16.9109 14.575L17 14.33V9.50366V4.67734L16.9109 4.43234C16.6722 3.77633 16.1899 3.30362 15.5362 3.08515L15.3033 3.00733L8.58317 3.00138C3.05205 2.9965 1.82768 3.00342 1.66341 3.04046ZM15.4274 4.08588C15.6693 4.20546 15.8383 4.37633 15.9602 4.6247L16.0352 4.77754L16.0439 9.45974C16.0525 14.1192 16.0522 14.1428 15.9839 14.3262C15.8939 14.5676 15.6739 14.8091 15.4314 14.9324L15.2368 15.0314H8.5H1.76321L1.59687 14.9495C1.35222 14.8292 1.10603 14.5674 1.0198 14.336L0.948141 14.1438V9.50837C0.948141 4.37834 0.932804 4.73789 1.16538 4.41898C1.29968 4.23488 1.48133 4.10542 1.72375 4.02109C1.88783 3.96401 2.22211 3.96144 8.5506 3.96852L15.2049 3.97593L15.4274 4.08588ZM2.2925 4.82987C2.04852 4.90178 1.90101 5.17911 1.97493 5.4268C2.00936 5.54223 2.27763 5.79477 4.16077 7.48462C5.34143 8.54404 6.30297 9.422 6.29755 9.43563C6.2921 9.44929 5.33704 10.354 4.17511 11.4462C3.01323 12.5383 2.04389 13.4731 2.021 13.5234C1.87875 13.8369 2.11801 14.1932 2.46716 14.1879C2.54797 14.1867 2.64734 14.1638 2.68793 14.1371C2.72855 14.1104 3.72416 13.1838 4.90039 12.0781L7.03903 10.0676L7.61148 10.5817C7.92636 10.8644 8.22441 11.122 8.27384 11.1542C8.38399 11.2258 8.64166 11.2312 8.74279 11.1639C8.78308 11.1371 9.08515 10.8733 9.41404 10.5776L10.012 10.04L10.096 10.1177C10.1422 10.1605 11.1124 11.084 12.252 12.1699C14.45 14.2643 14.4256 14.2441 14.6859 14.1918C14.8388 14.1611 15.0099 13.987 15.0386 13.8329C15.0921 13.5466 15.1501 13.6105 12.8562 11.4245C10.8238 9.48756 10.7274 9.39037 10.785 9.33643C10.8182 9.30533 11.7771 8.44231 12.9158 7.41859C14.7256 5.79157 14.991 5.54083 15.0252 5.4263C15.0787 5.24704 15.0214 5.06508 14.8693 4.93094C14.7696 4.8431 14.7255 4.82764 14.5748 4.82764C14.4422 4.82764 14.3732 4.84644 14.3015 4.90215C14.2245 4.96187 8.91575 9.73135 8.59558 10.0284L8.50818 10.1095L5.6259 7.51909C4.04064 6.09437 2.71015 4.90743 2.66927 4.88144C2.56484 4.81508 2.41317 4.7943 2.2925 4.82987Z" fill="#1B5027"/>
</svg>
