<svg width="30" height="30" viewBox="0 0 30 30" fill="none" xmlns="http://www.w3.org/2000/svg">
<path fill-rule="evenodd" clip-rule="evenodd" d="M20.1978 2.06381C19.9522 2.20701 19.9194 2.40272 19.9194 3.72434C19.9194 4.41759 19.9446 5.05113 19.9754 5.1322C20.0817 5.41204 20.2926 5.48906 21.0156 5.512L21.6776 5.53306V7.69736V9.86165L16.1538 9.862C12.6519 9.86218 10.5528 9.88377 10.419 9.92096C9.99541 10.0388 9.98744 10.0675 9.96751 11.5491C9.94266 13.3906 9.9375 13.3816 11.024 13.3816H11.7143V15.5807V17.7798L6.03064 17.7953L0.346947 17.8108L0.184486 17.9734L0.0219659 18.1359L0.00414901 19.4642C-0.0083931 20.3979 0.00707941 20.8427 0.0563101 20.9617C0.16075 21.214 0.385043 21.3015 0.92746 21.3015H1.39925V24.619C1.39925 28.1679 1.4006 28.1851 1.68907 28.3396C1.76409 28.3798 3.65256 28.4 7.33654 28.4H12.8713L21.3814 21.6456C26.6645 17.4526 29.9121 14.8372 29.9458 14.7486C29.9777 14.6646 30 12.1111 30 8.53493C30 2.00591 30.0096 2.22127 29.7101 2.06088C29.5552 1.97781 20.3404 1.98068 20.1978 2.06381ZM28.8278 3.76042V4.34708H24.9597H21.0915V3.76042V3.17377H24.9597H28.8278V3.76042ZM28.8278 6.07772V6.63504H27.5648C26.1912 6.63504 26.0418 6.66402 25.9088 6.95606C25.7973 7.20099 25.8262 7.38174 26.0097 7.58742L26.1806 7.77902L27.5042 7.7968L28.8278 7.81457V11.0264V14.2382L20.6457 20.7325L12.4636 27.2267H7.51752H2.57141V25.4081V23.5894H3.82873C5.18985 23.5894 5.33467 23.5629 5.47691 23.2876C5.60391 23.0418 5.57789 22.8482 5.38952 22.637L5.21862 22.4454L3.89502 22.4277L2.57141 22.4099V21.8557V21.3015H7.49173C11.1816 21.3015 12.4505 21.2839 12.5657 21.2313C12.8921 21.0825 12.8864 21.1557 12.8864 17.1098V13.3816H17.6668C20.8334 13.3816 22.4853 13.3612 22.56 13.3212C22.8508 13.1653 22.8498 13.1804 22.8498 9.21926V5.52039H25.8388H28.8278V6.07772ZM24.4256 6.72304C23.9931 6.95835 24.1193 7.67154 24.6127 7.78002C24.8285 7.82748 25.1575 7.67131 25.2446 7.48012C25.4892 6.94268 24.9456 6.44015 24.4256 6.72304ZM21.6776 11.6216V12.2083H16.4029H11.1282V11.6216V11.035H16.4029H21.6776V11.6216ZM11.7143 19.5415V20.1281H6.43954H1.16482V19.5415V18.9548H6.43954H11.7143V19.5415ZM6.40338 22.5066C5.97842 22.722 5.9885 23.3025 6.42102 23.5239C6.83825 23.7375 7.33373 23.3548 7.23321 22.8967C7.15263 22.5294 6.74055 22.3358 6.40338 22.5066Z" fill="#353535"/>
</svg>
