<svg width="30" height="30" viewBox="0 0 30 30" fill="none" xmlns="http://www.w3.org/2000/svg">
<path fill-rule="evenodd" clip-rule="evenodd" d="M4.94659 1.09254C3.80335 1.37029 2.7406 2.24111 2.22232 3.3247C1.79432 4.21962 1.80992 3.98041 1.80992 9.6522V14.7349L1.5256 15.069C0.728523 16.0059 0.225959 17.1441 0.0512667 18.408C0.00712458 18.7275 -0.00811706 20.1904 0.00401763 22.9479L0.0219559 27.0164L0.242725 27.4654C0.497554 27.9834 0.871267 28.3579 1.38831 28.6131C1.69221 28.7631 1.77949 28.7778 2.36682 28.7778C2.94466 28.7778 3.04672 28.7613 3.34891 28.6189C3.82451 28.3949 4.29389 27.9288 4.51953 27.4565C4.68725 27.1053 4.70694 27.0044 4.72998 26.3768L4.75548 25.6845H14.9998H25.2441L25.2696 26.3768C25.2927 27.0044 25.3124 27.1053 25.4801 27.4565C25.7057 27.9288 26.1751 28.3949 26.6507 28.6189C26.9529 28.7613 27.0549 28.7778 27.6328 28.7778C28.2201 28.7778 28.3074 28.7631 28.6113 28.6131C29.1283 28.3579 29.502 27.9834 29.7569 27.4654L29.9776 27.0164L29.9948 22.9184C30.0089 19.5073 29.9972 18.7266 29.9242 18.2607C29.7286 17.0124 29.1756 15.8338 28.3695 14.9474L28.0724 14.6207V9.6155C28.0724 4.79962 28.068 4.5927 27.9548 4.14426C27.644 2.91226 26.8387 1.9246 25.7049 1.38472C24.8363 0.971112 25.5632 0.99686 14.9081 1.00228C6.72963 1.00646 5.24556 1.0199 4.94659 1.09254ZM24.735 2.27075C24.9101 2.32295 25.1851 2.43272 25.3462 2.51468C25.7129 2.70133 26.3527 3.34703 26.5618 3.74155C26.9035 4.38607 26.9 4.33062 26.9 9.19953C26.9 11.6556 26.8929 13.665 26.8842 13.665C26.8756 13.665 26.6584 13.559 26.4017 13.4293C26.145 13.2997 25.9015 13.1937 25.8606 13.1937C25.8031 13.1937 25.7862 12.9414 25.7862 12.085C25.7862 10.8036 25.7334 10.4409 25.4598 9.84475C25.2278 9.33911 24.5977 8.66761 24.1111 8.40742C23.491 8.07582 23.3943 8.06769 20.0689 8.06769C16.7146 8.06769 16.7341 8.06592 16.0413 8.43446C15.8565 8.53286 15.5467 8.77118 15.3529 8.9642L15.0005 9.31513L14.6559 8.96874C14.2832 8.59419 13.808 8.31055 13.3038 8.16167C12.8376 8.02409 7.05468 8.02091 6.53102 8.15801C6.03631 8.28752 5.65175 8.51442 5.1938 8.94694C4.88175 9.24171 4.74288 9.43067 4.56596 9.80127C4.26558 10.4303 4.21341 10.7669 4.21341 12.0756V13.1748L3.97359 13.2543C3.84163 13.2981 3.56464 13.4332 3.35806 13.5545L2.98235 13.7752V9.22351C2.98235 5.20917 2.99349 4.634 3.07685 4.35178C3.3631 3.38203 4.07606 2.6377 5.03276 2.30987L5.41515 2.17884L14.9159 2.17731C23.4852 2.17595 24.4478 2.18508 24.735 2.27075ZM13.3314 9.43232C13.6911 9.6231 14.087 10.043 14.2574 10.4141C14.368 10.6554 14.3862 10.8153 14.4034 11.7016L14.4231 12.7137L10.0364 12.7378C7.62367 12.7511 5.59025 12.7826 5.51774 12.8079L5.38584 12.8539V11.915C5.38584 10.905 5.45179 10.5382 5.70627 10.133C5.93407 9.77039 6.37854 9.42949 6.79241 9.3001C6.87319 9.27483 8.31106 9.25898 9.98764 9.26487L13.036 9.27553L13.3314 9.43232ZM23.4911 9.41228C23.8985 9.63082 24.2308 9.97885 24.4153 10.3804C24.5786 10.7357 24.5851 10.7852 24.604 11.8025L24.6235 12.8565L24.4867 12.8089C24.4115 12.7826 22.3759 12.7506 19.9632 12.7377L15.5765 12.7143L15.5962 11.7019C15.6134 10.8153 15.6316 10.6554 15.7422 10.4141C15.9732 9.91092 16.4772 9.46201 16.9929 9.30016C17.0735 9.27488 18.5112 9.25898 20.1878 9.26487L23.2361 9.27553L23.4911 9.41228ZM24.027 13.9624C25.359 14.0998 26.5571 14.6927 27.4201 15.6417C27.828 16.0904 28.0328 16.3984 28.3087 16.9787C28.7156 17.8341 28.7906 18.2314 28.82 19.6875L28.846 20.9669L25.7871 20.9837L22.7282 21.0004L22.5571 21.1929C22.3235 21.4558 22.3236 21.742 22.5575 21.9772L22.7288 22.1494H25.7817H28.8345V23.3278V24.5061H14.9998H1.16508V23.3278V22.1494H9.2418C18.1789 22.1494 17.5019 22.1803 17.638 21.7659C17.7338 21.474 17.5732 21.1464 17.286 21.0479C17.1312 20.9949 15.126 20.9768 9.11658 20.9743L1.15236 20.971L1.17921 19.66C1.204 18.4488 1.21807 18.3091 1.3641 17.8235C1.80646 16.352 2.68942 15.2522 3.98924 14.5535C4.53354 14.261 5.28208 14.0287 5.88413 13.9656C6.59655 13.8908 23.3051 13.8879 24.027 13.9624ZM19.882 21.0167C19.6819 21.0489 19.455 21.3581 19.455 21.5987C19.455 21.8945 19.7183 22.1494 20.0237 22.1494C20.4606 22.1494 20.7157 21.7686 20.5484 21.3662C20.5017 21.254 20.4336 21.1436 20.397 21.1208C20.2806 21.0485 20.0164 20.995 19.882 21.0167ZM3.56857 26.1872C3.56857 26.9218 3.39546 27.2673 2.89923 27.523C2.55646 27.6996 2.01351 27.6535 1.68447 27.4199C1.31779 27.1596 1.19838 26.881 1.17405 26.2295L1.15376 25.6845H2.36114H3.56857V26.1872ZM28.8255 26.2295C28.8012 26.881 28.6818 27.1596 28.3151 27.4199C27.9861 27.6535 27.4431 27.6996 27.1004 27.523C26.6041 27.2673 26.431 26.9218 26.431 26.1872V25.6845H27.6385H28.8458L28.8255 26.2295Z" fill="#353535"/>
</svg>
