<svg width="30" height="30" viewBox="0 0 30 30" fill="none" xmlns="http://www.w3.org/2000/svg">
<path fill-rule="evenodd" clip-rule="evenodd" d="M6.66364 0.0151391C3.82471 0.330649 1.35516 2.30383 0.395524 5.02338C-0.0253524 6.21621 0.000302946 5.56787 0.000302946 15.0023C0.000302946 23.065 0.00570408 23.509 0.10991 23.9833C0.773485 27.0048 2.99593 29.2269 6.01785 29.8904C6.49221 29.9946 6.93634 30 15.0002 30C23.064 30 23.5081 29.9946 23.9824 29.8904C27.0061 29.2265 29.2264 27.0065 29.8904 23.9833C29.9946 23.509 30 23.065 30 15.0023C30 6.93962 29.9946 6.49556 29.8904 6.02127C29.2276 3.00365 27.1019 0.866751 24.0118 0.111934C23.6348 0.019835 22.9088 0.0107366 15.235 0.00193168C10.6338 -0.00335127 6.77665 0.00257737 6.66364 0.0151391ZM23.4834 1.47047C24.1141 1.57308 24.676 1.75763 25.274 2.05847C25.8755 2.36106 26.1611 2.56557 26.6966 3.07708C27.7059 4.04122 28.2959 5.14659 28.5308 6.51323C28.6655 7.29687 28.6655 22.7077 28.5308 23.4913C28.4171 24.1526 28.2544 24.6519 27.9593 25.2453C27.6647 25.8376 27.412 26.1893 26.8908 26.7327C25.9511 27.7121 24.8417 28.2988 23.4904 28.531C22.7243 28.6626 7.32387 28.6654 6.51687 28.5341C5.18256 28.317 4.03735 27.706 3.07325 26.6971C2.56167 26.1616 2.35713 25.8761 2.05449 25.2747C1.75361 24.6768 1.56903 24.1149 1.46641 23.4844C1.33808 22.6962 1.33808 7.30837 1.46641 6.52021C1.67841 5.21802 2.26472 4.08777 3.20851 3.16172C3.92287 2.46091 4.71002 1.97793 5.62574 1.67862C6.49591 1.39422 6.42623 1.3964 14.9414 1.39029C21.7197 1.38536 23.0365 1.39775 23.4834 1.47047Z" fill="#353535"/>
<path d="M22.8 14.2911V10.7456V7.2002H19.2546H15.7091V7.90864V8.61702L18.0433 8.6325L20.3776 8.64792L14.4979 14.5273L8.61823 20.4068V18.058V15.7093H7.90914H7.20005V19.2547V22.8002H10.7455H14.291V22.0911V21.382H11.9422H9.59347L15.4729 15.5023L21.3523 9.62263L21.3677 11.9569L21.3832 14.2911H22.0916H22.8Z" fill="#353535"/>
</svg>
