<svg width="29" height="18" viewBox="0 0 29 18" fill="none" xmlns="http://www.w3.org/2000/svg">
<path fill-rule="evenodd" clip-rule="evenodd" d="M13.199 0.0201367C9.99791 0.317162 7.26899 1.43184 4.68839 3.49633C3.96001 4.07908 2.57376 5.46507 1.98537 6.19892C1.34329 6.99979 0.557319 8.17961 0.514438 8.40697C0.495187 8.50901 0.495187 8.67608 0.514438 8.77812C0.557319 9.00549 1.34329 10.1853 1.98537 10.9862C2.57376 11.72 3.96001 13.106 4.68839 13.6888C7.03409 15.5653 9.50929 16.6572 12.3608 17.0731C13.2692 17.2057 15.3998 17.2057 16.3082 17.0731C18.1913 16.7984 19.8781 16.2447 21.4453 15.3867C23.8554 14.0674 26.047 12.0477 27.6388 9.67909C28.3424 8.63225 28.3424 8.55285 27.6388 7.506C26.9461 6.47529 26.3216 5.72267 25.3668 4.76823C22.769 2.17117 19.8526 0.650602 16.4975 0.14396C15.7889 0.0369191 13.8158 -0.0371489 13.199 0.0201367ZM15.6995 1.78712C18.1941 2.05047 20.642 3.08403 22.7636 4.76974C23.886 5.66162 25.2589 7.10672 26.0089 8.18595L26.2902 8.59077L26.0704 8.9127C25.1376 10.2792 23.5221 11.9107 22.0942 12.9285C19.4396 14.8205 16.2462 15.7125 13.1678 15.4218C10.0487 15.1272 7.2028 13.7558 4.68845 11.3358C3.9984 10.6717 3.11585 9.65489 2.65952 8.99823L2.37757 8.59255L2.64908 8.20258C3.17815 7.44253 3.65833 6.88721 4.57029 5.98064C5.87495 4.68378 7.06513 3.8182 8.58251 3.06279C10.7855 1.96602 13.235 1.52694 15.6995 1.78712ZM13.4337 3.50832C12.3451 3.70487 11.4565 4.17606 10.6555 4.98167C9.95914 5.68195 9.5107 6.47777 9.26828 7.44345C9.13985 7.95504 9.13985 9.23006 9.26828 9.74165C9.5107 10.7073 9.95914 11.5031 10.6555 12.2034C11.6161 13.1695 12.7376 13.6708 14.0912 13.7389C15.5886 13.8143 16.8955 13.3052 17.9838 12.2226C18.7243 11.486 19.1499 10.7408 19.4009 9.74111C19.5292 9.23011 19.5291 7.95477 19.4008 7.44345C19.2662 6.90727 19.014 6.31021 18.7275 5.84929C18.3878 5.3029 17.6133 4.54129 17.0446 4.19441C15.9835 3.54716 14.6366 3.29123 13.4337 3.50832ZM15.0645 5.23023C16.2329 5.47212 17.2761 6.42796 17.6481 7.59745C17.818 8.13141 17.818 9.05368 17.6481 9.58765C17.3081 10.6567 16.4101 11.55 15.3349 11.8889C15.0284 11.9855 14.8329 12.0077 14.3075 12.0056C13.7473 12.0033 13.6043 11.9836 13.2619 11.8615C12.695 11.6592 12.3112 11.4169 11.875 10.9862C10.5359 9.66371 10.5471 7.51843 11.9 6.17009C12.7386 5.33426 13.9004 4.98925 15.0645 5.23023Z" fill="currentColor"/>
</svg>
