<svg width="39" height="50" viewBox="0 0 39 50" fill="none" xmlns="http://www.w3.org/2000/svg">
<ellipse cx="17.0763" cy="32.7837" rx="17.0763" ry="17.2164" fill="#CFE8D5"/>
<path fill-rule="evenodd" clip-rule="evenodd" d="M20.4998 0.0681549C17.9331 0.319311 15.3231 1.02193 13.0829 2.06463C12.294 2.43182 12.1466 2.56703 12.1466 2.9236C12.1466 3.27871 12.2273 3.42548 12.5016 3.56941C12.7959 3.72369 12.83 3.71523 14.1043 3.17113C15.7996 2.44728 17.5233 1.95153 19.4062 1.6465C20.1438 1.52692 20.8628 1.49161 22.5735 1.49074C24.8357 1.48962 25.5548 1.55334 27.0782 1.89005C27.4961 1.98235 27.9461 2.03381 28.0783 2.00436C28.5769 1.89325 28.7478 1.21023 28.3676 0.847871C27.7817 0.289611 23.0392 -0.180325 20.4998 0.0681549ZM30.4681 1.81071C30.3448 1.94471 30.2766 2.12671 30.2766 2.32192C30.2766 2.69334 30.4805 2.89641 31.1278 3.16975C31.3853 3.27854 31.892 3.51804 32.2537 3.70202C32.6155 3.88601 33.029 4.03658 33.1726 4.03658C33.6799 4.03658 34.005 3.45277 33.7582 2.98508C33.6364 2.75421 31.463 1.6932 31.0067 1.64183C30.7207 1.60963 30.6259 1.63933 30.4681 1.81071ZM21.7649 3.05829C19.9688 3.14497 17.9205 3.50707 17.623 3.79061C17.3461 4.05445 17.3553 4.49288 17.6438 4.78556C17.8933 5.03862 17.9158 5.03801 19.5944 4.72858C20.1093 4.63369 21.1435 4.53104 21.8925 4.50048C27.0272 4.29102 31.8992 6.16438 35.6349 9.78469C35.9941 10.1327 36.3945 10.4586 36.5247 10.5088C36.9924 10.6892 37.5167 10.1976 37.3924 9.69542C37.3193 9.39997 36.1291 8.23432 34.9478 7.30127C31.281 4.40499 26.4018 2.83459 21.7649 3.05829ZM13.8064 5.10139C11.4443 6.26841 9.2972 7.88949 7.65512 9.74558C6.75007 10.7686 6.52884 11.0969 6.52884 11.4164C6.52884 11.7802 6.82931 12.066 7.21191 12.066C7.45679 12.066 7.56643 11.9906 7.92988 11.5725C10.0442 9.14018 11.8705 7.67278 14.3094 6.4467C14.9607 6.11931 15.5639 5.78674 15.65 5.70765C16.0297 5.3591 15.6814 4.55452 15.1508 4.5547C15.02 4.5547 14.415 4.80076 13.8064 5.10139ZM21.169 6.15738C21.052 6.17785 20.6115 6.2369 20.1902 6.28853C16.5275 6.738 12.6472 8.78818 10.0309 11.6561C7.30835 14.6408 5.82067 17.9923 5.42913 22.0235C5.33941 22.9476 5.38589 23.1937 5.6912 23.4107C5.99584 23.627 6.31418 23.5842 6.55447 23.2946C6.73236 23.0802 6.77475 22.9144 6.82514 22.237C7.15139 17.8518 9.55443 13.4472 13.0686 10.7933C16.3432 8.32023 19.8338 7.31802 24.165 7.60742L25.2458 7.6796L25.463 7.45927C25.8857 7.0306 25.6733 6.43245 25.0419 6.27342C24.6915 6.1851 21.549 6.09099 21.169 6.15738ZM27.6805 7.07066C27.4107 7.2221 27.2975 7.41481 27.2975 7.72243C27.2975 8.11526 27.4962 8.28587 28.3301 8.60912C29.2419 8.9625 30.528 9.65 31.5414 10.3259C31.9796 10.6182 32.3932 10.8573 32.4606 10.8573C32.6576 10.8573 33.0602 10.6168 33.1177 10.4649C33.2035 10.2383 33.1734 9.87534 33.056 9.71864C32.7177 9.26727 30.2705 7.83579 28.966 7.32622C28.1307 6.99995 27.8913 6.95238 27.6805 7.07066ZM21.625 9.20968C21.157 9.41775 21.0272 10.0414 21.3823 10.3753C21.5822 10.5632 21.6831 10.5788 22.9783 10.6233C25.0233 10.6934 26.4188 11.0346 28.1912 11.8977C30.725 13.1317 32.7505 15.1531 34.0437 17.7385C35.1543 19.9587 35.4624 21.5592 35.4666 25.1285C35.4688 27.0099 35.4688 27.0103 35.6777 27.2222C35.9578 27.5063 36.392 27.5082 36.6529 27.2263L36.8454 27.0186L36.8078 24.3124C36.7748 21.9356 36.7475 21.5012 36.5833 20.7429C36.2198 19.0644 35.4794 17.2014 34.6583 15.8991C33.3011 13.7464 31.1973 11.8034 29.0335 10.7038C27.7776 10.0656 26.0904 9.52404 24.7014 9.31311C23.8359 9.18171 21.839 9.11462 21.625 9.20968ZM18.036 9.90979C16.5862 10.4188 14.4852 11.5804 14.2672 11.9936C14.1644 12.1884 14.2189 12.628 14.3687 12.8109C14.4199 12.8736 14.5933 12.9498 14.754 12.9804C15.0068 13.0285 15.1516 12.9713 15.8306 12.5553C16.7573 11.9874 17.6279 11.5768 18.5933 11.2522C19.6302 10.9035 19.9091 10.4294 19.3881 9.9009C19.0837 9.59207 18.9384 9.59302 18.036 9.90979ZM34.44 11.6587C34.261 11.798 34.1069 12.1001 34.1069 12.3113C34.1069 12.405 34.4003 12.8446 34.7588 13.2883C35.9062 14.708 36.749 16.1406 37.3412 17.6779C37.7043 18.6204 37.969 18.973 38.3135 18.973C38.5725 18.973 38.9262 18.684 38.9918 18.4189C39.1059 17.9576 38.0127 15.4823 37.0491 14.0203C36.4202 13.0664 35.5713 11.9876 35.2433 11.726C34.995 11.5278 34.6456 11.4985 34.44 11.6587ZM20.245 12.4625C15.3604 13.5467 11.713 17.8465 11.406 22.8824C11.3479 23.8351 11.421 24.0778 11.8158 24.2437C12.1245 24.3734 12.4499 24.2912 12.6101 24.0429C12.6833 23.9298 12.7737 23.4358 12.8274 22.8572C12.878 22.3117 12.993 21.5649 13.0831 21.1976C13.994 17.4798 16.9772 14.5997 20.7183 13.826C21.5215 13.66 21.7649 13.4694 21.7649 13.0069C21.7649 12.7597 21.7117 12.6405 21.5406 12.504C21.2842 12.2994 21.0179 12.2909 20.245 12.4625ZM23.6998 12.5099C23.5768 12.6219 23.4694 12.7718 23.4615 12.843C23.4042 13.3563 23.6371 13.6694 24.1418 13.7573C24.8202 13.8754 25.7621 14.1465 26.3537 14.394C27.1127 14.7115 27.3273 14.7201 27.5992 14.4442C27.8733 14.1662 27.8813 13.7187 27.6167 13.4707C27.2303 13.1087 25.4089 12.4767 24.4273 12.364C23.9746 12.3121 23.9011 12.3268 23.6998 12.5099ZM12.5221 13.5311C12.0071 13.7427 10.4563 15.9036 9.77139 17.3644C8.68538 19.6803 8.32678 21.6511 8.31929 25.3447C8.31589 27.065 8.31325 27.0739 7.54123 27.9604C6.97324 28.6125 6.8385 28.8947 6.9512 29.1953C7.05061 29.4607 7.35814 29.6789 7.63273 29.6789C7.96316 29.6789 9.11412 28.4306 9.45339 27.7043L9.72075 27.1319L9.77395 24.6281C9.83029 21.9798 9.90503 21.3284 10.3188 19.8802C10.8166 18.1375 11.6529 16.6045 12.971 15.0181C13.3259 14.5909 13.4234 14.4095 13.4234 14.1763C13.4234 13.8933 13.1891 13.5337 13.0047 13.5337C12.9618 13.5337 12.8755 13.5167 12.8132 13.496C12.7508 13.4752 12.6198 13.491 12.5221 13.5311ZM29.3281 15.044C29.0804 15.1827 28.8914 15.6129 28.9758 15.8457C29.0055 15.9274 29.3138 16.3024 29.6609 16.6789C31.0427 18.1778 31.9103 19.8888 32.2735 21.8315C32.4371 22.7063 32.4587 27.797 32.3055 29.3767C32.2501 29.9465 32.2318 30.5207 32.2644 30.6527C32.3444 30.9754 32.7825 31.1936 33.1028 31.0701C33.6668 30.8525 33.7623 30.1942 33.824 26.0959C33.8856 21.9953 33.7095 20.7884 32.7518 18.7491C32.1982 17.5702 31.6066 16.7054 30.7207 15.7801C29.9369 14.9613 29.6997 14.8359 29.3281 15.044ZM21.1975 15.3825C18.3853 15.927 16.0803 17.8121 15.0128 20.4408C14.5079 21.6842 14.4293 22.2543 14.3582 25.1893C14.2865 28.1468 14.2314 28.4773 13.5874 29.8077C13.1686 30.6729 12.8073 31.1597 11.4454 32.6931C10.8491 33.3646 10.3373 34.0108 10.308 34.1293C10.1748 34.6672 10.7062 35.1573 11.1984 34.9505C11.4397 34.8491 13.3656 32.7302 14.0228 31.8431C14.5062 31.1905 14.9225 30.4078 15.2074 29.6161C15.6696 28.3314 15.7403 27.7785 15.8057 24.9303C15.8609 22.5343 15.8835 22.2431 16.0576 21.6983C16.7869 19.4151 18.3244 17.796 20.4712 17.0504C21.4481 16.7112 23.0014 16.625 24.0149 16.8537C26.5551 17.427 28.4625 19.2484 29.1905 21.7963C29.375 22.4421 29.3828 22.6004 29.3812 25.6642C29.3798 28.3086 29.3528 29.0371 29.2247 29.8947C28.5115 34.6682 26.6921 38.5861 23.4784 42.2682C22.8158 43.0273 22.7012 43.2031 22.7012 43.4593C22.7012 43.8151 23.0159 44.1853 23.3144 44.1806C23.6305 44.1756 23.8256 44.0156 24.6269 43.1044C28.3227 38.9015 30.4108 33.8889 30.7841 28.3236C30.8971 26.638 30.8955 23.7517 30.7808 22.709C30.51 20.2449 29.1903 18.0513 27.1468 16.6684C26.3448 16.1256 25.5454 15.7625 24.5936 15.509C23.7388 15.2813 22.046 15.2182 21.1975 15.3825ZM21.8824 18.3646C20.1582 18.6368 18.711 19.7027 17.9482 21.2624C17.5039 22.171 17.424 22.6646 17.4225 24.5111C17.4196 28.0749 17.1074 29.7 16.053 31.638C15.5806 32.5061 15.1495 33.0755 13.8846 34.5017C12.4511 36.118 12.3168 36.3002 12.3168 36.6294C12.3168 37.0985 12.8183 37.4073 13.285 37.2257C13.4071 37.1781 14.9544 35.4776 15.9489 34.298C16.9703 33.0864 17.8659 31.388 18.3152 29.8106C18.6783 28.536 18.7857 27.5366 18.7863 25.4274C18.7865 24.3704 18.8236 23.277 18.8688 22.9975C19.1112 21.4956 20.2367 20.2607 21.7028 19.8877C22.3778 19.7159 22.8677 19.7135 23.4933 19.8789C24.2351 20.0749 24.8159 20.4117 25.3266 20.9423C25.8898 21.5275 26.236 22.2495 26.3695 23.1172C26.5023 23.9811 26.415 28.0915 26.2364 29.3767C25.7104 33.1635 24.1961 36.657 21.8577 39.4782C21.5036 39.9056 20.6291 40.9082 19.9147 41.7063C18.7607 42.9951 18.6155 43.191 18.6155 43.4586C18.6155 43.6633 18.6824 43.8277 18.8245 43.9717C19.0704 44.2212 19.3355 44.2404 19.6554 44.0321C19.8755 43.8887 21.0041 42.6585 22.5025 40.9285C25.4472 37.5288 27.1673 33.6221 27.6834 29.1614C27.8346 27.8547 27.857 23.1935 27.7154 22.4955C27.4557 21.215 26.4019 19.7406 25.2606 19.0609C24.2767 18.4749 22.9351 18.1984 21.8824 18.3646ZM21.883 21.505C21.481 21.6588 21.0479 21.99 20.8331 22.308C20.4509 22.8738 20.4107 23.1408 20.406 25.1462C20.3997 27.8239 20.2533 28.9896 19.7066 30.7149C19.2452 32.1706 18.3354 33.897 17.4332 35.0286C17.2642 35.2406 16.3841 36.2507 15.4773 37.2734C14.5706 38.2961 13.7761 39.2573 13.7117 39.4093C13.6294 39.6038 13.6187 39.7499 13.6756 39.9016C13.7803 40.1808 14.2055 40.4057 14.4912 40.3329C14.695 40.281 16.8498 37.9475 18.2701 36.2406C19.7287 34.4876 20.8939 32.1482 21.388 29.9811C21.6727 28.7325 21.7681 27.7593 21.8198 25.5778C21.8491 24.3432 21.9092 23.2618 21.9535 23.1746C21.9977 23.0875 22.1649 22.9608 22.3249 22.8929C22.5772 22.786 22.6549 22.786 22.9071 22.8929C23.0672 22.9608 23.2395 23.0947 23.2902 23.1906C23.4355 23.4661 23.4096 27.8097 23.256 28.9201C23.0166 30.6492 22.6823 31.8805 22.0421 33.3914C21.1246 35.5565 20.3334 36.6989 17.7671 39.5646C15.8496 41.7057 15.8918 41.6521 15.8918 41.943C15.8918 42.3117 16.2238 42.6296 16.6088 42.6296C16.8885 42.6296 17.0059 42.5213 18.4125 40.9675C19.2399 40.0535 20.176 38.9916 20.4925 38.608C22.374 36.3277 23.6056 33.8756 24.3171 30.993C24.6558 29.6207 24.7551 28.5934 24.8039 25.9576C24.8462 23.67 24.8355 23.3539 24.7018 22.9456C24.3189 21.7764 22.9723 21.0882 21.883 21.505ZM11.8139 25.8015C11.5017 25.928 11.4014 26.1272 11.3396 26.7421C11.1946 28.1868 10.8709 28.7739 9.13872 30.7351C8.68861 31.2447 8.29716 31.7553 8.26882 31.8697C8.20915 32.1108 8.41445 32.5678 8.61805 32.6471C8.83774 32.7327 9.19847 32.7043 9.34402 32.59C9.69087 32.3179 11.4487 30.2565 11.817 29.6902C12.3022 28.944 12.6504 27.9177 12.7182 27.0335C12.7823 26.1996 12.7176 25.9831 12.3591 25.8312C12.1984 25.763 12.0561 25.7099 12.0429 25.7128C12.0297 25.7158 11.9267 25.7557 11.8139 25.8015ZM32.0001 32.8742C31.8948 32.9182 31.7547 33.0817 31.6888 33.2376C31.465 33.7669 30.6171 36.4804 30.6171 36.6671C30.6171 37.1874 31.4268 37.4731 31.7901 37.0809C31.9834 36.8721 33.0004 33.8837 33.0004 33.5244C33.0004 33.0758 32.4204 32.6989 32.0001 32.8742Z" fill="black"/>
</svg>
