<svg width="30" height="30" viewBox="0 0 30 30" fill="none" xmlns="http://www.w3.org/2000/svg">
<path fill-rule="evenodd" clip-rule="evenodd" d="M4.60895 2.07869C3.93234 2.26626 3.29038 2.88319 3.09663 3.53198L2.99705 3.86558L2.29115 3.886C1.65118 3.90458 1.55242 3.9227 1.23373 4.07994C0.785987 4.30084 0.392436 4.69634 0.172615 5.14629L0 5.49954V15.707V25.9144L0.15324 26.2389C0.465005 26.8991 1.07298 27.3821 1.77894 27.5305C2.21946 27.6232 23.6729 27.6232 24.1134 27.5305C25.2637 27.2887 25.9784 26.3145 25.98 24.9862C25.9803 24.7439 25.9978 24.7037 26.1125 24.6812C26.7649 24.5533 27.1472 24.4302 27.6221 24.1951C28.0907 23.9633 28.261 23.8361 28.7094 23.3832C29.3046 22.7821 29.6047 22.3109 29.8405 21.6072C29.9856 21.1738 29.9987 21.0581 29.9999 20.1911C30.0011 19.3072 29.9908 19.2171 29.8369 18.7751C29.2927 17.2124 27.935 16.0224 26.42 15.7801L25.9804 15.7099L25.98 10.9292C25.9799 8.10804 25.9563 6.00472 25.9225 5.79756C25.8016 5.05543 25.3261 4.40929 24.6586 4.07994C24.3387 3.92211 24.2423 3.90458 23.5878 3.88564C23.0308 3.86954 22.8686 3.84676 22.8686 3.78463C22.8686 3.7405 22.8115 3.55074 22.7417 3.36294C22.5655 2.88927 22.0294 2.35176 21.5559 2.17392C21.061 1.98806 20.6231 1.95585 20.1669 2.07155C19.4417 2.25558 18.8157 2.83994 18.6006 3.53375L18.4945 3.87597L16.8065 3.87644C15.3642 3.87691 15.1185 3.8644 15.1185 3.79071C15.1185 3.74321 15.0614 3.55074 14.9916 3.36294C14.8155 2.88927 14.2793 2.35176 13.8058 2.17392C13.6166 2.10288 13.3123 2.02907 13.1297 2.00984C12.1636 1.90835 11.1232 2.60423 10.8454 3.53765L10.7444 3.87679L9.05644 3.87691C7.61434 3.87697 7.36845 3.8644 7.36845 3.79071C7.36845 3.74321 7.31132 3.55074 7.24151 3.36294C7.0639 2.88526 6.52962 2.35187 6.04747 2.1708C5.59074 1.99928 5.02581 1.96311 4.60895 2.07869ZM5.87961 2.937C6.16014 3.07347 6.37309 3.31503 6.51606 3.6589L6.60677 3.87697H5.19608H3.78539L3.87721 3.65571C4.04038 3.26258 4.44097 2.92154 4.87316 2.80785C5.13883 2.73799 5.58933 2.79575 5.87961 2.937ZM13.6297 2.937C13.9102 3.07347 14.1232 3.31503 14.2661 3.6589L14.3568 3.87697H12.9462H11.5355L11.6273 3.65571C11.7905 3.26258 12.1911 2.92154 12.6232 2.80785C12.8889 2.73799 13.3394 2.79575 13.6297 2.937ZM21.3798 2.937C21.6603 3.07347 21.8733 3.31503 22.0162 3.6589L22.1069 3.87697H20.6962H19.2855L19.3767 3.65571C19.6848 2.90791 20.6259 2.57024 21.3798 2.937ZM6.51606 4.80307C6.298 5.32754 5.90486 5.61719 5.31573 5.68728C4.95189 5.73059 4.8438 5.82334 4.8438 6.09239C4.8438 6.50264 5.29583 6.57338 6.06708 6.2838C6.5288 6.11039 7.06749 5.56698 7.24151 5.09903C7.31132 4.91122 7.36845 4.71876 7.36845 4.67126C7.36845 4.59656 7.83568 4.585 10.8626 4.585H14.3568L14.2661 4.80307C14.0481 5.32754 13.6549 5.61719 13.0658 5.68728C12.702 5.73059 12.5939 5.82334 12.5939 6.09239C12.5939 6.50264 13.0459 6.57338 13.8172 6.2838C14.2789 6.11039 14.8176 5.56698 14.9916 5.09903C15.0614 4.91122 15.1185 4.71876 15.1185 4.67126C15.1185 4.59656 15.5858 4.585 18.6127 4.585H22.1069L22.0162 4.80307C21.7982 5.32754 21.405 5.61719 20.8159 5.68728C20.4521 5.73059 20.344 5.82334 20.344 6.09239C20.344 6.50264 20.796 6.57338 21.5672 6.2838C22.029 6.11039 22.5676 5.56698 22.7417 5.09903C22.8115 4.91122 22.8686 4.71475 22.8686 4.66241C22.8686 4.57886 22.9374 4.57172 23.4295 4.60423C24.2978 4.66153 24.7774 4.9399 25.0476 5.54338C25.1788 5.83638 25.1876 5.93102 25.2065 7.25486L25.2265 8.65617H12.9802H0.733909V7.23822C0.733909 5.71336 0.751875 5.60108 1.06065 5.19426C1.25358 4.94002 1.65993 4.70531 2.00933 4.6463C2.16356 4.62022 3.26114 4.59574 4.44825 4.59196L6.60677 4.585L6.51606 4.80307ZM25.2171 12.5522C25.2171 15.0057 25.2013 15.6853 25.1437 15.7005C25.1034 15.7111 24.8487 15.7622 24.5778 15.814C24.2697 15.8729 23.9093 15.9964 23.6151 16.1438L23.1449 16.3794L22.9809 16.203L22.817 16.0266L20.9886 16.0438C19.2571 16.0601 19.1557 16.0671 19.0768 16.1755C18.9541 16.3444 18.9541 19.9076 19.0768 20.0766C19.1523 20.1805 19.2497 20.1929 20.1286 20.2098L21.0972 20.2284L21.1169 20.575L21.1366 20.9215L20.1483 20.9398C19.2496 20.9565 19.1524 20.9686 19.0768 21.0727C18.9541 21.2417 18.9541 24.805 19.0768 24.9738C19.1557 25.0822 19.2568 25.0892 20.9741 25.1055C22.7445 25.1222 22.7919 25.1196 22.9458 24.998C23.0919 24.8824 23.1035 24.8407 23.1035 24.4301C23.1035 24.1864 23.1232 23.9972 23.1475 24.0097C23.8913 24.3936 24.4876 24.6075 24.9516 24.6567C25.1089 24.6734 25.131 24.702 25.1716 24.9408C25.2281 25.2727 25.1396 25.7766 24.9789 26.0379C24.7926 26.3407 24.4039 26.6447 24.0788 26.7418C23.638 26.8733 2.25433 26.8733 1.81352 26.7418C1.43112 26.6276 1.04573 26.2899 0.873293 25.9177L0.735083 25.6194L0.734496 17.5213L0.733909 9.4232H12.9755H25.2171V12.5522ZM2.93534 11.2767L2.78885 11.4239V13.2197C2.78885 14.8999 2.79608 15.0243 2.90111 15.1546L3.01337 15.2939H4.87275C6.64558 15.2939 6.73599 15.2886 6.81543 15.1794C6.88325 15.0862 6.89875 14.7166 6.89875 13.1953C6.89875 11.529 6.88818 11.3169 6.80175 11.2447C6.72519 11.1808 6.32289 11.1602 4.8933 11.1466L3.08189 11.1294L2.93534 11.2767ZM8.34813 11.2542L8.19043 11.3788V13.224C8.19043 15.0244 8.19342 15.0719 8.3139 15.1815C8.4281 15.2855 8.56155 15.2953 10.09 15.3119C11.8315 15.3309 12.0653 15.3152 12.2104 15.1694C12.3395 15.0396 12.3457 11.4552 12.2171 11.2783C12.1382 11.1699 12.037 11.1629 10.3198 11.1467C8.54934 11.13 8.50201 11.1325 8.34813 11.2542ZM13.8268 11.1752C13.6018 11.2561 13.592 11.342 13.592 13.2359C13.592 15.2671 13.5845 15.225 13.9608 15.2949C14.0648 15.3141 14.8934 15.3219 15.8024 15.3119C17.3308 15.2953 17.4642 15.2855 17.5784 15.1815C17.6989 15.0719 17.7019 15.0248 17.701 13.2345C17.7005 12.2254 17.6807 11.3706 17.657 11.3349C17.5366 11.1537 17.3366 11.1343 15.6361 11.1389C14.6895 11.1415 13.8753 11.1578 13.8268 11.1752ZM19.2284 11.1752C19.0034 11.2561 18.9936 11.3423 18.9936 13.2289C18.9936 14.7212 19.0092 15.0863 19.0769 15.1794C19.1563 15.2886 19.2466 15.2939 21.0082 15.2939C22.7431 15.2939 22.8638 15.287 22.9798 15.1815C23.1005 15.0719 23.1035 15.0251 23.1035 13.224V11.3788L22.9488 11.2566C22.7999 11.1388 22.7291 11.1344 21.0553 11.1389C20.099 11.1415 19.2769 11.1578 19.2284 11.1752ZM6.13548 13.2289V14.5564H4.8438H3.55212V13.2289V11.9013H4.8438H6.13548V13.2289ZM11.5371 13.2289V14.5564H10.2454H8.95369V13.2289V11.9013H10.2454H11.5371V13.2289ZM16.9386 13.2289V14.5564H15.6469H14.3553V13.2289V11.9013H15.6469H16.9386V13.2289ZM22.3402 13.2289V14.5564H21.0485H19.7568V13.2289V11.9013H21.0485H22.3402V13.2289ZM2.93534 16.1739L2.78885 16.3211V18.1169C2.78885 19.797 2.79608 19.9215 2.90111 20.0518L3.01331 20.1911H4.87269C6.64552 20.1911 6.73594 20.1858 6.81543 20.0766C6.88325 19.9834 6.89875 19.614 6.89875 18.0925C6.89875 16.4262 6.88818 16.2141 6.80175 16.1419C6.72519 16.078 6.32289 16.0574 4.8933 16.0438L3.08189 16.0266L2.93534 16.1739ZM8.34813 16.1514L8.19043 16.276V18.1212C8.19043 19.9223 8.19336 19.9691 8.31408 20.0787C8.43009 20.1842 8.5508 20.1911 10.2857 20.1911C12.0473 20.1911 12.1376 20.1858 12.217 20.0766C12.3398 19.9078 12.3399 16.3445 12.2171 16.1755C12.1382 16.0671 12.037 16.0601 10.3198 16.0439C8.54934 16.0272 8.50201 16.0297 8.34813 16.1514ZM13.7975 16.102C13.7329 16.1388 13.6606 16.1977 13.6369 16.233C13.5798 16.3177 13.581 19.9349 13.6381 20.0252C13.7429 20.1909 14.0493 20.2207 15.6469 20.2207C17.2446 20.2207 17.5509 20.1909 17.6557 20.0252C17.7129 19.9349 17.714 16.318 17.657 16.2321C17.5369 16.0514 17.3348 16.0315 15.6361 16.0332C14.4642 16.0345 13.8775 16.0564 13.7975 16.102ZM26.5675 16.5962C27.8275 16.9694 28.8672 18.0564 29.1865 19.3345C29.3182 19.8616 29.2728 20.8746 29.0946 21.382C28.8284 22.1406 28.2541 22.8761 27.5733 23.3301C27.1158 23.6354 26.3799 23.8774 25.7896 23.917C24.0382 24.0344 22.3634 22.7678 21.955 21.0172C21.8171 20.4256 21.8628 19.5636 22.0625 18.993C22.5169 17.6945 23.7178 16.6918 25.0703 16.4818C25.3844 16.433 26.2362 16.4981 26.5675 16.5962ZM6.13548 18.1261V19.4536H4.8438H3.55212V18.1261V16.7985H4.8438H6.13548V18.1261ZM11.5371 18.1261V19.4536H10.2454H8.95369V18.1261V16.7985H10.2454H11.5371V18.1261ZM16.9386 18.1261V19.4536H15.6469H14.3553V18.1261V16.7985H15.6469H16.9386V18.1261ZM22.3402 16.9134C22.3402 16.9766 22.204 17.2089 22.0375 17.4297C21.6712 17.9155 21.3842 18.5006 21.2441 19.0471L21.1399 19.4536H20.4484H19.7568V18.1261V16.7985H21.0485C22.2893 16.7985 22.3402 16.8031 22.3402 16.9134ZM25.3094 17.3632C25.2317 17.4413 25.2171 17.6415 25.2171 18.6318V19.8076H24.5167C23.7302 19.8076 23.6319 19.8497 23.6319 20.1862C23.6319 20.5418 23.73 20.5747 24.7919 20.5747C25.8041 20.5747 25.8804 20.5539 25.9541 20.2586C25.9721 20.1867 25.9787 19.5226 25.9689 18.7829C25.9523 17.531 25.9432 17.4321 25.8371 17.3542C25.6861 17.2434 25.4242 17.2479 25.3094 17.3632ZM3.0422 20.9868C2.97169 21.0161 2.88579 21.0929 2.85138 21.1575C2.81117 21.2331 2.78885 21.9046 2.78885 23.0423C2.78885 24.6946 2.79619 24.8188 2.90111 24.949L3.01331 25.0884H4.87269C6.64552 25.0884 6.73594 25.083 6.81543 24.9738C6.93826 24.805 6.93832 21.2417 6.81549 21.0727C6.73658 20.9642 6.63882 20.9575 4.95136 20.9459C3.97186 20.9391 3.11277 20.9576 3.0422 20.9868ZM8.48399 20.9693C8.43555 20.9879 8.34971 21.0436 8.29317 21.093C8.19941 21.1751 8.19043 21.3445 8.19043 23.0281V24.8733L8.34813 24.998C8.50201 25.1196 8.54934 25.1222 10.3198 25.1055C12.037 25.0892 12.1382 25.0822 12.2171 24.9738C12.3398 24.8049 12.3398 21.2416 12.2171 21.0727C12.1381 20.9641 12.041 20.9576 10.3529 20.9469C9.37343 20.9406 8.53243 20.9507 8.48399 20.9693ZM13.8285 20.9943C13.7487 21.0264 13.6632 21.0844 13.6386 21.1234C13.5811 21.2142 13.5796 24.8309 13.6369 24.9172C13.7567 25.0976 13.9603 25.1179 15.6469 25.1179C17.3336 25.1179 17.5372 25.0976 17.657 24.9172C17.714 24.8313 17.7129 21.2144 17.6557 21.1242C17.6314 21.0856 17.5376 21.0259 17.4474 20.9914C17.2363 20.9107 14.0305 20.9134 13.8285 20.9943ZM6.13548 23.0233V24.3508H4.8438H3.55212V23.0233V21.6957H4.8438H6.13548V23.0233ZM11.5371 23.0233V24.3508H10.2454H8.95369V23.0233V21.6957H10.2454H11.5371V23.0233ZM16.9386 23.0233V24.3508H15.6469H14.3553V23.0233V21.6957H15.6469H16.9386V23.0233ZM21.5604 22.1835C21.6885 22.4518 21.9163 22.8231 22.0667 23.0087L22.3402 23.3461V23.8485V24.3508H21.0485H19.7568V23.0233V21.6957H20.5421H21.3275L21.5604 22.1835Z" fill="black"/>
</svg>
