<svg width="18" height="18" viewBox="0 0 18 18" fill="none" xmlns="http://www.w3.org/2000/svg">
<path fill-rule="evenodd" clip-rule="evenodd" d="M8.44084 1.00849C8.34772 1.01581 8.11917 1.04521 7.93294 1.07381C3.97281 1.6818 1.34605 5.39176 2.14244 9.25217C2.25272 9.78677 2.41606 10.2583 2.71579 10.9074C3.34389 12.2675 4.12663 13.4664 5.24628 14.7835C6.07738 15.761 8.1876 17.7436 8.59321 17.928C8.80395 18.0238 9.19395 18.024 9.40615 17.9285C9.70074 17.7959 10.9981 16.6448 11.891 15.7237C13.4173 14.1492 14.5074 12.6019 15.2905 10.8984C15.755 9.88794 15.9359 9.17748 15.9933 8.13808C16.0177 7.69637 15.9736 7.06064 15.8879 6.61746C15.335 3.7612 12.9757 1.51306 10.0661 1.07025C9.73124 1.01927 8.7683 0.982684 8.44084 1.00849ZM9.79741 1.90203C11.216 2.09129 12.4887 2.7367 13.4711 3.76512C14.3247 4.65869 14.8665 5.76121 15.0644 7.00736C15.1222 7.37132 15.1229 8.33483 15.0656 8.72007C14.9598 9.43093 14.7375 10.0691 14.2662 11.0148C13.4674 12.6175 12.2642 14.1906 10.6541 15.7375C9.95607 16.4081 9.08631 17.1506 8.99872 17.1506C8.82359 17.1506 6.81464 15.2784 6.06512 14.4166C4.90789 13.0862 4.0538 11.787 3.44611 10.4328C3.05134 9.55308 2.91099 8.95772 2.8816 8.03831C2.86166 7.41482 2.9071 6.96645 3.04501 6.42537C3.41246 4.9839 4.33758 3.68773 5.58634 2.86483C6.2977 2.39608 7.24335 2.03419 8.05145 1.92148C8.19112 1.90203 8.34349 1.88058 8.39005 1.87386C8.61725 1.8411 9.46852 1.85813 9.79741 1.90203ZM8.39591 4.43331C7.28249 4.61669 6.31629 5.30962 5.79116 6.30136C5.14744 7.51705 5.25404 8.91691 6.07565 10.0377C6.56472 10.7048 7.3606 11.2234 8.18689 11.4132C8.51641 11.4889 9.18183 11.5158 9.50743 11.4667C10.4876 11.3187 11.3828 10.7795 11.9418 10.0004C12.3264 9.46448 12.5174 8.96397 12.5934 8.29352C12.7784 6.65963 11.7056 5.05461 10.1 4.56321C9.49443 4.37787 8.97359 4.33816 8.39591 4.43331ZM9.73866 5.34247C10.6644 5.60457 11.3768 6.30871 11.6487 7.23021C11.713 7.44831 11.7249 7.56627 11.7234 7.9718C11.7217 8.42286 11.7147 8.47444 11.6139 8.76995C11.29 9.71996 10.4912 10.414 9.50743 10.6003C9.19629 10.6592 8.64464 10.6433 8.33926 10.5666C7.114 10.259 6.25721 9.19683 6.25416 7.98164C6.25314 7.56634 6.29919 7.30328 6.43233 6.96383C6.63065 6.45826 7.09416 5.91555 7.57016 5.63154C7.8086 5.48927 8.24432 5.32468 8.50297 5.27912C8.79153 5.22834 9.45573 5.26239 9.73866 5.34247Z" fill="#1B5027"/>
</svg>
