<svg width="30" height="30" viewBox="0 0 30 30" fill="none" xmlns="http://www.w3.org/2000/svg">
<path fill-rule="evenodd" clip-rule="evenodd" d="M26.744 0.0911906C26.5822 0.149101 26.358 0.260996 26.2459 0.339891C25.7393 0.696266 22.5647 3.27225 22.4197 3.44457C22.3306 3.55049 22.2264 3.75429 22.1881 3.89748C22.1259 4.13001 22.0826 4.17696 21.7821 4.33709C21.5971 4.43574 21.4098 4.5726 21.3659 4.6413C21.3221 4.70994 21.1605 5.08266 21.0067 5.46952C20.8531 5.85637 20.7202 6.18022 20.7115 6.18924C20.7028 6.19821 20.2214 5.97184 19.6416 5.68622C19.0148 5.37738 18.4493 5.13917 18.2466 5.09843C17.5395 4.95641 16.6501 5.05107 16.0918 5.32779C15.4143 5.66353 15.3266 5.75685 12.4599 9.19152L9.64697 12.5618L4.98146 13.8077C1.0037 14.87 0.294216 15.0753 0.168448 15.2011L0.0209364 15.3487L0.00522999 19.9201C-0.0084252 23.8975 0.00101036 24.5138 0.0777842 24.6622C0.148697 24.7994 1.05182 25.339 4.68779 27.4162C7.17479 28.8371 9.26515 29.9998 9.33307 30C9.40094 30.0002 13.9926 28.5837 19.5367 26.8521C28.8392 23.9467 29.6317 23.6893 29.8085 23.5155L30 23.3272L29.9843 18.7258L29.9686 14.1245L29.8298 13.9768C29.7534 13.8955 29.0626 13.4705 28.2946 13.0323L26.8982 12.2355L27.1213 11.917C27.2439 11.7419 27.3779 11.4787 27.4189 11.3321C27.5177 10.9792 27.4685 10.3456 27.3155 9.9997C27.061 9.42422 26.8658 9.29609 24.2545 7.98993C22.1511 6.93786 21.8494 6.7704 21.8806 6.67246C21.9001 6.6108 22.0154 6.31538 22.1367 6.01604C22.4137 5.33248 22.5582 5.21824 22.9666 5.35997C23.129 5.4163 23.3221 5.43845 23.4735 5.418C23.8509 5.36718 28.6345 3.98511 28.8973 3.851C29.2377 3.67739 29.6333 3.25425 29.8121 2.87267C29.9439 2.59144 29.9683 2.46026 29.9669 2.04058C29.9655 1.62765 29.9387 1.48521 29.8104 1.2085C29.6126 0.781784 29.2039 0.373477 28.7787 0.177764C28.4887 0.0442992 28.3524 0.0215568 27.7416 0.00502759C27.1779 -0.0102707 26.9799 0.00684463 26.744 0.0911906ZM28.2393 1.31459C28.3693 1.36658 28.5324 1.48896 28.6019 1.58644C28.8438 1.92634 28.7162 2.52884 28.3636 2.71119C28.2717 2.75873 27.2106 3.07929 26.0057 3.42347C24.8008 3.76771 23.782 4.06178 23.7417 4.07696C23.7014 4.0922 23.6684 4.07591 23.6684 4.04085C23.6684 3.94027 26.8934 1.38176 27.1243 1.29923C27.4151 1.19513 27.9596 1.20263 28.2393 1.31459ZM18.0482 6.32376C18.1577 6.3584 18.6892 6.60107 19.229 6.86307C20.2243 7.34611 20.3019 7.41088 20.1374 7.62189C20.0972 7.67353 18.7192 8.52373 17.0753 9.51115C15.4314 10.4986 14.0108 11.3883 13.9185 11.4883C13.7711 11.648 13.7544 11.7026 13.7809 11.9382C13.8196 12.2814 14.0232 12.4739 14.3476 12.4739C14.5396 12.4739 15.0548 12.1845 17.8168 10.525L21.0605 8.57607L21.207 8.27099C21.2876 8.10323 21.374 7.96473 21.3991 7.96326C21.4242 7.9618 22.4737 8.47625 23.7313 9.10648C26.1772 10.3322 26.2467 10.379 26.2467 10.8034C26.2467 11.0466 26.0507 11.3448 25.8226 11.4487C25.65 11.5274 8.80568 15.7563 8.66514 15.7563C8.57747 15.7563 15.8611 7.03616 16.191 6.74614C16.3458 6.61009 16.6081 6.44662 16.7739 6.38285C17.1124 6.25266 17.7322 6.22388 18.0482 6.32376ZM26.5987 13.5036C27.1951 13.8441 27.7036 14.1429 27.7288 14.1677C27.7682 14.2064 9.61596 19.9195 9.45726 19.9183C9.38195 19.9178 2.27398 15.8573 2.301 15.8303C2.33599 15.7952 8.16576 14.2488 8.18938 14.2682C8.20157 14.2783 7.89693 14.6634 7.51236 15.124C6.24342 16.6437 6.26247 16.6172 6.26247 16.8644C6.26247 17.1386 6.42786 17.3662 6.6883 17.4502C6.84812 17.5017 7.05342 17.467 7.99715 17.2289L9.11652 16.9465L10.0777 17.5237C11.1797 18.1853 11.3574 18.231 11.6587 17.9296C11.8287 17.7595 11.8545 17.6796 11.8306 17.3975C11.8096 17.1515 11.7272 17.0596 11.2984 16.8049C11.0716 16.6701 10.9072 16.5409 10.9331 16.5177C10.959 16.4946 11.4874 16.3503 12.1072 16.1972L13.2342 15.9188L14.038 16.3944C14.48 16.656 14.9039 16.87 14.9798 16.87C15.2071 16.87 15.4677 16.6988 15.5536 16.493C15.6792 16.1923 15.5747 15.9081 15.2556 15.6831C15.1131 15.5827 15.0031 15.494 15.0112 15.4859C15.0192 15.4778 15.5489 15.34 16.1884 15.1794L17.351 14.8877L17.9341 15.2399C18.5486 15.6112 18.788 15.6717 19.0622 15.5249C19.2786 15.4091 19.4003 15.1169 19.3318 14.878C19.3014 14.7719 19.2345 14.6386 19.183 14.5818C19.1316 14.525 19.1111 14.4663 19.1373 14.4515C19.1636 14.4366 19.7004 14.2976 20.3301 14.1425L21.4751 13.8606L21.8865 14.1051C22.4021 14.4114 22.6595 14.4298 22.9111 14.1783C23.0053 14.084 23.086 13.9587 23.0903 13.8998C23.0946 13.8409 23.1012 13.7154 23.1049 13.6208L23.1117 13.4489L24.1959 13.172C24.7922 13.0197 25.3329 12.8928 25.3973 12.8899C25.4618 12.887 26.0024 13.1632 26.5987 13.5036ZM28.7672 18.9415V22.6541L19.3898 25.5854L10.0124 28.5166L10.0275 24.7915L10.0426 21.0664L19.3609 18.1507C24.486 16.547 28.699 15.2335 28.7232 15.2318C28.7474 15.2301 28.7672 16.8995 28.7672 18.9415ZM5.06105 18.8769L8.69462 20.9568L8.70974 24.599C8.718 26.6022 8.70816 28.2412 8.68776 28.2412C8.66737 28.2412 6.97934 27.286 4.93651 26.1186L1.22236 23.996V20.3676C1.22236 16.9399 1.22804 16.7407 1.32492 16.7681C1.3813 16.7841 3.06259 17.733 5.06105 18.8769Z" fill="#353535"/>
</svg>
