<svg width="20" height="20" viewBox="0 0 20 20" fill="none" xmlns="http://www.w3.org/2000/svg">
<path fill-rule="evenodd" clip-rule="evenodd" d="M9.06411 0.0234702C7.11802 0.211733 5.18903 1.00295 3.67646 2.23335C3.23155 2.59528 2.52711 3.30524 2.17227 3.74944C1.27504 4.87252 0.539798 6.39166 0.234865 7.75228C0.0433717 8.60694 0 9.02241 0 10.0028C0 10.9832 0.0433717 11.3987 0.234865 12.2534C0.546453 13.6437 1.30088 15.1845 2.22793 16.3239C2.5899 16.7688 3.29993 17.4732 3.74418 17.828C4.86738 18.7251 6.38668 19.4603 7.74745 19.7652C8.60221 19.9566 9.01772 20 9.99824 20C10.9788 20 11.3943 19.9566 12.249 19.7652C13.2721 19.5359 14.6099 18.9643 15.489 18.3808C17.0137 17.3687 18.1847 16.037 18.9842 14.4061C19.4739 13.407 19.7521 12.5123 19.9273 11.3727C20.0242 10.7422 20.0242 9.26348 19.9273 8.63293C19.7521 7.49337 19.4739 6.59863 18.9842 5.59958C18.4616 4.53349 17.879 3.72243 17.038 2.89004C16.2123 2.0728 15.4559 1.53576 14.402 1.01841C13.4147 0.533777 12.5007 0.247977 11.4074 0.0819844C10.9158 0.00734452 9.57639 -0.0261202 9.06411 0.0234702ZM11.3879 1.34965C12.326 1.50633 13.0276 1.73224 13.8931 2.15629C16.1261 3.25029 17.8487 5.35688 18.4735 7.75761C18.6843 8.56741 18.7421 9.05067 18.7421 10.0028C18.7421 10.955 18.6843 11.4383 18.4735 12.2481C17.8487 14.6488 16.1261 16.7554 13.8931 17.8494C13.0265 18.274 12.3402 18.4948 11.3683 18.6617C10.6651 18.7824 9.33134 18.7824 8.6282 18.6617C7.65625 18.4948 6.97001 18.274 6.1034 17.8494C3.87038 16.7554 2.14776 14.6488 1.52298 12.2481C1.31223 11.4383 1.25441 10.955 1.25441 10.0028C1.25441 9.05067 1.31223 8.56741 1.52298 7.75761C1.73929 6.92643 2.19062 5.91482 2.66039 5.20818C4.15457 2.96057 6.46356 1.56222 9.15664 1.27395C9.66086 1.21998 10.8538 1.26045 11.3879 1.34965ZM9.74381 5.04599C9.59882 5.11311 9.46882 5.2512 9.4137 5.39664C9.38528 5.4716 9.37194 6.58572 9.37194 8.8799V12.2529L8.03125 10.9144C7.29385 10.1783 6.64096 9.5575 6.58037 9.53499C6.06261 9.3425 5.56673 9.86158 5.78637 10.3661C5.8571 10.5287 9.51133 14.1735 9.65828 14.2281C9.71887 14.2507 9.87189 14.2691 9.99824 14.2691C10.1246 14.2691 10.2776 14.2507 10.3382 14.2281C10.4627 14.1819 14.1218 10.55 14.2088 10.3864C14.2397 10.3282 14.265 10.2074 14.265 10.1177C14.265 9.67202 13.8027 9.37049 13.3927 9.54881C13.3231 9.5791 12.68 10.1922 11.9555 10.9189L10.6441 12.2343L10.6245 8.81215C10.6052 5.43226 10.604 5.3887 10.5243 5.28196C10.4799 5.22251 10.3975 5.13949 10.3413 5.0975C10.2115 5.00066 9.8998 4.97378 9.74381 5.04599Z" fill="currentColor"/>
</svg>
