<svg width="30" height="30" viewBox="0 0 30 30" fill="none" xmlns="http://www.w3.org/2000/svg">
<path fill-rule="evenodd" clip-rule="evenodd" d="M22.6517 1.06971C21.9513 1.22339 21.3241 1.56477 20.8067 2.07396C20.1319 2.73793 19.8443 3.29778 19.6119 4.3998L19.4853 5.00025L19.1753 5.10408C18.2257 5.4223 17.521 6.37583 17.521 7.34267C17.521 7.71976 17.6509 7.87768 18.0035 7.9291C18.1412 7.94917 19.1468 7.95743 20.2381 7.94737L22.2221 7.92916L22.3636 7.76594C22.5228 7.58225 22.5409 7.3753 22.4392 6.89956C22.2652 6.08662 21.6263 5.36559 20.8457 5.1014C20.5534 5.00246 20.5415 4.99019 20.5589 4.80592C20.6235 4.1206 21.0251 3.26392 21.5076 2.7826C21.9018 2.38928 22.3146 2.16324 22.8405 2.05267C24.5474 1.6939 26.2735 2.70617 26.8602 4.41009L26.9903 4.78817L27.0072 10.3285L27.024 15.8689H19.4928H11.9615L11.8688 15.599C11.5936 14.7976 10.9359 14.1909 10.1035 13.9703C9.94221 13.9276 9.74267 13.8923 9.65999 13.8919C9.56788 13.8915 9.44304 13.8206 9.33749 13.7088C8.60735 12.9355 7.43205 12.6972 6.47393 13.1282C6.07145 13.3092 5.43495 13.8706 5.35743 14.1129C5.32254 14.2219 5.30489 14.22 4.8392 14.0593C3.89651 13.7337 3.02253 13.9049 2.28952 14.5587C1.98824 14.8273 1.57186 15.5246 1.57186 15.7603C1.57186 15.8393 1.528 15.8696 1.41061 15.8714C0.964274 15.8785 0.424174 16.2157 0.197544 16.6288C-0.224286 17.3975 0.0505425 18.3038 0.821025 18.6847C1.07398 18.8097 1.20703 18.8354 1.60353 18.8354H2.08124L2.73832 21.4092C3.09975 22.8249 3.45093 24.1523 3.51877 24.3592C3.7488 25.0604 4.18382 25.6676 4.75518 26.0849C5.35855 26.5255 5.89137 26.7147 6.71486 26.781C6.98219 26.8025 7.20096 26.8301 7.20096 26.8422C7.20096 26.8543 7.05583 27.1513 6.87846 27.5021C6.50506 28.2407 6.47117 28.4745 6.71047 28.6612C6.88632 28.7985 7.01297 28.8113 7.22899 28.7136C7.34163 28.6627 7.49883 28.4122 7.84924 27.7248L8.31869 26.8041H15.2649H22.2112L22.6797 27.7323C22.9374 28.2427 23.1997 28.6877 23.2625 28.7211C23.4509 28.8211 23.5882 28.7912 23.7606 28.6126C24.0017 28.363 23.9765 28.1505 23.6232 27.4519C23.4577 27.1248 23.3379 26.8321 23.3569 26.8015C23.3759 26.771 23.4775 26.746 23.5827 26.746C24.1662 26.746 25.0749 26.2972 25.6491 25.7253C26.3151 25.0621 26.3819 24.8874 27.2112 21.6419L27.9282 18.8354H28.4008C28.7918 18.8354 28.926 18.8094 29.1782 18.6847C30.3663 18.0973 30.2387 16.4008 28.9728 15.9529C28.8502 15.9095 28.5858 15.8728 28.3853 15.8714L28.0208 15.8689L28.0016 10.2994C27.98 4.01229 28.011 4.44208 27.5056 3.42126C27.2712 2.94791 27.1516 2.78946 26.6716 2.3161C26.0418 1.69506 25.4944 1.36694 24.7332 1.15411C24.1404 0.988339 23.1969 0.950124 22.6517 1.06971ZM20.658 6.08273C20.9684 6.2346 21.1823 6.42428 21.3214 6.67079L21.4571 6.91125H20.0461C19.2238 6.91125 18.6351 6.88885 18.6351 6.85762C18.6351 6.73431 19.0396 6.29067 19.2646 6.16718C19.6978 5.92952 20.2737 5.89456 20.658 6.08273ZM17.6484 9.08167C17.4822 9.25721 17.4673 9.79973 17.6236 9.98941C17.8843 10.3058 18.4144 10.1443 18.4939 9.72417C18.5428 9.46527 18.432 9.08423 18.285 9.00617C18.0864 8.90071 17.7861 8.93637 17.6484 9.08167ZM19.6362 9.10034C19.4686 9.31166 19.4652 9.82876 19.6304 9.99261C19.8886 10.2487 20.3246 10.1849 20.4553 9.8718C20.5594 9.62238 20.4944 9.17933 20.3348 9.05113C20.133 8.88908 19.7842 8.91362 19.6362 9.10034ZM21.6522 9.08987C21.4596 9.28089 21.4453 9.7888 21.6272 9.98237C21.7838 10.1491 21.9991 10.1978 22.2054 10.1131C22.4118 10.0283 22.5051 9.83574 22.5051 9.49424C22.5051 9.15519 22.3155 8.94707 22.0067 8.94707C21.8613 8.94707 21.7515 8.99128 21.6522 9.08987ZM17.6755 11.0453C17.5303 11.1586 17.521 11.1955 17.521 11.6587C17.521 12.1044 17.5347 12.1652 17.6649 12.2943C17.8487 12.4767 18.109 12.48 18.3168 12.3027C18.5846 12.0742 18.5917 11.2844 18.3281 11.0408C18.1651 10.8901 17.8717 10.8922 17.6755 11.0453ZM19.6586 11.0675C19.5294 11.1955 19.5146 11.2588 19.5146 11.6809C19.5146 12.103 19.5294 12.1662 19.6586 12.2943C19.8603 12.4944 20.1213 12.484 20.34 12.267C20.495 12.1133 20.5114 12.06 20.5114 11.7115C20.5114 11.3078 20.4107 11.024 20.2449 10.9608C20.0409 10.8832 19.8002 10.927 19.6586 11.0675ZM21.6522 11.0675C21.5231 11.1955 21.5082 11.2588 21.5082 11.6809C21.5082 12.103 21.5231 12.1662 21.6522 12.2943C21.7481 12.3894 21.8606 12.4364 21.9894 12.4352C22.3632 12.4316 22.5051 12.2084 22.5051 11.6239C22.5051 11.2623 22.4869 11.1923 22.3611 11.0675C22.2618 10.9689 22.152 10.9247 22.0067 10.9247C21.8613 10.9247 21.7515 10.9689 21.6522 11.0675ZM17.7848 13.1998C17.578 13.3163 17.521 13.4408 17.521 13.7759C17.521 14.0433 17.5459 14.1269 17.6567 14.2301C17.8027 14.3662 18.0963 14.3977 18.285 14.2974C18.5347 14.1649 18.5789 13.4933 18.3516 13.2891C18.2107 13.1627 17.9295 13.1184 17.7848 13.1998ZM19.7785 13.1998C19.5717 13.3163 19.5146 13.4408 19.5146 13.7759C19.5146 14.0433 19.5396 14.1269 19.6503 14.2301C19.8222 14.3903 20.1542 14.3976 20.3437 14.2453C20.4616 14.1506 20.4821 14.0819 20.4821 13.7816C20.4821 13.5064 20.4563 13.4035 20.3647 13.3126C20.2182 13.1674 19.9334 13.1126 19.7785 13.1998ZM21.7721 13.2053C21.5719 13.3192 21.5121 13.4442 21.5101 13.7525C21.5075 14.1709 21.6601 14.3565 22.0067 14.3565C22.2127 14.3565 22.2855 14.3269 22.3835 14.2033C22.5198 14.0315 22.5475 13.64 22.44 13.4059C22.3309 13.1684 22.0077 13.0713 21.7721 13.2053ZM8.23437 14.0545C8.36548 14.1209 8.55781 14.2749 8.66183 14.3967C9.08383 14.8912 9.0663 14.88 9.42064 14.8804C9.60271 14.8806 9.84992 14.9078 9.97006 14.9409C10.2764 15.0253 10.6651 15.3357 10.8262 15.6244L10.9625 15.8689H6.7949C3.49913 15.8689 2.62761 15.8537 2.62879 15.7962C2.63213 15.6277 3.03895 15.1807 3.30539 15.0527C3.89475 14.7698 4.49524 14.8619 5.06583 15.3229C5.56178 15.7236 5.87982 15.6516 6.05907 15.0981C6.24366 14.5282 6.58141 14.1511 7.06891 13.9706C7.36491 13.861 7.9328 13.9019 8.23437 14.0545ZM28.7431 16.9234C29.0339 17.0548 29.0836 17.4864 28.8363 17.7316C28.7217 17.8454 28.5834 17.8465 14.9996 17.8465C1.41577 17.8465 1.27751 17.8454 1.16288 17.7316C0.922877 17.4936 0.963922 17.0587 1.23887 16.9269C1.42674 16.8368 28.5439 16.8334 28.7431 16.9234ZM26.8126 19.0244C26.4246 20.818 25.581 24.159 25.4525 24.4115C25.1119 25.0805 24.3444 25.6351 23.5898 25.7576C23.1016 25.8368 7.0033 25.8345 6.51034 25.7552C5.70473 25.6255 4.95753 25.069 4.62313 24.3496C4.49319 24.07 3.15505 19.0763 3.15505 18.871C3.15505 18.8513 8.48721 18.8354 15.0042 18.8354H26.8535L26.8126 19.0244Z" fill="#353535"/>
</svg>
