<svg width="14" height="21" viewBox="0 0 14 21" fill="none" xmlns="http://www.w3.org/2000/svg">
<path fill-rule="evenodd" clip-rule="evenodd" d="M6.22333 0.542933C5.43736 0.632232 4.68237 0.856611 3.94645 1.21966C2.48403 1.94108 1.39506 3.03809 0.695538 4.49445C-0.573947 7.13738 -0.122153 9.97462 2.18679 13.8593C2.8437 14.9645 3.4557 15.8794 4.9958 18.0586C5.51205 18.789 6.08493 19.6066 6.26883 19.8753C6.61912 20.3871 6.7516 20.5 7.00175 20.5C7.25189 20.5 7.38438 20.3871 7.73467 19.8753C7.91857 19.6066 8.49164 18.789 9.00812 18.0586C10.5173 15.924 11.1826 14.9284 11.8241 13.845C13.8985 10.341 14.4462 7.78888 13.6524 5.32485C13.5047 4.86637 13.1028 4.04921 12.8067 3.60517C11.3741 1.45697 8.78378 0.252108 6.22333 0.542933ZM8.14992 1.78963C10.8 2.34796 12.7018 4.57851 12.8286 7.27711C12.8896 8.57632 12.4999 10.014 11.5949 11.828C10.8827 13.2555 10.0957 14.4902 8.01369 17.4465C7.46783 18.2216 7.01245 18.8561 7.00175 18.8565C6.99104 18.857 6.8828 18.7128 6.76122 18.5361C6.63963 18.3594 6.16067 17.6787 5.69688 17.0234C4.77881 15.7263 3.86542 14.371 3.43273 13.6639C1.81599 11.0219 1.09483 8.98191 1.17493 7.27711C1.2753 5.14059 2.47707 3.28236 4.39404 2.29957C4.97755 2.00042 5.60301 1.80733 6.30117 1.71088C6.71377 1.65389 7.70629 1.69616 8.14992 1.78963ZM6.30117 4.08827C4.98288 4.37843 3.96276 5.35028 3.61002 6.6521C3.54128 6.90582 3.52537 7.07117 3.52537 7.53102C3.52537 7.99088 3.54128 8.15623 3.61002 8.40995C3.95315 9.67633 4.93318 10.6362 6.21052 10.9569C6.61195 11.0577 7.46713 11.0464 7.87747 10.9348C9.11041 10.5996 10.0577 9.64895 10.3935 8.40995C10.4622 8.15623 10.4781 7.99088 10.4781 7.53102C10.4781 7.07117 10.4622 6.90582 10.3935 6.6521C10.057 5.41052 9.09889 4.45019 7.87747 4.13038C7.42591 4.01213 6.73144 3.99358 6.30117 4.08827ZM7.56236 5.26438C8.00202 5.37728 8.30062 5.55068 8.63775 5.88904C8.97488 6.22741 9.14765 6.5271 9.26014 6.96836C9.40088 7.52079 9.32724 8.12236 9.0558 8.63706C8.88723 8.95663 8.41578 9.43067 8.10376 9.59426C7.58626 9.86556 6.98988 9.93849 6.44113 9.79766C6.00794 9.68645 5.70401 9.50961 5.36539 9.17168C5.02803 8.83503 4.85658 8.53784 4.74336 8.09369C4.60305 7.54294 4.67571 6.94437 4.94602 6.42499C5.10918 6.11155 5.58129 5.63865 5.90036 5.46915C6.41311 5.19676 7.01159 5.12301 7.56236 5.26438Z" fill="#1B5027"/>
</svg>
