<svg width="189" height="63" viewBox="0 0 189 63" fill="none" xmlns="http://www.w3.org/2000/svg">
<path d="M55.5695 39.389C51.8519 39.389 48.4953 38.5437 45.4995 36.853C42.5399 35.1623 40.2118 32.8242 38.5155 29.8385C36.8552 26.8169 36.025 23.4356 36.025 19.6945C36.025 15.9534 36.8552 12.5901 38.5155 9.60444C40.2118 6.58282 42.5399 4.22667 45.4995 2.536C48.4953 0.845334 51.8519 0 55.5695 0C59.2872 0 62.6258 0.845334 65.5854 2.536C68.5812 4.22667 70.9092 6.58282 72.5695 9.60444C74.2659 12.5901 75.1141 15.9534 75.1141 19.6945C75.1141 23.4356 74.2659 26.8169 72.5695 29.8385C70.9092 32.8242 68.5812 35.1623 65.5854 36.853C62.6258 38.5437 59.2872 39.389 55.5695 39.389ZM55.5695 36.907C58.3487 36.907 60.8392 36.1695 63.0409 34.6947C65.2786 33.2199 67.0292 31.1695 68.2924 28.5435C69.5557 25.9176 70.1873 22.9679 70.1873 19.6945C70.1873 16.4211 69.5557 13.4714 68.2924 10.8455C67.0292 8.21953 65.2786 6.16915 63.0409 4.69431C60.8392 3.21947 58.3487 2.48205 55.5695 2.48205C52.7904 2.48205 50.2819 3.21947 48.0441 4.69431C45.8424 6.16915 44.1099 8.21953 42.8467 10.8455C41.5834 13.4714 40.9518 16.4211 40.9518 19.6945C40.9518 22.9679 41.5834 25.9176 42.8467 28.5435C44.1099 31.1695 45.8424 33.2199 48.0441 34.6947C50.2819 36.1695 52.7904 36.907 55.5695 36.907Z" fill="currentColor"/>
<path d="M84.822 38.0401C85.0025 35.6659 85.0927 32.7882 85.0927 29.4069V2.85975C84.6235 2.85975 83.8475 2.94968 82.7647 3.12954C81.6819 3.3094 80.7254 3.48926 79.8953 3.66911L79.6787 3.34537L80.924 0.809362H94.0258C97.2742 0.809362 100.071 1.25901 102.418 2.1583C104.764 3.02162 106.55 4.28063 107.777 5.93533C109.005 7.59003 109.618 9.55048 109.618 11.8167C109.618 14.0829 109.005 16.0614 107.777 17.752C106.55 19.4067 104.764 20.6837 102.418 21.583C100.071 22.4463 97.2742 22.878 94.0258 22.878H89.7488V38.5796H84.822V38.0401ZM94.1882 20.6118C97.6532 20.6118 100.324 19.8384 102.201 18.2916C104.114 16.7448 105.07 14.6225 105.07 11.9246C105.07 9.22674 104.114 7.10441 102.201 5.55762C100.324 3.97487 97.6532 3.18349 94.1882 3.18349H89.7488V20.6118H94.1882Z" fill="currentColor"/>
<path d="M110.491 46.6193L112.331 34.9105L112.602 34.8026C113.216 35.0904 113.703 35.2882 114.064 35.3961C114.389 35.4681 114.732 35.558 115.093 35.6659C115.49 35.7379 115.905 35.8098 116.338 35.8818C117.745 31.781 118.919 27.1766 119.857 22.0686C120.795 16.9247 121.265 12.6081 121.265 9.11882C121.265 8.65119 121.247 8.16557 121.21 7.66197C121.174 7.1224 121.12 6.56483 121.048 5.98929L120.669 2.85975C120.092 2.85975 118.792 3.07558 116.771 3.50724C116.663 3.54321 116.536 3.57918 116.392 3.61516C116.284 3.61516 116.175 3.63314 116.067 3.66911L115.851 3.34537L117.042 0.809362H144.112V1.34894C144.112 2.10434 144.094 2.84176 144.057 3.5612C144.057 4.28063 144.039 5.00007 144.003 5.7195C143.967 6.43893 143.931 7.15837 143.895 7.8778C143.895 8.56126 143.895 9.26271 143.895 9.98214V28.5975C143.895 29.8565 143.895 31.1335 143.895 32.4285C143.931 33.6875 143.967 34.9285 144.003 36.1515H146.927L146.981 34.4249V34.3709L148.389 34.317L149.959 46.6193L147.631 46.9431L147.035 44.0833C146.855 43.0761 146.44 42.1408 145.79 41.2775C145.14 40.4502 144.346 39.7847 143.408 39.2811C142.469 38.8135 141.513 38.5796 140.538 38.5796H120.723C119.424 38.5796 118.287 38.7955 117.312 39.2271C116.338 39.6588 115.526 40.2703 114.876 41.0617C114.262 41.889 113.811 42.8423 113.523 43.9214L112.656 47.051L110.491 46.6193ZM139.185 36.0976V3.29141H125.109L124.946 4.91014C124.296 11.1332 123.502 16.7088 122.564 21.637C121.626 26.5291 120.416 31.2954 118.937 35.9357C119.586 36.0077 120.182 36.0616 120.723 36.0976C121.301 36.0976 121.95 36.0976 122.672 36.0976H139.185Z" fill="currentColor"/>
<path d="M152.412 37.9861C152.772 37.3026 153.151 36.5652 153.548 35.7738C153.946 34.9825 154.324 34.1911 154.685 33.3997C155.552 31.709 156.4 29.9284 157.23 28.0579C158.096 26.1874 158.89 24.3888 159.612 22.6622L167.192 4.69431C166.542 4.1907 165.838 3.79501 165.08 3.50724C164.358 3.1835 163.528 2.98565 162.59 2.91371C162.445 2.91371 162.301 2.91371 162.157 2.91371C162.048 2.87773 161.922 2.85975 161.778 2.85975L162.536 0.755406C163.799 0.791377 165.116 0.809362 166.488 0.809362C167.896 0.809362 169.213 0.809362 170.44 0.809362H172.335C173.707 4.33459 175.042 7.55405 176.341 10.4678L184.625 29.0292C184.877 29.6047 185.329 30.6119 185.978 32.0508C186.448 33.022 186.917 34.0112 187.386 35.0184C187.891 35.9897 188.397 36.9969 188.902 38.0401V38.5796H178.669L177.424 35.9897L177.587 35.6659L178.453 35.8818C179.211 36.0616 180.005 36.2235 180.835 36.3674C181.701 36.4753 182.351 36.5293 182.784 36.5293L178.453 26.5471H160.695C160.478 27.0507 160.262 27.5543 160.045 28.0579C159.865 28.5256 159.684 28.9932 159.504 29.4608C158.241 32.6263 157.392 34.9825 156.959 36.5293C157.356 36.5293 157.97 36.4753 158.8 36.3674C159.63 36.2235 160.442 36.0616 161.236 35.8818C161.381 35.8458 161.525 35.8098 161.669 35.7738C161.85 35.7379 162.012 35.7019 162.157 35.6659L162.373 35.9897L161.128 38.5796H152.412V37.9861ZM177.478 24.173L171.252 10.0361C171.252 10.0001 171.234 9.96416 171.198 9.92819C171.198 9.85624 171.18 9.80228 171.144 9.76631C170.783 8.86702 170.44 8.11162 170.115 7.5001C169.79 6.85261 169.448 6.27706 169.087 5.77346L161.669 24.173H177.478Z" fill="currentColor"/>
<path fill-rule="evenodd" clip-rule="evenodd" d="M13.9267 18.7137L6.13831 6.2194C5.25826 4.66455 4.46622 3.57245 3.76219 2.94311C3.05815 2.27674 2.28811 1.8325 1.45207 1.61038C0.968048 1.49932 0.59403 1.38826 0.330016 1.2772C0.110005 1.16614 0 0.962525 0 0.666364C0 0.222121 0.528026 0 1.58408 0H7.19436L16.4348 15.604L26.4013 0H28.9094C29.5255 0 29.8995 0.129571 30.0315 0.388712C30.2075 0.647853 30.1855 0.962526 29.9655 1.33273L18.6789 18.1029L31.6816 38.7046H26.7313L16.1048 21.5458L5.54428 38.7046H1.12206L13.9267 18.7137ZM13.699 29.4995H15.9342V32.841H13.699V29.4995ZM15.9342 33.2859H13.699V36.6274H15.9342V33.2859ZM16.3811 29.4995H18.6163V32.841H16.3811V29.4995ZM18.6163 33.2859H16.3811V36.6274H18.6163V33.2859Z" fill="currentColor"/>

<path d="M5.34186 63C4.70151 63 4.10502 62.8951 3.55239 62.6853C2.99976 62.4668 2.51292 62.1608 2.09187 61.7674C1.67959 61.3652 1.35942 60.8888 1.13135 60.338C0.90328 59.7872 0.789246 59.1796 0.789246 58.5152C0.789246 57.7984 0.920824 57.1558 1.18398 56.5875C1.44714 56.0105 1.80679 55.521 2.26292 55.1188C2.71906 54.7167 3.24538 54.4107 3.84187 54.2009C4.43835 53.9911 5.06993 53.8862 5.7366 53.8862C6.06116 53.8862 6.3901 53.908 6.72343 53.9517C7.06554 53.9954 7.38133 54.0566 7.6708 54.1353C7.96904 54.2053 8.21466 54.2839 8.40764 54.3714V56.4433H8.10501C8.06992 55.9275 7.92518 55.5253 7.6708 55.2368C7.41641 54.9396 7.10063 54.7298 6.72343 54.6074C6.35501 54.4763 5.96905 54.4107 5.56554 54.4107C4.94274 54.4107 4.36379 54.5506 3.82871 54.8303C3.29362 55.1101 2.8638 55.5385 2.53924 56.1155C2.22345 56.6837 2.06556 57.4137 2.06556 58.3054C2.06556 59.1534 2.21468 59.8921 2.51292 60.5216C2.81117 61.1423 3.2059 61.6231 3.69713 61.9641C4.19713 62.305 4.74976 62.4755 5.35502 62.4755C5.90765 62.4755 6.39449 62.3487 6.81554 62.0952C7.24536 61.8329 7.59624 61.5051 7.86817 61.1117C8.1401 60.7183 8.31992 60.3205 8.40764 59.9184H8.71027L8.63132 61.4527C8.29799 61.8635 7.86817 62.2264 7.34185 62.5411C6.81554 62.8471 6.14887 63 5.34186 63Z"/>
<path d="M9.80371 54.0829H16.8958V56.1286H16.5932C16.5756 55.8226 16.5274 55.5516 16.4484 55.3155C16.3695 55.0795 16.2203 54.8959 16.001 54.7648C15.7818 54.6249 15.4484 54.5549 15.0011 54.5549H13.909V61.492C13.909 61.7892 13.9397 62.0078 14.0011 62.1477C14.0712 62.2875 14.194 62.3793 14.3695 62.4231C14.5537 62.4668 14.8168 62.493 15.1589 62.5017V62.8033H11.8695V62.5017C12.1063 62.493 12.2905 62.4668 12.4221 62.4231C12.5625 62.3793 12.659 62.2875 12.7116 62.1477C12.7642 62.0078 12.7905 61.7892 12.7905 61.492V54.5549H11.6853C11.2467 54.5549 10.9177 54.6249 10.6984 54.7648C10.4791 54.8959 10.33 55.0795 10.2511 55.3155C10.1721 55.5516 10.1239 55.8226 10.1063 56.1286H9.80371V54.0829Z"/>
<path d="M18.3049 62.8033V62.5017C18.5417 62.493 18.726 62.4668 18.8575 62.4231C18.9979 62.3793 19.0944 62.2875 19.147 62.1477C19.1996 62.0078 19.226 61.7892 19.226 61.492V55.3942C19.226 55.0882 19.1909 54.8697 19.1207 54.7385C19.0593 54.5987 18.9409 54.5069 18.7654 54.4632C18.59 54.4194 18.3268 54.3932 17.976 54.3845V54.0829H19.226C19.8224 54.0829 20.3049 54.0741 20.6733 54.0566C21.0505 54.0304 21.3531 54.0173 21.5812 54.0173C22.4935 54.0173 23.2259 54.1965 23.7786 54.5549C24.3312 54.9046 24.6075 55.4073 24.6075 56.063C24.6075 56.3777 24.533 56.6881 24.3838 56.9941C24.2435 57.3 24.0154 57.5754 23.6996 57.8202C23.3838 58.0563 22.9716 58.2355 22.4628 58.3579C21.954 58.4715 21.3356 58.4934 20.6075 58.4234V58.03C21.3093 58.0912 21.8575 58.0388 22.2523 57.8727C22.6558 57.6978 22.9409 57.4574 23.1075 57.1514C23.2742 56.8367 23.3575 56.5001 23.3575 56.1417C23.3575 55.6958 23.2566 55.3549 23.0549 55.1188C22.8619 54.874 22.6031 54.7079 22.2786 54.6205C21.9628 54.5331 21.6207 54.4894 21.2523 54.4894C20.954 54.4894 20.726 54.5418 20.5681 54.6467C20.4189 54.7516 20.3444 55.0008 20.3444 55.3942V61.492C20.3444 61.7892 20.3751 62.0078 20.4365 62.1477C20.5067 62.2875 20.6382 62.3793 20.8312 62.4231C21.033 62.4668 21.3268 62.493 21.7128 62.5017V62.8033H18.3049Z"/>
<path d="M30.2664 53.8862C30.8629 53.8862 31.4243 53.9911 31.9506 54.2009C32.4769 54.4107 32.9462 54.7167 33.3585 55.1188C33.7708 55.5122 34.091 55.9887 34.319 56.5482C34.5559 57.1077 34.6743 57.7328 34.6743 58.4234C34.6743 59.1141 34.5559 59.7392 34.319 60.2987C34.091 60.8582 33.7708 61.339 33.3585 61.7412C32.955 62.1433 32.4857 62.4537 31.9506 62.6722C31.4155 62.8908 30.8497 63 30.2533 63C29.6655 63 29.1041 62.8951 28.5691 62.6853C28.0427 62.4755 27.5734 62.1739 27.1612 61.7805C26.7577 61.3783 26.4375 60.8975 26.2006 60.338C25.9726 59.7785 25.8585 59.1534 25.8585 58.4628C25.8585 57.7721 25.9726 57.1471 26.2006 56.5875C26.4375 56.028 26.7577 55.5472 27.1612 55.1451C27.5734 54.7429 28.0427 54.4326 28.5691 54.214C29.1041 53.9954 29.6699 53.8862 30.2664 53.8862ZM30.4506 62.4755C30.9769 62.4755 31.4594 62.3313 31.898 62.0428C32.3454 61.7543 32.705 61.3303 32.9769 60.7708C33.2489 60.2025 33.3848 59.5031 33.3848 58.6726C33.3848 57.7634 33.2269 56.9941 32.9111 56.3646C32.5954 55.7264 32.1875 55.2412 31.6875 54.909C31.1875 54.5768 30.6524 54.4107 30.0822 54.4107C29.5559 54.4107 29.0691 54.5549 28.6217 54.8434C28.1743 55.1319 27.8147 55.5603 27.5427 56.1286C27.2708 56.6881 27.1348 57.3831 27.1348 58.2136C27.1348 59.1228 27.2927 59.8965 27.6085 60.5347C27.9243 61.1642 28.3366 61.645 28.8454 61.9772C29.3541 62.3094 29.8892 62.4755 30.4506 62.4755Z"/>
<path d="M36.3327 62.8033V62.5017C36.5695 62.493 36.7537 62.4668 36.8853 62.4231C37.0257 62.3793 37.1222 62.2875 37.1748 62.1477C37.2274 62.0078 37.2537 61.7892 37.2537 61.492V55.3942C37.2537 55.0882 37.2187 54.8697 37.1485 54.7385C37.0871 54.5987 36.9687 54.5069 36.7932 54.4632C36.6178 54.4194 36.3546 54.3932 36.0038 54.3845V54.0829H39.2932V54.3845C39.0564 54.3932 38.8722 54.4194 38.7406 54.4632C38.609 54.5069 38.5125 54.5987 38.4511 54.7385C38.3985 54.8697 38.3722 55.0882 38.3722 55.3942V61.4133L43.3721 54.0829H45.1485V54.3845C44.9116 54.3932 44.7274 54.4194 44.5958 54.4632C44.4642 54.5069 44.3678 54.5987 44.3064 54.7385C44.2537 54.8697 44.2274 55.0882 44.2274 55.3942V61.492C44.2274 61.7892 44.2581 62.0078 44.3195 62.1477C44.3809 62.2875 44.4993 62.3793 44.6748 62.4231C44.859 62.4668 45.1221 62.493 45.4642 62.5017V62.8033H42.1879V62.5017C42.4248 62.493 42.609 62.4668 42.7406 62.4231C42.8809 62.3793 42.9774 62.2875 43.03 62.1477C43.0827 62.0078 43.109 61.7892 43.109 61.492V55.486L38.109 62.8033H36.3327Z"/>
<path d="M46.5403 54.0829H53.6324V56.1286H53.3298C53.3122 55.8226 53.264 55.5516 53.185 55.3155C53.1061 55.0795 52.957 54.8959 52.7377 54.7648C52.5184 54.6249 52.185 54.5549 51.7377 54.5549H50.6456V61.492C50.6456 61.7892 50.6763 62.0078 50.7377 62.1477C50.8078 62.2875 50.9306 62.3793 51.1061 62.4231C51.2903 62.4668 51.5534 62.493 51.8955 62.5017V62.8033H48.6061V62.5017C48.8429 62.493 49.0271 62.4668 49.1587 62.4231C49.2991 62.3793 49.3956 62.2875 49.4482 62.1477C49.5008 62.0078 49.5271 61.7892 49.5271 61.492V54.5549H48.4219C47.9833 54.5549 47.6543 54.6249 47.435 54.7648C47.2157 54.8959 47.0666 55.0795 46.9877 55.3155C46.9087 55.5516 46.8605 55.8226 46.8429 56.1286H46.5403V54.0829Z"/>
<path d="M55.0415 62.8033V62.5017C55.2784 62.493 55.4626 62.4668 55.5941 62.4231C55.7257 62.3793 55.8178 62.2875 55.8705 62.1477C55.9319 62.0078 55.9626 61.7892 55.9626 61.492V55.3942C55.9626 55.0882 55.9275 54.8697 55.8573 54.7385C55.7959 54.5987 55.6775 54.5069 55.502 54.4632C55.3266 54.4194 55.0634 54.3932 54.7126 54.3845V54.0829H60.9757V55.9188H60.6731C60.6643 55.639 60.6204 55.3986 60.5415 55.1975C60.4625 54.9877 60.3178 54.8303 60.1073 54.7254C59.8968 54.6118 59.5854 54.5549 59.1731 54.5549H57.6599C57.4757 54.5549 57.331 54.5987 57.2257 54.6861C57.1292 54.7735 57.081 55.0095 57.081 55.3942V57.8596C57.1511 57.8071 57.2345 57.7721 57.331 57.7546C57.4362 57.7372 57.559 57.7284 57.6994 57.7284H59.5546C60.0722 57.7284 60.3441 57.4399 60.3704 56.8629H60.6731V59.0922H60.3704C60.3617 58.7338 60.3003 58.4977 60.1862 58.3841C60.0722 58.2617 59.8617 58.2005 59.5546 58.2005H57.7257C57.4889 58.2005 57.3222 58.2398 57.2257 58.3185C57.1292 58.3972 57.081 58.5502 57.081 58.7775V61.492C57.081 61.8679 57.1468 62.104 57.2783 62.2001C57.4187 62.2875 57.6862 62.3313 58.081 62.3313H59.9099C60.3397 62.3313 60.6775 62.2613 60.9231 62.1214C61.1687 61.9728 61.3485 61.7805 61.4625 61.5444C61.5766 61.2997 61.6467 61.0374 61.6731 60.7576H61.9757L61.8704 62.8033H55.0415Z"/>
<path d="M64.159 61.492C64.0449 61.8242 64.0449 62.0734 64.159 62.2395C64.2818 62.3968 64.6239 62.4842 65.1853 62.5017V62.8033H62.4616V62.5017C62.7423 62.4842 62.966 62.3968 63.1327 62.2395C63.2993 62.0734 63.4397 61.8242 63.5537 61.492L65.6853 55.1188C65.7642 54.8915 65.8432 54.6686 65.9221 54.45C66.0098 54.2315 66.0844 54.0086 66.1458 53.7812H66.7905C66.8519 54.0086 66.9221 54.2315 67.0011 54.45C67.0888 54.6599 67.1677 54.8828 67.2379 55.1188L69.1853 61.492C69.2818 61.798 69.3782 62.0209 69.4747 62.1608C69.5712 62.3007 69.6896 62.3881 69.83 62.4231C69.9703 62.458 70.1546 62.4842 70.3826 62.5017V62.8033H67.2379V62.5017C67.5361 62.4842 67.7554 62.4537 67.8958 62.4099C68.0449 62.3662 68.1282 62.2744 68.1458 62.1346C68.1633 61.9947 68.1195 61.7805 68.0142 61.492L66.1721 55.4336H66.1458L64.159 61.492Z"/>
<path d="M73.3098 57.5579H74.3625C75.5554 57.5579 76.4809 57.759 77.1388 58.1612C77.8054 58.5546 78.1388 59.149 78.1388 59.9446C78.1388 60.4691 78.0116 60.95 77.7572 61.3871C77.5116 61.8155 77.1344 62.1608 76.6256 62.4231C76.1256 62.6766 75.4853 62.8033 74.7046 62.8033H71.2704V62.5017C71.5072 62.493 71.6914 62.4668 71.823 62.4231C71.9633 62.3793 72.0598 62.2875 72.1125 62.1477C72.1651 62.0078 72.1914 61.7892 72.1914 61.492V55.3942C72.1914 55.0882 72.1563 54.8697 72.0862 54.7385C72.0247 54.5987 71.9063 54.5069 71.7309 54.4632C71.5555 54.4194 71.2923 54.3932 70.9414 54.3845V54.0829H74.2309V54.3845C73.994 54.3932 73.8098 54.4194 73.6783 54.4632C73.5467 54.5069 73.4502 54.5987 73.3888 54.7385C73.3362 54.8697 73.3098 55.0882 73.3098 55.3942V57.5579ZM74.5993 62.3313C75.1783 62.3313 75.6388 62.222 75.9809 62.0034C76.323 61.7761 76.5642 61.492 76.7046 61.151C76.8537 60.8013 76.9282 60.4385 76.9282 60.0626C76.9282 59.5381 76.8011 59.1272 76.5467 58.83C76.3011 58.5327 75.9765 58.3229 75.573 58.2005C75.1783 58.0781 74.7484 58.0169 74.2835 58.0169H73.3098V61.492C73.3098 61.8679 73.4019 62.104 73.5862 62.2001C73.7791 62.2875 74.1169 62.3313 74.5993 62.3313Z"/>
<path d="M79.4683 62.8033V62.5017C79.7052 62.493 79.8894 62.4668 80.021 62.4231C80.1613 62.3793 80.2578 62.2875 80.3104 62.1477C80.3631 62.0078 80.3894 61.7892 80.3894 61.492V55.3942C80.3894 55.0882 80.3543 54.8697 80.2841 54.7385C80.2227 54.5987 80.1043 54.5069 79.9288 54.4632C79.7534 54.4194 79.4902 54.3932 79.1394 54.3845V54.0829H82.4288V54.3845C82.192 54.3932 82.0078 54.4194 81.8762 54.4632C81.7446 54.5069 81.6481 54.5987 81.5867 54.7385C81.5341 54.8697 81.5078 55.0882 81.5078 55.3942V57.6891C81.578 57.6366 81.6613 57.6017 81.7578 57.5842C81.863 57.5667 81.9859 57.5579 82.1262 57.5579H85.5999C85.8367 57.5579 86.0034 57.5186 86.0999 57.4399C86.1964 57.3612 86.2446 57.2039 86.2446 56.9678V55.3942C86.2446 55.0882 86.2095 54.8697 86.1393 54.7385C86.0779 54.5987 85.9595 54.5069 85.7841 54.4632C85.6087 54.4194 85.3455 54.3932 84.9946 54.3845V54.0829H88.2841V54.3845C88.0472 54.3932 87.863 54.4194 87.7314 54.4632C87.5999 54.5069 87.5034 54.5987 87.442 54.7385C87.3893 54.8697 87.363 55.0882 87.363 55.3942V61.492C87.363 61.7892 87.3937 62.0078 87.4551 62.1477C87.5165 62.2875 87.635 62.3793 87.8104 62.4231C87.9946 62.4668 88.2578 62.493 88.5999 62.5017V62.8033H85.3236V62.5017C85.5604 62.493 85.7446 62.4668 85.8762 62.4231C86.0165 62.3793 86.113 62.2875 86.1657 62.1477C86.2183 62.0078 86.2446 61.7892 86.2446 61.492V57.8858C86.1744 57.947 86.0867 57.9863 85.9815 58.0038C85.8762 58.0213 85.7578 58.03 85.6262 58.03H82.1525C81.9157 58.03 81.749 58.0694 81.6525 58.148C81.556 58.2267 81.5078 58.3797 81.5078 58.607V61.492C81.5078 61.7892 81.5385 62.0078 81.5999 62.1477C81.6701 62.2875 81.7929 62.3793 81.9683 62.4231C82.1438 62.4668 82.4025 62.493 82.7446 62.5017V62.8033H79.4683Z"/>
<path d="M96.2812 61.492C96.3864 61.798 96.4873 62.0209 96.5838 62.1608C96.6803 62.2919 96.7943 62.3793 96.9259 62.4231C97.0663 62.458 97.2505 62.4842 97.4785 62.5017V62.8033H94.3338V62.5017C94.6321 62.4842 94.8514 62.4537 94.9917 62.4099C95.1408 62.3662 95.2242 62.2744 95.2417 62.1346C95.2592 61.9947 95.2154 61.7805 95.1101 61.492L94.3601 59.2365C94.3163 59.2802 94.2505 59.3108 94.1628 59.3283C94.075 59.337 93.9829 59.3414 93.8864 59.3414H92.1628C91.9698 59.3414 91.8251 59.3632 91.7286 59.4069C91.6321 59.4507 91.5487 59.5687 91.4786 59.761L90.8601 61.492C90.7461 61.8242 90.7461 62.0734 90.8601 62.2395C90.9829 62.3968 91.325 62.4842 91.8864 62.5017V62.8033H89.1628V62.5017C89.4435 62.4842 89.6628 62.3968 89.8207 62.2395C89.9873 62.0734 90.1321 61.8242 90.2549 61.492L92.5838 55.1188C92.6715 54.8915 92.7549 54.6686 92.8338 54.45C92.9128 54.2315 92.9829 54.0086 93.0443 53.7812H93.6891C93.7505 54.0086 93.8163 54.2315 93.8864 54.45C93.9654 54.6686 94.0487 54.8915 94.1364 55.1188L96.2812 61.492ZM93.9128 58.8693C94.0268 58.8693 94.1057 58.8562 94.1496 58.83C94.1935 58.795 94.1935 58.725 94.1496 58.6201L93.0706 55.4336H93.0443L91.7812 58.9086C91.825 58.8911 91.8777 58.8824 91.9391 58.8824C92.0005 58.8737 92.0707 58.8693 92.1496 58.8693H93.9128Z"/>
<path d="M98.1202 62.882C97.8833 62.882 97.6465 62.8558 97.4097 62.8033V62.5017C97.6114 62.5017 97.7869 62.4799 97.936 62.4362C98.0851 62.3925 98.2386 62.2963 98.3965 62.1477C98.5544 61.9991 98.7386 61.7674 98.9491 61.4527L101.186 58.0563C100.563 57.9339 100.05 57.7109 99.6465 57.3875C99.2518 57.0553 99.0544 56.6181 99.0544 56.0761C99.0544 55.7002 99.1553 55.3592 99.357 55.0533C99.5675 54.7385 99.8877 54.4894 100.318 54.3058C100.747 54.1135 101.296 54.0173 101.962 54.0173C102.217 54.0173 102.497 54.0304 102.804 54.0566C103.12 54.0741 103.475 54.0829 103.87 54.0829H105.291V54.3845C105.054 54.3932 104.87 54.4194 104.739 54.4632C104.607 54.5069 104.511 54.5987 104.449 54.7385C104.396 54.8697 104.37 55.0882 104.37 55.3942V61.492C104.37 61.7892 104.401 62.0078 104.462 62.1477C104.524 62.2875 104.642 62.3793 104.818 62.4231C105.002 62.4668 105.265 62.493 105.607 62.5017V62.8033H102.331V62.5017C102.568 62.493 102.752 62.4668 102.883 62.4231C103.024 62.3793 103.12 62.2875 103.173 62.1477C103.225 62.0078 103.252 61.7892 103.252 61.492V55.3942C103.252 54.9921 103.173 54.7429 103.015 54.6467C102.866 54.5418 102.633 54.4894 102.318 54.4894C101.984 54.4894 101.66 54.5287 101.344 54.6074C101.037 54.6861 100.787 54.8391 100.594 55.0664C100.401 55.2849 100.304 55.6084 100.304 56.0368C100.304 56.6662 100.541 57.1339 101.015 57.4399C101.489 57.7459 102.146 57.8639 102.989 57.794V58.1874C102.734 58.1874 102.546 58.2136 102.423 58.2661C102.309 58.3098 102.203 58.4059 102.107 58.5546L99.9886 61.8461C99.7868 62.1695 99.55 62.4231 99.2781 62.6066C99.0149 62.7902 98.629 62.882 98.1202 62.882Z"/>
<path d="M118.332 62.882C117.823 62.882 117.433 62.7859 117.161 62.5935C116.889 62.3925 116.635 62.1433 116.398 61.8461L113.674 58.4365C113.56 58.2967 113.472 58.2005 113.411 58.148C113.35 58.0956 113.284 58.0694 113.214 58.0694C113.143 58.0694 113.082 58.0956 113.029 58.148C112.977 58.1918 112.95 58.2923 112.95 58.4497V61.492C112.95 61.7892 112.981 62.0078 113.043 62.1477C113.113 62.2875 113.236 62.3793 113.411 62.4231C113.586 62.4668 113.845 62.493 114.187 62.5017V62.8033H110.911V62.5017C111.148 62.493 111.332 62.4668 111.464 62.4231C111.604 62.3793 111.7 62.2875 111.753 62.1477C111.806 62.0078 111.832 61.7892 111.832 61.492V55.3942C111.832 55.0882 111.797 54.8697 111.727 54.7385C111.665 54.5987 111.547 54.5069 111.371 54.4632C111.196 54.4194 110.933 54.3932 110.582 54.3845V54.0829H113.871V54.3845C113.635 54.3932 113.45 54.4194 113.319 54.4632C113.187 54.5069 113.091 54.5987 113.029 54.7385C112.977 54.8697 112.95 55.0882 112.95 55.3942V57.5842H112.977L115.793 55.3024C116.003 55.1276 116.139 54.9964 116.2 54.909C116.262 54.8216 116.293 54.7429 116.293 54.673C116.293 54.5855 116.244 54.52 116.148 54.4763C116.051 54.4238 115.867 54.3932 115.595 54.3845V54.0829H118.358V54.3845C118.095 54.402 117.858 54.4675 117.648 54.5812C117.437 54.6948 117.196 54.8609 116.924 55.0795L114.424 57.1121C114.284 57.217 114.284 57.3612 114.424 57.5448L117.503 61.4527C117.74 61.7499 117.933 61.9728 118.082 62.1214C118.24 62.2701 118.389 62.3706 118.529 62.4231C118.678 62.4755 118.85 62.5017 119.042 62.5017V62.8033C118.806 62.8558 118.569 62.882 118.332 62.882Z"/>
<path d="M123.9 53.8862C124.497 53.8862 125.058 53.9911 125.585 54.2009C126.111 54.4107 126.58 54.7167 126.993 55.1188C127.405 55.5122 127.725 55.9887 127.953 56.5482C128.19 57.1077 128.308 57.7328 128.308 58.4234C128.308 59.1141 128.19 59.7392 127.953 60.2987C127.725 60.8582 127.405 61.339 126.993 61.7412C126.589 62.1433 126.12 62.4537 125.585 62.6722C125.05 62.8908 124.484 63 123.887 63C123.3 63 122.738 62.8951 122.203 62.6853C121.677 62.4755 121.207 62.1739 120.795 61.7805C120.392 61.3783 120.071 60.8975 119.835 60.338C119.607 59.7785 119.493 59.1534 119.493 58.4628C119.493 57.7721 119.607 57.1471 119.835 56.5875C120.071 56.028 120.392 55.5472 120.795 55.1451C121.207 54.7429 121.677 54.4326 122.203 54.214C122.738 53.9954 123.304 53.8862 123.9 53.8862ZM124.085 62.4755C124.611 62.4755 125.093 62.3313 125.532 62.0428C125.979 61.7543 126.339 61.3303 126.611 60.7708C126.883 60.2025 127.019 59.5031 127.019 58.6726C127.019 57.7634 126.861 56.9941 126.545 56.3646C126.229 55.7264 125.821 55.2412 125.321 54.909C124.821 54.5768 124.286 54.4107 123.716 54.4107C123.19 54.4107 122.703 54.5549 122.256 54.8434C121.808 55.1319 121.449 55.5603 121.177 56.1286C120.905 56.6881 120.769 57.3831 120.769 58.2136C120.769 59.1228 120.927 59.8965 121.243 60.5347C121.558 61.1642 121.971 61.645 122.479 61.9772C122.988 62.3094 123.523 62.4755 124.085 62.4755Z"/>
<path d="M134.782 62.9083C134.712 62.7072 134.629 62.5061 134.532 62.305C134.436 62.0952 134.304 61.8067 134.138 61.4395L131.625 55.8663H131.598L131.335 61.492C131.326 61.8155 131.401 62.0602 131.559 62.2264C131.717 62.3925 132.063 62.4842 132.598 62.5017V62.8033H129.796V62.5017C130.138 62.4842 130.375 62.3925 130.506 62.2264C130.647 62.0602 130.721 61.8155 130.73 61.492L131.032 55.3942C131.05 55.0882 131.028 54.8697 130.967 54.7385C130.914 54.5987 130.804 54.5069 130.638 54.4632C130.471 54.4194 130.221 54.3932 129.888 54.3845V54.0829H132.125C132.195 54.3102 132.269 54.5243 132.348 54.7254C132.436 54.9265 132.537 55.1494 132.651 55.3942L135.309 61.2166H135.335L137.782 55.3942C137.879 55.1669 137.962 54.9484 138.032 54.7385C138.111 54.52 138.182 54.3014 138.243 54.0829H140.322V54.3845C140.076 54.3932 139.883 54.4194 139.743 54.4632C139.603 54.5069 139.506 54.5987 139.453 54.7385C139.41 54.8697 139.392 55.0882 139.401 55.3942L139.677 61.492C139.695 61.7892 139.734 62.0078 139.796 62.1477C139.857 62.2875 139.967 62.3793 140.125 62.4231C140.291 62.458 140.519 62.4842 140.809 62.5017V62.8033H137.756V62.5017C137.967 62.4842 138.133 62.458 138.256 62.4231C138.379 62.3793 138.462 62.2875 138.506 62.1477C138.559 62.0078 138.576 61.7892 138.559 61.492L138.309 55.7745H138.282L135.875 61.4395C135.725 61.8067 135.607 62.0952 135.519 62.305C135.44 62.5061 135.375 62.7072 135.322 62.9083H134.782Z"/>
<path d="M149.674 61.492C149.674 61.7892 149.704 62.0078 149.766 62.1477C149.827 62.2875 149.946 62.3793 150.121 62.4231C150.305 62.4668 150.568 62.493 150.91 62.5017V62.8033H147.634V62.5017C147.871 62.493 148.055 62.4668 148.187 62.4231C148.327 62.3793 148.424 62.2875 148.476 62.1477C148.529 62.0078 148.555 61.7892 148.555 61.492V55.3942C148.555 55.027 148.485 54.7954 148.345 54.6992C148.213 54.603 147.954 54.5549 147.568 54.5549H144.871C144.652 54.5549 144.485 54.603 144.371 54.6992C144.266 54.7954 144.213 55.027 144.213 55.3942V61.492C144.213 61.7892 144.244 62.0078 144.305 62.1477C144.375 62.2875 144.498 62.3793 144.674 62.4231C144.849 62.4668 145.108 62.493 145.45 62.5017V62.8033H142.174V62.5017C142.411 62.493 142.595 62.4668 142.726 62.4231C142.867 62.3793 142.963 62.2875 143.016 62.1477C143.068 62.0078 143.095 61.7892 143.095 61.492V55.3942C143.095 55.0882 143.06 54.8697 142.989 54.7385C142.928 54.5987 142.81 54.5069 142.634 54.4632C142.459 54.4194 142.196 54.3932 141.845 54.3845V54.0829H150.595V54.3845C150.358 54.3932 150.174 54.4194 150.042 54.4632C149.91 54.5069 149.814 54.5987 149.753 54.7385C149.7 54.8697 149.674 55.0882 149.674 55.3942V61.492Z"/>
<path d="M158.601 61.492C158.706 61.798 158.807 62.0209 158.904 62.1608C159 62.2919 159.114 62.3793 159.246 62.4231C159.386 62.458 159.57 62.4842 159.798 62.5017V62.8033H156.654V62.5017C156.952 62.4842 157.171 62.4537 157.312 62.4099C157.461 62.3662 157.544 62.2744 157.562 62.1346C157.579 61.9947 157.535 61.7805 157.43 61.492L156.68 59.2365C156.636 59.2802 156.57 59.3108 156.483 59.3283C156.395 59.337 156.303 59.3414 156.206 59.3414H154.483C154.29 59.3414 154.145 59.3632 154.048 59.4069C153.952 59.4507 153.869 59.5687 153.798 59.761L153.18 61.492C153.066 61.8242 153.066 62.0734 153.18 62.2395C153.303 62.3968 153.645 62.4842 154.206 62.5017V62.8033H151.483V62.5017C151.763 62.4842 151.983 62.3968 152.141 62.2395C152.307 62.0734 152.452 61.8242 152.575 61.492L154.904 55.1188C154.991 54.8915 155.075 54.6686 155.154 54.45C155.233 54.2315 155.303 54.0086 155.364 53.7812H156.009C156.07 54.0086 156.136 54.2315 156.206 54.45C156.285 54.6686 156.369 54.8915 156.456 55.1188L158.601 61.492ZM156.233 58.8693C156.347 58.8693 156.426 58.8562 156.469 58.83C156.513 58.795 156.513 58.725 156.469 58.6201L155.391 55.4336H155.364L154.101 58.9086C154.145 58.8911 154.198 58.8824 154.259 58.8824C154.32 58.8737 154.391 58.8693 154.469 58.8693H156.233Z"/>
<path d="M160.677 62.8033V62.5017C160.914 62.493 161.098 62.4668 161.23 62.4231C161.37 62.3793 161.466 62.2875 161.519 62.1477C161.572 62.0078 161.598 61.7892 161.598 61.492V55.3942C161.598 55.0882 161.563 54.8697 161.493 54.7385C161.431 54.5987 161.313 54.5069 161.137 54.4632C160.962 54.4194 160.699 54.3932 160.348 54.3845V54.0829H163.637V54.3845C163.401 54.3932 163.216 54.4194 163.085 54.4632C162.953 54.5069 162.857 54.5987 162.795 54.7385C162.743 54.8697 162.716 55.0882 162.716 55.3942V57.6891C162.787 57.6366 162.87 57.6017 162.966 57.5842C163.072 57.5667 163.194 57.5579 163.335 57.5579H166.808C167.045 57.5579 167.212 57.5186 167.308 57.4399C167.405 57.3612 167.453 57.2039 167.453 56.9678V55.3942C167.453 55.0882 167.418 54.8697 167.348 54.7385C167.287 54.5987 167.168 54.5069 166.993 54.4632C166.817 54.4194 166.554 54.3932 166.203 54.3845V54.0829H169.493V54.3845C169.256 54.3932 169.072 54.4194 168.94 54.4632C168.808 54.5069 168.712 54.5987 168.651 54.7385C168.598 54.8697 168.572 55.0882 168.572 55.3942V61.492C168.572 61.7892 168.602 62.0078 168.664 62.1477C168.725 62.2875 168.844 62.3793 169.019 62.4231C169.203 62.4668 169.466 62.493 169.808 62.5017V62.8033H166.532V62.5017C166.769 62.493 166.953 62.4668 167.085 62.4231C167.225 62.3793 167.322 62.2875 167.374 62.1477C167.427 62.0078 167.453 61.7892 167.453 61.492V57.8858C167.383 57.947 167.295 57.9863 167.19 58.0038C167.085 58.0213 166.966 58.03 166.835 58.03H163.361C163.124 58.03 162.958 58.0694 162.861 58.148C162.765 58.2267 162.716 58.3797 162.716 58.607V61.492C162.716 61.7892 162.747 62.0078 162.808 62.1477C162.879 62.2875 163.001 62.3793 163.177 62.4231C163.352 62.4668 163.611 62.493 163.953 62.5017V62.8033H160.677Z"/>
<path d="M171.213 62.8033V62.5017C171.45 62.493 171.635 62.4668 171.766 62.4231C171.906 62.3793 172.003 62.2875 172.056 62.1477C172.108 62.0078 172.134 61.7892 172.134 61.492V55.3942C172.134 55.0882 172.099 54.8697 172.029 54.7385C171.968 54.5987 171.849 54.5069 171.674 54.4632C171.499 54.4194 171.235 54.3932 170.884 54.3845V54.0829H174.174V54.3845C173.937 54.3932 173.753 54.4194 173.621 54.4632C173.49 54.5069 173.393 54.5987 173.332 54.7385C173.279 54.8697 173.253 55.0882 173.253 55.3942V61.4133L178.253 54.0829H180.029V54.3845C179.792 54.3932 179.608 54.4194 179.477 54.4632C179.345 54.5069 179.249 54.5987 179.187 54.7385C179.134 54.8697 179.108 55.0882 179.108 55.3942V61.492C179.108 61.7892 179.139 62.0078 179.2 62.1477C179.262 62.2875 179.38 62.3793 179.556 62.4231C179.74 62.4668 180.003 62.493 180.345 62.5017V62.8033H177.069V62.5017C177.306 62.493 177.49 62.4668 177.621 62.4231C177.762 62.3793 177.858 62.2875 177.911 62.1477C177.963 62.0078 177.99 61.7892 177.99 61.492V55.486L172.99 62.8033H171.213Z"/>
<path d="M181.513 62.882C181.276 62.882 181.039 62.8558 180.803 62.8033V62.5017C181.004 62.5017 181.18 62.4799 181.329 62.4362C181.478 62.3925 181.632 62.2963 181.789 62.1477C181.947 61.9991 182.132 61.7674 182.342 61.4527L184.579 58.0563C183.956 57.9339 183.443 57.7109 183.039 57.3875C182.645 57.0553 182.447 56.6181 182.447 56.0761C182.447 55.7002 182.548 55.3592 182.75 55.0533C182.961 54.7385 183.281 54.4894 183.711 54.3058C184.14 54.1135 184.689 54.0173 185.355 54.0173C185.61 54.0173 185.89 54.0304 186.197 54.0566C186.513 54.0741 186.868 54.0829 187.263 54.0829H188.684V54.3845C188.447 54.3932 188.263 54.4194 188.132 54.4632C188 54.5069 187.904 54.5987 187.842 54.7385C187.789 54.8697 187.763 55.0882 187.763 55.3942V61.492C187.763 61.7892 187.794 62.0078 187.855 62.1477C187.917 62.2875 188.035 62.3793 188.211 62.4231C188.395 62.4668 188.658 62.493 189 62.5017V62.8033H185.724V62.5017C185.961 62.493 186.145 62.4668 186.276 62.4231C186.417 62.3793 186.513 62.2875 186.566 62.1477C186.618 62.0078 186.645 61.7892 186.645 61.492V55.3942C186.645 54.9921 186.566 54.7429 186.408 54.6467C186.259 54.5418 186.026 54.4894 185.711 54.4894C185.377 54.4894 185.053 54.5287 184.737 54.6074C184.43 54.6861 184.18 54.8391 183.987 55.0664C183.794 55.2849 183.697 55.6084 183.697 56.0368C183.697 56.6662 183.934 57.1339 184.408 57.4399C184.882 57.7459 185.539 57.8639 186.382 57.794V58.1874C186.127 58.1874 185.939 58.2136 185.816 58.2661C185.702 58.3098 185.596 58.4059 185.5 58.5546L183.382 61.8461C183.18 62.1695 182.943 62.4231 182.671 62.6066C182.408 62.7902 182.022 62.882 181.513 62.882Z"/>
</svg>
