<svg width="26" height="25" viewBox="0 0 26 25" fill="none" xmlns="http://www.w3.org/2000/svg">
<path fill-rule="evenodd" clip-rule="evenodd" d="M22.7867 0.0759921C22.6518 0.124251 22.465 0.217497 22.3716 0.283242C21.9494 0.580221 19.3039 2.72687 19.1831 2.87048C19.1088 2.95874 19.022 3.12857 18.9901 3.2479C18.9383 3.44167 18.9021 3.4808 18.6517 3.61424C18.4976 3.69645 18.3415 3.8105 18.3049 3.86775C18.2684 3.92495 18.1337 4.23555 18.0056 4.55793C17.8776 4.88031 17.7668 5.15018 17.7596 5.1577C17.7523 5.16518 17.3511 4.97654 16.868 4.73851C16.3456 4.48115 15.8745 4.28264 15.7055 4.24869C15.1163 4.13034 14.3751 4.20923 13.9098 4.43982C13.3453 4.71961 13.2722 4.79737 10.8832 7.6596L8.53914 10.4682L4.65122 11.5065C1.33642 12.3916 0.74518 12.5628 0.640373 12.6676L0.517447 12.7906L0.504358 16.6001C0.492979 19.9146 0.500842 20.4281 0.56482 20.5519C0.623915 20.6662 1.37651 21.1158 4.40649 22.8469C6.47899 24.0309 8.22096 24.9998 8.27756 25C8.33412 25.0002 12.1605 23.8198 16.7806 22.3768C24.5327 19.9556 25.1931 19.7411 25.3404 19.5963L25.5 19.4393L25.4869 15.6049L25.4738 11.7704L25.3582 11.6473C25.2945 11.5796 24.7188 11.2254 24.0788 10.8602L22.9152 10.1962L23.1011 9.93086C23.2033 9.78491 23.3149 9.56554 23.3491 9.44343C23.4314 9.14933 23.3904 8.62137 23.2629 8.33308C23.0508 7.85352 22.8882 7.74674 20.7121 6.65828C18.9593 5.78155 18.7079 5.642 18.7338 5.56038C18.7501 5.509 18.8462 5.26282 18.9472 5.01336C19.1781 4.44373 19.2985 4.34853 19.6389 4.46664C19.7741 4.51358 19.9351 4.53204 20.0613 4.515C20.3757 4.47265 24.3621 3.32093 24.5811 3.20917C24.8647 3.06449 25.1944 2.71188 25.3434 2.39389C25.4533 2.15953 25.4736 2.05022 25.4724 1.70049C25.4712 1.35637 25.4489 1.23768 25.342 1.00708C25.1772 0.651487 24.8366 0.311231 24.4822 0.148137C24.2406 0.036916 24.127 0.017964 23.618 0.00418966C23.1483 -0.00855894 22.9832 0.00570386 22.7867 0.0759921ZM24.0328 1.09549C24.1411 1.13882 24.277 1.2408 24.3349 1.32203C24.5365 1.60529 24.4301 2.10737 24.1363 2.25932C24.0597 2.29894 23.1755 2.56607 22.1714 2.85289C21.1673 3.13976 20.3184 3.38482 20.2848 3.39747C20.2512 3.41017 20.2237 3.39659 20.2237 3.36738C20.2237 3.28356 22.9112 1.15147 23.1036 1.08269C23.3459 0.995943 23.7997 1.0022 24.0328 1.09549ZM15.5402 5.2698C15.6314 5.29867 16.0743 5.50089 16.5242 5.71923C17.3536 6.12176 17.4183 6.17573 17.2812 6.35158C17.2476 6.39461 16.0993 7.10311 14.7294 7.92596C13.3595 8.74885 12.1757 9.49027 12.0988 9.5736C11.9759 9.70671 11.962 9.75218 11.9841 9.94849C12.0163 10.2345 12.186 10.3949 12.4564 10.3949C12.6164 10.3949 13.0457 10.1537 15.3473 8.77083L18.0504 7.14673L18.1725 6.89249C18.2396 6.75269 18.3117 6.63727 18.3326 6.63605C18.3535 6.63483 19.2281 7.06355 20.2761 7.58873C22.3143 8.61013 22.3722 8.64921 22.3722 9.00285C22.3722 9.20551 22.2089 9.45398 22.0189 9.54058C21.875 9.60613 7.83807 13.1303 7.72095 13.1303C7.64789 13.1303 13.7176 5.86347 13.9925 5.62178C14.1215 5.50841 14.3401 5.37218 14.4782 5.31904C14.7603 5.21055 15.2768 5.18657 15.5402 5.2698ZM22.6656 11.253C23.1625 11.5367 23.5863 11.7858 23.6074 11.8064C23.6402 11.8387 8.5133 16.5996 8.38105 16.5986C8.31829 16.5982 2.39499 13.2144 2.4175 13.1919C2.44666 13.1627 7.3048 11.874 7.32448 11.8902C7.33464 11.8986 7.08078 12.2195 6.7603 12.6033C5.70285 13.8697 5.71873 13.8477 5.71873 14.0536C5.71873 14.2822 5.85655 14.4718 6.07359 14.5418C6.20677 14.5848 6.37785 14.5559 7.16429 14.3575L8.0971 14.1221L8.89805 14.6031C9.81641 15.1544 9.96449 15.1925 10.2156 14.9413C10.3572 14.7996 10.3788 14.733 10.3588 14.4979C10.3414 14.2929 10.2727 14.2163 9.91535 14.0041C9.72635 13.8917 9.58936 13.7841 9.61094 13.7648C9.63253 13.7455 10.0728 13.6253 10.5894 13.4977L11.5285 13.2657L12.1983 13.662C12.5667 13.88 12.9199 14.0583 12.9831 14.0583C13.1726 14.0583 13.3897 13.9157 13.4614 13.7442C13.566 13.4936 13.4789 13.2567 13.213 13.0693C13.0942 12.9856 13.0026 12.9116 13.0093 12.9049C13.016 12.8982 13.4575 12.7833 13.9903 12.6495L14.9592 12.4064L15.4451 12.6999C15.9571 13.0093 16.1566 13.0597 16.3852 12.9374C16.5655 12.8409 16.667 12.5974 16.6099 12.3984C16.5845 12.3099 16.5287 12.1988 16.4859 12.1515C16.443 12.1041 16.4259 12.0552 16.4478 12.0429C16.4697 12.0305 16.917 11.9147 17.4417 11.7854L18.3959 11.5505L18.7388 11.7542C19.1684 12.0095 19.383 12.0248 19.5926 11.8152C19.6711 11.7367 19.7383 11.6323 19.7419 11.5832C19.7455 11.5341 19.751 11.4295 19.7541 11.3507L19.7597 11.2074L20.6632 10.9767C21.1602 10.8498 21.6107 10.744 21.6644 10.7416C21.7182 10.7391 22.1687 10.9693 22.6656 11.253ZM24.4726 15.7846V18.8784L16.6582 21.3212L8.84365 23.7639L8.85625 20.6596L8.8688 17.5553L16.6341 15.1255C20.905 13.7891 24.4158 12.6946 24.436 12.6932C24.4562 12.6918 24.4726 14.0829 24.4726 15.7846ZM4.71754 15.7308L7.74552 17.464L7.75812 20.4992C7.765 22.1685 7.7568 23.5343 7.7398 23.5343C7.72281 23.5343 6.31612 22.7383 4.61376 21.7655L1.51863 19.9967V16.973C1.51863 14.1166 1.52337 13.9506 1.6041 13.9734C1.65108 13.9867 3.05216 14.7775 4.71754 15.7308Z" fill="#353535"/>
</svg>
