<svg width="26" height="25" viewBox="0 0 26 25" fill="none" xmlns="http://www.w3.org/2000/svg">
<path fill-rule="evenodd" clip-rule="evenodd" d="M6.05303 0.0126159C3.68726 0.275541 1.6293 1.91986 0.829603 4.18615C0.478873 5.18017 0.500252 4.63989 0.500252 12.5019C0.500252 19.2208 0.504753 19.5908 0.591592 19.9861C1.14457 22.504 2.99661 24.3558 5.51488 24.9087C5.91018 24.9955 6.28028 25 13.0001 25C19.72 25 20.0901 24.9955 20.4854 24.9087C23.0051 24.3554 24.8553 22.5054 25.4087 19.9861C25.4955 19.5908 25.5 19.2208 25.5 12.5019C25.5 5.78302 25.4955 5.41297 25.4087 5.01772C24.8564 2.50304 23.0849 0.722292 20.5098 0.0932787C20.1957 0.0165292 19.5907 0.00894717 13.1958 0.00160973C9.36146 -0.00279273 6.14721 0.00214781 6.05303 0.0126159ZM20.0695 1.2254C20.5951 1.3109 21.0634 1.46469 21.5617 1.71539C22.0629 1.96755 22.3009 2.13798 22.7472 2.56423C23.5882 3.36768 24.0799 4.28882 24.2757 5.42769C24.3879 6.08072 24.3879 18.9231 24.2757 19.5761C24.1809 20.1272 24.0454 20.5432 23.7994 21.0378C23.5539 21.5314 23.3433 21.8245 22.909 22.2772C22.1259 23.0934 21.2014 23.5824 20.0753 23.7758C19.4369 23.8855 6.60322 23.8878 5.93073 23.7784C4.8188 23.5975 3.86446 23.0884 3.06104 22.2476C2.63472 21.8014 2.46427 21.5634 2.21207 21.0622C1.96134 20.564 1.80753 20.0958 1.72201 19.5703C1.61507 18.9135 1.61507 6.09031 1.72201 5.43351C1.89867 4.34835 2.38727 3.40647 3.17376 2.63477C3.76906 2.05076 4.42502 1.64828 5.18812 1.39885C5.91326 1.16185 5.85519 1.16366 12.9512 1.15858C18.5998 1.15447 19.6971 1.16479 20.0695 1.2254ZM6.54227 8.97994V11.9149H7.12881H7.7153L7.72812 9.98262L7.74088 8.05028L12.6086 12.9176L17.4764 17.7849H15.5318H13.5872V18.3719V18.9588H16.5226H19.458V16.0239V13.0889H18.8709H18.2838V15.0332V16.9775L13.4159 12.1105L8.54787 7.24341L10.4805 7.23064L12.413 7.21783V6.63142V6.04496H9.47766H6.54227V8.97994Z" fill="black"/>
</svg>
