<svg width="26" height="21" viewBox="0 0 26 21" fill="none" xmlns="http://www.w3.org/2000/svg">
<path fill-rule="evenodd" clip-rule="evenodd" d="M17.3315 0.0507585C17.1268 0.16467 17.0995 0.320347 17.0995 1.37164C17.0995 1.92309 17.1205 2.42703 17.1461 2.49152C17.2347 2.71412 17.4105 2.77539 18.013 2.79364L18.5647 2.81039V4.53199V6.25359L13.9615 6.25387C11.0433 6.25401 9.29398 6.27118 9.18252 6.30077C8.82951 6.39447 8.82286 6.41729 8.80626 7.59588C8.78555 9.06068 8.78125 9.05354 9.6867 9.05354H10.2619V10.8028V12.5521L5.52553 12.5644L0.789123 12.5768L0.653738 12.7061L0.518305 12.8354L0.503458 13.8919C0.493006 14.6347 0.5059 14.9885 0.546925 15.0832C0.633958 15.2839 0.820869 15.3534 1.27288 15.3534H1.66605V17.9924C1.66605 20.8153 1.66717 20.829 1.90756 20.9519C1.97007 20.9839 3.5438 21 6.61378 21H11.2261L18.3179 15.6272C22.7204 12.2919 25.4268 10.2114 25.4548 10.1409C25.4814 10.0741 25.5 8.0429 25.5 5.19824C25.5 0.00469891 25.508 0.17601 25.2585 0.0484251C25.1293 -0.0176538 17.4503 -0.015367 17.3315 0.0507585ZM24.5232 1.40034V1.86699H21.2997H18.0763V1.40034V0.933677H21.2997H24.5232V1.40034ZM24.5232 3.24364V3.68696H23.4707C22.326 3.68696 22.2015 3.71002 22.0907 3.94232C21.9978 4.13715 22.0218 4.28093 22.1747 4.44454L22.3172 4.59695L23.4202 4.61109L24.5232 4.62523V7.18009V9.73491L17.7048 14.9008L10.8863 20.0667H6.7646H2.64285V18.62V17.1734H3.69061C4.82487 17.1734 4.94555 17.1523 5.06409 16.9333C5.16993 16.7378 5.14824 16.5838 4.99127 16.4158L4.84885 16.2634L3.74585 16.2493L2.64285 16.2351V15.7943V15.3534H6.74311C9.81803 15.3534 10.8754 15.3395 10.9714 15.2977C11.2434 15.1793 11.2387 15.2375 11.2387 12.0192V9.05354H15.2224C17.8612 9.05354 19.2378 9.0373 19.3 9.00547C19.5424 8.88153 19.5415 8.89352 19.5415 5.74259V2.80031H22.0323H24.5232V3.24364ZM20.8547 3.75696C20.4943 3.94414 20.5994 4.51146 21.0105 4.59774C21.1904 4.63549 21.4646 4.51127 21.5371 4.35918C21.741 3.93168 21.288 3.53194 20.8547 3.75696ZM18.5647 7.65356V8.12022H14.1691H9.77349V7.65356V7.1869H14.1691H18.5647V7.65356ZM10.2619 13.9535V14.4201H5.86629H1.47069V13.9535V13.4868H5.86629H10.2619V13.9535ZM5.83615 16.3121C5.48201 16.4834 5.49041 16.9452 5.85085 17.1213C6.19854 17.2912 6.61144 16.9868 6.52768 16.6224C6.46052 16.3302 6.11713 16.1762 5.83615 16.3121Z" fill="#353535"/>
</svg>
