<svg width="58" height="53" viewBox="0 0 58 53" fill="none" xmlns="http://www.w3.org/2000/svg">
<path fill-rule="evenodd" clip-rule="evenodd" d="M14.2844 0.0487539C9.72057 0.443579 5.56347 2.83813 2.86719 6.62524C1.33038 8.78384 0.405413 11.1806 0.0754176 13.8594C-0.0240811 14.6671 -0.0254559 17.3815 0.0732411 18.2152C0.720976 23.6877 3.35544 29.1277 7.79718 34.1645C8.65201 35.1339 9.85478 36.3577 11.7847 38.2217C14.5209 40.8646 17.6698 43.655 22.205 47.4556C23.6472 48.6641 24.24 49.1859 24.5245 49.4969C25.6092 50.6828 27.0847 51.9301 28.4454 52.8115C28.6689 52.9563 28.7441 52.9843 28.9432 52.9971C29.0953 53.0068 29.2241 52.9922 29.3099 52.9555C29.3826 52.9243 29.6398 52.711 29.8815 52.4814C32.7874 49.7202 35.5892 47.4801 38.2421 45.7971C39.975 44.6977 41.5372 43.8753 44.1417 42.6913C47.868 40.9973 49.9314 40.1378 50.8997 39.8765C51.5402 39.7036 52.0331 39.4115 52.5738 38.8844C53.8227 37.6669 54.9011 35.3277 55.7451 32.0056C55.9282 31.2846 56.6837 27.7979 56.872 26.8043C57.0409 25.9128 57.1895 24.9168 57.2602 24.202C57.3165 23.6322 57.3187 22.3656 57.2639 22.0446C57.2291 21.8408 57.234 21.7681 57.2974 21.5457C57.4223 21.1074 57.6666 19.9742 57.7691 19.3572C57.9704 18.1455 58 17.7188 58 16.0277C58 14.3362 57.9707 13.9319 57.7683 12.8232C57.0156 8.70191 54.5821 5.02049 51.0333 2.63465C47.8468 0.492397 44.0326 -0.38913 40.3203 0.158667C36.4578 0.728685 32.8411 2.86261 30.2787 6.0835C29.9192 6.5354 29.3937 7.28187 29.1749 7.65152C29.0909 7.79344 29.0136 7.90976 29.0031 7.90999C28.9926 7.91026 28.882 7.74363 28.7574 7.53973C28.4811 7.08764 27.9936 6.41194 27.5696 5.89327C25.7576 3.67679 23.3635 1.93876 20.7869 0.969195C19.4621 0.470712 18.1215 0.165613 16.728 0.0454535C16.1933 -0.000637636 14.8342 0.00116604 14.2844 0.0487539ZM17.439 1.66793C20.4354 2.12435 23.1635 3.53383 25.3966 5.77913C26.5475 6.9364 27.3852 8.08522 28.1249 9.52065C28.3858 10.027 28.4274 10.0864 28.5928 10.189C28.8582 10.3535 29.0815 10.3646 29.3433 10.2263C29.5471 10.1186 29.5547 10.1082 29.9113 9.44574C30.6879 8.00333 31.4107 7.00452 32.4765 5.90102C34.4482 3.85977 37.0026 2.41575 39.6745 1.83207C40.5527 1.64026 41.1396 1.57456 42.1754 1.55207C43.8482 1.51576 45.1857 1.71103 46.7291 2.21692C51.3856 3.74326 55.0122 7.68226 56.1335 12.4316C56.3937 13.5332 56.4931 14.544 56.4931 16.0857C56.4931 17.4451 56.3762 18.6919 56.1492 19.7546L56.1072 19.9507L55.8707 19.851C55.6532 19.7592 55.5908 19.7513 55.0995 19.7525C54.4801 19.7541 54.1225 19.8311 53.6059 20.0743C52.9442 20.3859 52.3854 20.8836 51.9369 21.5607C51.3521 22.4438 51.0391 23.3189 50.6911 25.0439C50.3951 26.5113 50.0905 27.6811 49.6839 28.9115C49.3418 29.9465 49.1671 30.3894 49.0919 30.4115C49.0572 30.4217 48.4021 30.6208 47.6361 30.854C46.8701 31.0872 46.2379 31.2725 46.2312 31.2658C46.2246 31.2591 46.6066 30.9042 47.0803 30.477C48.1405 29.521 48.4013 29.1983 48.6493 28.5362C49.0064 27.5827 48.7216 26.4909 47.9034 25.6771C47.5981 25.3734 47.1498 25.0709 46.7691 24.9115C45.7663 24.4919 45.0012 24.5516 43.4353 25.1714C42.2882 25.6254 41.3128 26.1316 38.7964 27.579L37.1164 28.5453L36.4483 28.7681C35.6084 29.0482 34.2949 29.5413 33.4506 29.8934C28.3028 32.0403 24.6412 34.6004 22.8184 37.3271C21.3472 39.5277 20.8947 41.918 21.4996 44.2925C21.5507 44.4931 21.6193 44.7332 21.6519 44.8262C21.6846 44.9192 21.7051 45.0016 21.6975 45.0092C21.6722 45.0347 18.8289 42.5873 17.1671 41.1097C14.0526 38.3405 10.6639 35.0731 9.12446 33.355C4.8241 28.5556 2.24293 23.3414 1.60138 18.1576C1.51315 17.4447 1.50123 14.7468 1.58332 14.0704C2.004 10.6047 3.59747 7.52829 6.19012 5.17627C8.35867 3.20897 11.1956 1.91692 13.9981 1.62011C14.2186 1.59678 14.4505 1.57076 14.5135 1.56232C14.5765 1.55391 15.1177 1.55245 15.7162 1.55913C16.6443 1.56945 16.8977 1.58546 17.439 1.66793ZM55.443 21.3927C55.8488 21.8006 55.9005 23.1332 55.5923 25.2382C55.3641 26.7966 54.4624 30.9895 54.0283 32.5107C53.1933 35.4369 52.1752 37.4053 51.1349 38.1047C50.9263 38.2449 50.7579 38.3185 50.4248 38.415C49.3412 38.7288 47.2967 39.5772 43.8163 41.1571C41.9134 42.0208 41.0932 42.4126 40.24 42.8653C36.9133 44.6304 33.9082 46.7826 30.4539 49.8741C30.0234 50.2594 29.5035 50.7345 29.2985 50.93L28.9259 51.2855L28.8213 51.2177C27.8295 50.5747 26.0924 49.0097 25.241 47.9921C22.8657 45.1527 22.2067 42.4442 23.2463 39.793C23.8993 38.1277 25.1597 36.606 27.1055 35.1338C29.5724 33.2673 33.4112 31.3679 37.17 30.154C37.6905 29.9859 37.7916 29.935 39.0599 29.2025C40.859 28.1634 41.4269 27.8448 42.1945 27.4436C43.6258 26.6956 44.9836 26.1788 45.5188 26.1786C45.9408 26.1783 46.4522 26.4134 46.8227 26.7778C47.131 27.0811 47.2528 27.3355 47.2522 27.6752C47.2512 28.2023 47.1267 28.3565 45.5363 29.8001C41.6108 33.3633 39.9714 34.8768 39.8877 35.0149C39.7763 35.1988 39.7618 35.5342 39.8573 35.7191C40.0714 36.1334 40.6178 36.2733 40.9791 36.0062C41.0595 35.9467 41.6625 35.4067 42.319 34.8062L43.5127 33.7143L44.2854 33.4802C48.8101 32.1092 50.0147 31.7387 50.1128 31.6877C50.2956 31.5927 50.4048 31.4123 50.6261 30.84C51.2796 29.1496 51.7677 27.4405 52.1963 25.3411C52.314 24.7644 52.4781 24.0849 52.561 23.8311C53.1111 22.1473 53.9687 21.2863 55.1129 21.2692C55.295 21.2665 55.3308 21.2799 55.443 21.3927Z" fill="#1B5027"/>
</svg>
