<svg width="190" height="64" viewBox="0 0 190 64" fill="none" xmlns="http://www.w3.org/2000/svg">
<path d="M55.693 39.61C51.9671 39.61 48.603 38.76 45.6006 37.0598C42.6344 35.3596 40.3012 33.0084 38.601 30.006C36.937 26.9674 36.105 23.5671 36.105 19.805C36.105 16.043 36.937 12.6607 38.601 9.65834C40.3012 6.61976 42.6344 4.25039 45.6006 2.55023C48.603 0.850077 51.9671 0 55.693 0C59.4189 0 62.7649 0.850077 65.7312 2.55023C68.7336 4.25039 71.0668 6.61976 72.7308 9.65834C74.4309 12.6607 75.281 16.043 75.281 19.805C75.281 23.5671 74.4309 26.9674 72.7308 30.006C71.0668 33.0084 68.7336 35.3596 65.7312 37.0598C62.7649 38.76 59.4189 39.61 55.693 39.61ZM55.693 37.1141C58.4784 37.1141 60.9744 36.3725 63.1809 34.8894C65.4237 33.4063 67.1781 31.3444 68.4442 28.7037C69.7103 26.063 70.3433 23.0968 70.3433 19.805C70.3433 16.5132 69.7103 13.547 68.4442 10.9063C67.1781 8.26566 65.4237 6.20377 63.1809 4.72065C60.9744 3.23753 58.4784 2.49598 55.693 2.49598C52.9077 2.49598 50.3936 3.23753 48.1508 4.72065C45.9442 6.20377 44.2079 8.26566 42.9418 10.9063C41.6758 13.547 41.0427 16.5132 41.0427 19.805C41.0427 23.0968 41.6758 26.063 42.9418 28.7037C44.2079 31.3444 45.9442 33.4063 48.1508 34.8894C50.3936 36.3725 52.9077 37.1141 55.693 37.1141Z" fill="#060606"/>
<path d="M85.0106 38.2535C85.1914 35.8661 85.2818 32.9722 85.2818 29.5719V2.8758C84.8116 2.8758 84.0339 2.96623 82.9487 3.1471C81.8635 3.32797 80.9049 3.50884 80.0729 3.6897L79.8558 3.36414L81.1038 0.813904H94.2348C97.4904 0.813904 100.294 1.26607 102.645 2.17041C104.996 3.03858 106.787 4.30465 108.017 5.96864C109.247 7.63262 109.862 9.60408 109.862 11.883C109.862 14.1619 109.247 16.1515 108.017 17.8517C106.787 19.5156 104.996 20.7998 102.645 21.7041C100.294 22.5723 97.4904 23.0064 94.2348 23.0064H89.9482V38.7961H85.0106V38.2535ZM94.3976 20.7274C97.8702 20.7274 100.547 19.9497 102.428 18.3943C104.345 16.8388 105.304 14.7045 105.304 11.9915C105.304 9.27852 104.345 7.14428 102.428 5.58881C100.547 3.99718 97.8702 3.20136 94.3976 3.20136H89.9482V20.7274H94.3976Z" fill="#060606"/>
<path d="M110.736 46.8809L112.581 35.1064L112.852 34.9979C113.467 35.2873 113.956 35.4863 114.317 35.5948C114.643 35.6671 114.987 35.7576 115.348 35.8661C115.746 35.9384 116.162 36.0108 116.596 36.0831C118.007 31.9593 119.183 27.3291 120.123 22.1925C121.064 17.0197 121.534 12.6788 121.534 9.17C121.534 8.69974 121.516 8.2114 121.48 7.70497C121.444 7.16236 121.389 6.60167 121.317 6.0229L120.937 2.8758C120.358 2.8758 119.056 3.09284 117.031 3.52692C116.922 3.5631 116.795 3.59927 116.651 3.63544C116.542 3.63544 116.434 3.65353 116.325 3.6897L116.108 3.36414L117.302 0.813904H144.432V1.35651C144.432 2.11615 144.414 2.85771 144.378 3.58118C144.378 4.30465 144.36 5.02813 144.323 5.7516C144.287 6.47507 144.251 7.19854 144.215 7.92201C144.215 8.60931 144.215 9.31469 144.215 10.0382V28.758C144.215 30.024 144.215 31.3082 144.215 32.6105C144.251 33.8765 144.287 35.1245 144.323 36.3544H147.254L147.308 34.6181V34.5638L148.719 34.5096L150.292 46.8809L147.959 47.2065L147.362 44.3307C147.181 43.3178 146.765 42.3773 146.114 41.5092C145.463 40.6772 144.667 40.0079 143.727 39.5015C142.786 39.0313 141.827 38.7961 140.851 38.7961H120.992C119.689 38.7961 118.55 39.0132 117.573 39.4473C116.596 39.8813 115.783 40.4963 115.131 41.2921C114.516 42.1241 114.064 43.0827 113.775 44.1679L112.907 47.315L110.736 46.8809ZM139.494 36.3002V3.30988H125.387L125.224 4.93769C124.573 11.1957 123.777 16.8026 122.836 21.7584C121.896 26.678 120.684 31.471 119.201 36.1374C119.852 36.2097 120.449 36.264 120.992 36.3002C121.57 36.3002 122.221 36.3002 122.945 36.3002H139.494Z" fill="#060606"/>
<path d="M152.75 38.1993C153.112 37.512 153.492 36.7704 153.89 35.9746C154.288 35.1788 154.668 34.383 155.029 33.5871C155.897 31.887 156.748 30.0964 157.579 28.2154C158.448 26.3343 159.243 24.5257 159.967 22.7893L167.563 4.72065C166.912 4.21422 166.207 3.81631 165.447 3.52692C164.724 3.20136 163.892 3.0024 162.951 2.93006C162.807 2.93006 162.662 2.93006 162.517 2.93006C162.409 2.89388 162.282 2.8758 162.137 2.8758L162.897 0.759645C164.163 0.795818 165.483 0.813904 166.858 0.813904C168.269 0.813904 169.589 0.813904 170.819 0.813904H172.718C174.093 4.35891 175.431 7.59645 176.733 10.5265L185.035 29.1921C185.288 29.7708 185.741 30.7837 186.392 32.2306C186.862 33.2073 187.332 34.2021 187.803 35.215C188.309 36.1916 188.815 37.2045 189.322 38.2535V38.7961H179.067L177.819 36.1916L177.981 35.8661L178.85 36.0831C179.609 36.264 180.405 36.4268 181.237 36.5715C182.105 36.68 182.756 36.7342 183.19 36.7342L178.85 26.6961H161.052C160.835 27.2025 160.618 27.7089 160.401 28.2154C160.22 28.6856 160.039 29.1559 159.858 29.6261C158.592 32.8094 157.742 35.1788 157.308 36.7342C157.706 36.7342 158.321 36.68 159.153 36.5715C159.985 36.4268 160.799 36.264 161.595 36.0831C161.739 36.0469 161.884 36.0108 162.029 35.9746C162.21 35.9384 162.372 35.9023 162.517 35.8661L162.734 36.1916L161.486 38.7961H152.75V38.1993ZM177.873 24.3086L171.633 10.0924C171.633 10.0562 171.615 10.0201 171.579 9.9839C171.579 9.91155 171.561 9.85729 171.524 9.82112C171.163 8.91678 170.819 8.15714 170.493 7.54219C170.168 6.89106 169.824 6.31228 169.463 5.80586L162.029 24.3086H177.873Z" fill="#060606"/>
<path d="M5.35375 63.3535C4.71198 63.3535 4.11416 63.248 3.56031 63.037C3.00645 62.8173 2.51853 62.5096 2.09654 62.114C1.68334 61.7095 1.36246 61.2304 1.13388 60.6766C0.905304 60.1227 0.791016 59.5117 0.791016 58.8436C0.791016 58.1227 0.922887 57.4765 1.18663 56.905C1.45037 56.3248 1.81082 55.8325 2.26797 55.4281C2.72512 55.0237 3.25261 54.716 3.85042 54.505C4.44824 54.294 5.08122 54.1885 5.74937 54.1885C6.07465 54.1885 6.40432 54.2105 6.7384 54.2544C7.08126 54.2984 7.39775 54.3599 7.68787 54.4391C7.98678 54.5094 8.23294 54.5885 8.42635 54.6764V56.76H8.12304C8.08788 56.2413 7.94282 55.8369 7.68787 55.5468C7.43292 55.2479 7.11643 55.0369 6.7384 54.9138C6.36916 54.7819 5.98234 54.716 5.57793 54.716C4.95374 54.716 4.37351 54.8567 3.83724 55.138C3.30096 55.4193 2.87018 55.8501 2.5449 56.4303C2.22841 57.0018 2.07016 57.7358 2.07016 58.6326C2.07016 59.4853 2.21962 60.2282 2.51853 60.8612C2.81743 61.4854 3.21305 61.9689 3.70536 62.3118C4.20647 62.6546 4.76033 62.8261 5.36694 62.8261C5.9208 62.8261 6.40872 62.6986 6.83071 62.4436C7.26149 62.1799 7.61314 61.8502 7.88568 61.4546C8.15821 61.059 8.33843 60.659 8.42635 60.2546H8.72965L8.65053 61.7975C8.31645 62.2107 7.88568 62.5755 7.35819 62.892C6.83071 63.1997 6.16256 63.3535 5.35375 63.3535Z" fill="#555555"/>
<path d="M9.82552 54.3863H16.9334V56.4435H16.6301C16.6125 56.1358 16.5641 55.8633 16.485 55.6259C16.4059 55.3885 16.2564 55.2039 16.0366 55.072C15.8169 54.9314 15.4828 54.861 15.0344 54.861H13.9399V61.837C13.9399 62.1359 13.9707 62.3557 14.0322 62.4964C14.1025 62.637 14.2256 62.7293 14.4014 62.7733C14.5861 62.8173 14.8498 62.8436 15.1927 62.8524V63.1557H11.8959V62.8524C12.1333 62.8436 12.3179 62.8173 12.4497 62.7733C12.5904 62.7293 12.6871 62.637 12.7399 62.4964C12.7926 62.3557 12.819 62.1359 12.819 61.837V54.861H11.7113C11.2717 54.861 10.942 54.9314 10.7222 55.072C10.5025 55.2039 10.353 55.3885 10.2739 55.6259C10.1948 55.8633 10.1464 56.1358 10.1288 56.4435H9.82552V54.3863Z" fill="#555555"/>
<path d="M18.3456 63.1557V62.8524C18.583 62.8436 18.7676 62.8173 18.8995 62.7733C19.0401 62.7293 19.1368 62.637 19.1896 62.4964C19.2423 62.3557 19.2687 62.1359 19.2687 61.837V55.705C19.2687 55.3973 19.2336 55.1775 19.1632 55.0457C19.1017 54.905 18.983 54.8127 18.8072 54.7687C18.6313 54.7248 18.3676 54.6984 18.0159 54.6896V54.3863H19.2687C19.8665 54.3863 20.3501 54.3775 20.7193 54.3599C21.0973 54.3336 21.4006 54.3204 21.6292 54.3204C22.5435 54.3204 23.2776 54.5006 23.8315 54.861C24.3853 55.2127 24.6622 55.7182 24.6622 56.3776C24.6622 56.6941 24.5875 57.0061 24.4381 57.3138C24.2974 57.6215 24.0688 57.8985 23.7523 58.1446C23.4358 58.382 23.0226 58.5622 22.5127 58.6853C22.0028 58.7996 21.3831 58.8216 20.6534 58.7512V58.3556C21.3567 58.4172 21.9061 58.3644 22.3018 58.1974C22.7062 58.0216 22.9919 57.7798 23.1589 57.4721C23.3259 57.1556 23.4095 56.8171 23.4095 56.4567C23.4095 56.0083 23.3084 55.6655 23.1062 55.4281C22.9128 55.1819 22.6534 55.0149 22.3281 54.927C22.0116 54.8391 21.6688 54.7951 21.2995 54.7951C21.0006 54.7951 20.772 54.8479 20.6138 54.9534C20.4643 55.0589 20.3896 55.3094 20.3896 55.705V61.837C20.3896 62.1359 20.4204 62.3557 20.4819 62.4964C20.5523 62.637 20.6841 62.7293 20.8775 62.7733C21.0797 62.8173 21.3743 62.8436 21.7611 62.8524V63.1557H18.3456Z" fill="#555555"/>
<path d="M30.3337 54.1885C30.9315 54.1885 31.4942 54.294 32.0217 54.505C32.5492 54.716 33.0195 55.0237 33.4327 55.4281C33.8459 55.8237 34.1668 56.3028 34.3954 56.8655C34.6327 57.4281 34.7514 58.0567 34.7514 58.7512C34.7514 59.4458 34.6327 60.0743 34.3954 60.637C34.1668 61.1996 33.8459 61.6832 33.4327 62.0876C33.0283 62.492 32.558 62.8041 32.0217 63.0239C31.4854 63.2436 30.9184 63.3535 30.3205 63.3535C29.7315 63.3535 29.1689 63.248 28.6326 63.037C28.1051 62.8261 27.6348 62.5228 27.2216 62.1271C26.8172 61.7227 26.4963 61.2392 26.2589 60.6766C26.0303 60.1139 25.916 59.4853 25.916 58.7908C25.916 58.0963 26.0303 57.4677 26.2589 56.905C26.4963 56.3424 26.8172 55.8589 27.2216 55.4545C27.6348 55.0501 28.1051 54.738 28.6326 54.5182C29.1689 54.2984 29.7359 54.1885 30.3337 54.1885ZM30.5183 62.8261C31.0458 62.8261 31.5294 62.681 31.9689 62.3909C32.4173 62.1008 32.7777 61.6744 33.0503 61.1117C33.3228 60.5403 33.4591 59.837 33.4591 59.0018C33.4591 58.0875 33.3008 57.3138 32.9843 56.6809C32.6678 56.0391 32.259 55.5512 31.7579 55.2171C31.2568 54.883 30.7205 54.716 30.1491 54.716C29.6216 54.716 29.1337 54.861 28.6853 55.1512C28.237 55.4413 27.8765 55.8721 27.604 56.4435C27.3315 57.0061 27.1952 57.7051 27.1952 58.5402C27.1952 59.4546 27.3534 60.2326 27.6699 60.8744C27.9864 61.5073 28.3996 61.9909 28.9095 62.3249C29.4194 62.659 29.9557 62.8261 30.5183 62.8261Z" fill="#555555"/>
<path d="M36.4135 63.1557V62.8524C36.6509 62.8436 36.8355 62.8173 36.9674 62.7733C37.108 62.7293 37.2047 62.637 37.2575 62.4964C37.3102 62.3557 37.3366 62.1359 37.3366 61.837V55.705C37.3366 55.3973 37.3014 55.1775 37.2311 55.0457C37.1696 54.905 37.0509 54.8127 36.875 54.7687C36.6992 54.7248 36.4355 54.6984 36.0838 54.6896V54.3863H39.3806V54.6896C39.1432 54.6984 38.9586 54.7248 38.8267 54.7687C38.6949 54.8127 38.5982 54.905 38.5366 55.0457C38.4839 55.1775 38.4575 55.3973 38.4575 55.705V61.7579L43.4686 54.3863H45.2489V54.6896C45.0115 54.6984 44.8269 54.7248 44.695 54.7687C44.5631 54.8127 44.4664 54.905 44.4049 55.0457C44.3521 55.1775 44.3258 55.3973 44.3258 55.705V61.837C44.3258 62.1359 44.3565 62.3557 44.4181 62.4964C44.4796 62.637 44.5983 62.7293 44.7741 62.7733C44.9587 62.8173 45.2225 62.8436 45.5653 62.8524V63.1557H42.2818V62.8524C42.5191 62.8436 42.7037 62.8173 42.8356 62.7733C42.9763 62.7293 43.073 62.637 43.1257 62.4964C43.1785 62.3557 43.2048 62.1359 43.2048 61.837V55.7973L38.1938 63.1557H36.4135Z" fill="#555555"/>
<path d="M46.6438 54.3863H53.7516V56.4435H53.4483C53.4308 56.1358 53.3824 55.8633 53.3033 55.6259C53.2242 55.3885 53.0747 55.2039 52.8549 55.072C52.6351 54.9314 52.3011 54.861 51.8527 54.861H50.7582V61.837C50.7582 62.1359 50.7889 62.3557 50.8505 62.4964C50.9208 62.637 51.0439 62.7293 51.2197 62.7733C51.4043 62.8173 51.6681 62.8436 52.0109 62.8524V63.1557H48.7142V62.8524C48.9515 62.8436 49.1362 62.8173 49.268 62.7733C49.4087 62.7293 49.5054 62.637 49.5581 62.4964C49.6109 62.3557 49.6373 62.1359 49.6373 61.837V54.861H48.5296C48.09 54.861 47.7603 54.9314 47.5405 55.072C47.3207 55.2039 47.1713 55.3885 47.0922 55.6259C47.013 55.8633 46.9647 56.1358 46.9471 56.4435H46.6438V54.3863Z" fill="#555555"/>
<path d="M55.1639 63.1557V62.8524C55.4013 62.8436 55.5859 62.8173 55.7178 62.7733C55.8496 62.7293 55.9419 62.637 55.9947 62.4964C56.0562 62.3557 56.087 62.1359 56.087 61.837V55.705C56.087 55.3973 56.0518 55.1775 55.9815 55.0457C55.92 54.905 55.8013 54.8127 55.6255 54.7687C55.4496 54.7248 55.1859 54.6984 54.8342 54.6896V54.3863H61.1113V56.2325H60.808C60.7992 55.9512 60.7552 55.7094 60.6761 55.5072C60.597 55.2962 60.4519 55.138 60.2409 55.0325C60.0299 54.9182 59.7178 54.861 59.3046 54.861H57.7881C57.6035 54.861 57.4585 54.905 57.353 54.9929C57.2563 55.0808 57.2079 55.3182 57.2079 55.705V58.1842C57.2782 58.1314 57.3618 58.0963 57.4585 58.0787C57.564 58.0611 57.687 58.0523 57.8277 58.0523H59.6871C60.2058 58.0523 60.4783 57.7622 60.5047 57.182H60.808V59.4238H60.5047C60.4959 59.0633 60.4343 58.826 60.3201 58.7117C60.2058 58.5886 59.9948 58.5271 59.6871 58.5271H57.8541C57.6167 58.5271 57.4497 58.5666 57.353 58.6457C57.2563 58.7249 57.2079 58.8787 57.2079 59.1073V61.837C57.2079 62.2151 57.2738 62.4524 57.4057 62.5491C57.5464 62.637 57.8145 62.681 58.2101 62.681H60.0431C60.4739 62.681 60.8124 62.6107 61.0585 62.47C61.3047 62.3205 61.4849 62.1271 61.5992 61.8898C61.7135 61.6436 61.7838 61.3799 61.8102 61.0985H62.1135L62.008 63.1557H55.1639Z" fill="#555555"/>
<path d="M64.3016 61.837C64.1873 62.1711 64.1873 62.4217 64.3016 62.5887C64.4247 62.7469 64.7676 62.8348 65.3302 62.8524V63.1557H62.6005V62.8524C62.8818 62.8348 63.106 62.7469 63.273 62.5887C63.4401 62.4217 63.5807 62.1711 63.695 61.837L65.8313 55.4281C65.9105 55.1995 65.9896 54.9753 66.0687 54.7555C66.1566 54.5358 66.2313 54.3116 66.2929 54.083H66.939C67.0006 54.3116 67.0709 54.5358 67.15 54.7555C67.238 54.9665 67.3171 55.1907 67.3874 55.4281L69.3391 61.837C69.4358 62.1447 69.5325 62.3689 69.6292 62.5096C69.7259 62.6502 69.8446 62.7381 69.9853 62.7733C70.1259 62.8085 70.3106 62.8348 70.5391 62.8524V63.1557H67.3874V62.8524C67.6863 62.8348 67.9061 62.8041 68.0468 62.7601C68.1962 62.7162 68.2797 62.6239 68.2973 62.4832C68.3149 62.3425 68.271 62.1271 68.1655 61.837L66.3193 55.7446H66.2929L64.3016 61.837Z" fill="#555555"/>
<path d="M73.4728 57.8809H74.5278C75.7234 57.8809 76.6509 58.0831 77.3103 58.4875C77.9784 58.8831 78.3125 59.4809 78.3125 60.2809C78.3125 60.8084 78.185 61.292 77.9301 61.7315C77.6839 62.1623 77.3059 62.5096 76.796 62.7733C76.2949 63.0283 75.6531 63.1557 74.8707 63.1557H71.4288V62.8524C71.6662 62.8436 71.8508 62.8173 71.9827 62.7733C72.1234 62.7293 72.2201 62.637 72.2728 62.4964C72.3256 62.3557 72.3519 62.1359 72.3519 61.837V55.705C72.3519 55.3973 72.3168 55.1775 72.2464 55.0457C72.1849 54.905 72.0662 54.8127 71.8904 54.7687C71.7146 54.7248 71.4508 54.6984 71.0992 54.6896V54.3863H74.3959V54.6896C74.1586 54.6984 73.974 54.7248 73.8421 54.7687C73.7102 54.8127 73.6135 54.905 73.552 55.0457C73.4992 55.1775 73.4728 55.3973 73.4728 55.705V57.8809ZM74.7652 62.681C75.3454 62.681 75.807 62.5711 76.1498 62.3513C76.4927 62.1227 76.7345 61.837 76.8751 61.4942C77.0246 61.1425 77.0993 60.7777 77.0993 60.3996C77.0993 59.8721 76.9718 59.4589 76.7169 59.16C76.4707 58.8611 76.1454 58.6501 75.741 58.5271C75.3454 58.404 74.9146 58.3424 74.4487 58.3424H73.4728V61.837C73.4728 62.2151 73.5652 62.4524 73.7498 62.5491C73.9432 62.637 74.2817 62.681 74.7652 62.681Z" fill="#555555"/>
<path d="M79.645 63.1557V62.8524C79.8824 62.8436 80.067 62.8173 80.1989 62.7733C80.3395 62.7293 80.4362 62.637 80.489 62.4964C80.5417 62.3557 80.5681 62.1359 80.5681 61.837V55.705C80.5681 55.3973 80.533 55.1775 80.4626 55.0457C80.4011 54.905 80.2824 54.8127 80.1066 54.7687C79.9307 54.7248 79.667 54.6984 79.3153 54.6896V54.3863H82.6121V54.6896C82.3748 54.6984 82.1901 54.7248 82.0583 54.7687C81.9264 54.8127 81.8297 54.905 81.7681 55.0457C81.7154 55.1775 81.689 55.3973 81.689 55.705V58.0128C81.7594 57.96 81.8429 57.9248 81.9396 57.9073C82.0451 57.8897 82.1682 57.8809 82.3088 57.8809H85.7902C86.0276 57.8809 86.1946 57.8413 86.2913 57.7622C86.388 57.6831 86.4364 57.5248 86.4364 57.2875V55.705C86.4364 55.3973 86.4012 55.1775 86.3309 55.0457C86.2693 54.905 86.1507 54.8127 85.9748 54.7687C85.799 54.7248 85.5353 54.6984 85.1836 54.6896V54.3863H88.4804V54.6896C88.243 54.6984 88.0584 54.7248 87.9265 54.7687C87.7946 54.8127 87.6979 54.905 87.6364 55.0457C87.5837 55.1775 87.5573 55.3973 87.5573 55.705V61.837C87.5573 62.1359 87.5881 62.3557 87.6496 62.4964C87.7111 62.637 87.8298 62.7293 88.0056 62.7733C88.1903 62.8173 88.454 62.8436 88.7969 62.8524V63.1557H85.5133V62.8524C85.7506 62.8436 85.9353 62.8173 86.0671 62.7733C86.2078 62.7293 86.3045 62.637 86.3573 62.4964C86.41 62.3557 86.4364 62.1359 86.4364 61.837V58.2106C86.3661 58.2721 86.2781 58.3117 86.1726 58.3293C86.0671 58.3468 85.9485 58.3556 85.8166 58.3556H82.3352C82.0978 58.3556 81.9308 58.3952 81.8341 58.4743C81.7374 58.5534 81.689 58.7073 81.689 58.9359V61.837C81.689 62.1359 81.7198 62.3557 81.7813 62.4964C81.8517 62.637 81.9747 62.7293 82.1506 62.7733C82.3264 62.8173 82.5857 62.8436 82.9286 62.8524V63.1557H79.645Z" fill="#555555"/>
<path d="M96.4953 61.837C96.6008 62.1447 96.7019 62.3689 96.7986 62.5096C96.8953 62.6414 97.0095 62.7293 97.1414 62.7733C97.2821 62.8085 97.4667 62.8348 97.6953 62.8524V63.1557H94.5436V62.8524C94.8425 62.8348 95.0623 62.8041 95.2029 62.7601C95.3524 62.7162 95.4359 62.6239 95.4535 62.4832C95.4711 62.3425 95.4271 62.1271 95.3216 61.837L94.5699 59.5688C94.526 59.6128 94.46 59.6436 94.3721 59.6612C94.2842 59.6699 94.1919 59.6743 94.0952 59.6743H92.3677C92.1743 59.6743 92.0292 59.6963 91.9325 59.7403C91.8358 59.7842 91.7523 59.9029 91.682 60.0963L91.0622 61.837C90.9479 62.1711 90.9479 62.4217 91.0622 62.5887C91.1852 62.7469 91.5281 62.8348 92.0908 62.8524V63.1557H89.361V62.8524C89.6424 62.8348 89.8621 62.7469 90.0204 62.5887C90.1874 62.4217 90.3325 62.1711 90.4556 61.837L92.7897 55.4281C92.8776 55.1995 92.9611 54.9753 93.0402 54.7555C93.1194 54.5358 93.1897 54.3116 93.2512 54.083H93.8974C93.9589 54.3116 94.0249 54.5358 94.0952 54.7555C94.1743 54.9753 94.2578 55.1995 94.3458 55.4281L96.4953 61.837ZM94.1216 59.1996C94.2359 59.1996 94.315 59.1864 94.3589 59.16C94.4029 59.1249 94.4029 59.0545 94.3589 58.949L93.2776 55.7446H93.2512L91.9853 59.2392C92.0292 59.2216 92.082 59.2128 92.1435 59.2128C92.205 59.204 92.2754 59.1996 92.3545 59.1996H94.1216Z" fill="#555555"/>
<path d="M98.3384 63.2349C98.101 63.2349 97.8636 63.2085 97.6263 63.1557V62.8524C97.8285 62.8524 98.0043 62.8305 98.1537 62.7865C98.3032 62.7425 98.457 62.6458 98.6153 62.4964C98.7735 62.3469 98.9582 62.114 99.1691 61.7975L101.411 58.382C100.787 58.2589 100.272 58.0347 99.8681 57.7095C99.4724 57.3754 99.2746 56.9358 99.2746 56.3908C99.2746 56.0127 99.3757 55.6699 99.5779 55.3622C99.7889 55.0457 100.11 54.7951 100.541 54.6105C100.971 54.4171 101.521 54.3204 102.189 54.3204C102.444 54.3204 102.725 54.3336 103.033 54.3599C103.349 54.3775 103.706 54.3863 104.101 54.3863H105.525V54.6896C105.288 54.6984 105.103 54.7248 104.971 54.7687C104.84 54.8127 104.743 54.905 104.681 55.0457C104.629 55.1775 104.602 55.3973 104.602 55.705V61.837C104.602 62.1359 104.633 62.3557 104.695 62.4964C104.756 62.637 104.875 62.7293 105.051 62.7733C105.235 62.8173 105.499 62.8436 105.842 62.8524V63.1557H102.558V62.8524C102.796 62.8436 102.98 62.8173 103.112 62.7733C103.253 62.7293 103.349 62.637 103.402 62.4964C103.455 62.3557 103.481 62.1359 103.481 61.837V55.705C103.481 55.3006 103.402 55.0501 103.244 54.9534C103.095 54.8479 102.862 54.7951 102.545 54.7951C102.211 54.7951 101.886 54.8347 101.569 54.9138C101.261 54.9929 101.011 55.1468 100.818 55.3753C100.624 55.5951 100.527 55.9204 100.527 56.3512C100.527 56.9842 100.765 57.4545 101.24 57.7622C101.714 58.0699 102.374 58.1886 103.218 58.1183V58.5139C102.963 58.5139 102.774 58.5402 102.651 58.593C102.536 58.637 102.431 58.7337 102.334 58.8831L100.211 62.1931C100.009 62.5184 99.7714 62.7733 99.4988 62.9579C99.2351 63.1425 98.8483 63.2349 98.3384 63.2349Z" fill="#555555"/>
<path d="M118.595 63.2349C118.085 63.2349 117.694 63.1381 117.421 62.9447C117.149 62.7425 116.894 62.492 116.657 62.1931L113.927 58.7644C113.813 58.6238 113.725 58.5271 113.663 58.4743C113.602 58.4216 113.536 58.3952 113.465 58.3952C113.395 58.3952 113.333 58.4216 113.281 58.4743C113.228 58.5183 113.202 58.6194 113.202 58.7776V61.837C113.202 62.1359 113.232 62.3557 113.294 62.4964C113.364 62.637 113.487 62.7293 113.663 62.7733C113.839 62.8173 114.098 62.8436 114.441 62.8524V63.1557H111.158V62.8524C111.395 62.8436 111.58 62.8173 111.711 62.7733C111.852 62.7293 111.949 62.637 112.002 62.4964C112.054 62.3557 112.081 62.1359 112.081 61.837V55.705C112.081 55.3973 112.045 55.1775 111.975 55.0457C111.914 54.905 111.795 54.8127 111.619 54.7687C111.443 54.7248 111.18 54.6984 110.828 54.6896V54.3863H114.125V54.6896C113.887 54.6984 113.703 54.7248 113.571 54.7687C113.439 54.8127 113.342 54.905 113.281 55.0457C113.228 55.1775 113.202 55.3973 113.202 55.705V57.9073H113.228L116.05 55.6127C116.261 55.4369 116.397 55.305 116.459 55.2171C116.52 55.1292 116.551 55.0501 116.551 54.9797C116.551 54.8918 116.503 54.8259 116.406 54.7819C116.309 54.7292 116.125 54.6984 115.852 54.6896V54.3863H118.621V54.6896C118.358 54.7072 118.12 54.7731 117.909 54.8874C117.698 55.0017 117.457 55.1687 117.184 55.3885L114.679 57.4325C114.538 57.538 114.538 57.6831 114.679 57.8677L117.764 61.7975C118.002 62.0964 118.195 62.3205 118.345 62.47C118.503 62.6195 118.652 62.7206 118.793 62.7733C118.942 62.8261 119.114 62.8524 119.307 62.8524V63.1557C119.07 63.2085 118.832 63.2349 118.595 63.2349Z" fill="#555555"/>
<path d="M124.176 54.1885C124.774 54.1885 125.336 54.294 125.864 54.505C126.391 54.716 126.862 55.0237 127.275 55.4281C127.688 55.8237 128.009 56.3028 128.238 56.8655C128.475 57.4281 128.594 58.0567 128.594 58.7512C128.594 59.4458 128.475 60.0743 128.238 60.637C128.009 61.1996 127.688 61.6832 127.275 62.0876C126.87 62.492 126.4 62.8041 125.864 63.0239C125.328 63.2436 124.761 63.3535 124.163 63.3535C123.574 63.3535 123.011 63.248 122.475 63.037C121.947 62.8261 121.477 62.5228 121.064 62.1271C120.659 61.7227 120.338 61.2392 120.101 60.6766C119.873 60.1139 119.758 59.4853 119.758 58.7908C119.758 58.0963 119.873 57.4677 120.101 56.905C120.338 56.3424 120.659 55.8589 121.064 55.4545C121.477 55.0501 121.947 54.738 122.475 54.5182C123.011 54.2984 123.578 54.1885 124.176 54.1885ZM124.361 62.8261C124.888 62.8261 125.372 62.681 125.811 62.3909C126.259 62.1008 126.62 61.6744 126.892 61.1117C127.165 60.5403 127.301 59.837 127.301 59.0018C127.301 58.0875 127.143 57.3138 126.827 56.6809C126.51 56.0391 126.101 55.5512 125.6 55.2171C125.099 54.883 124.563 54.716 123.991 54.716C123.464 54.716 122.976 54.861 122.528 55.1512C122.079 55.4413 121.719 55.8721 121.446 56.4435C121.174 57.0061 121.037 57.7051 121.037 58.5402C121.037 59.4546 121.196 60.2326 121.512 60.8744C121.829 61.5073 122.242 61.9909 122.752 62.3249C123.262 62.659 123.798 62.8261 124.361 62.8261Z" fill="#555555"/>
<path d="M135.082 63.2612C135.012 63.059 134.928 62.8568 134.832 62.6546C134.735 62.4436 134.603 62.1535 134.436 61.7843L131.917 56.1798H131.891L131.627 61.837C131.618 62.1623 131.693 62.4085 131.851 62.5755C132.01 62.7425 132.357 62.8348 132.893 62.8524V63.1557H130.084V62.8524C130.427 62.8348 130.664 62.7425 130.796 62.5755C130.937 62.4085 131.012 62.1623 131.021 61.837L131.324 55.705C131.341 55.3973 131.319 55.1775 131.258 55.0457C131.205 54.905 131.095 54.8127 130.928 54.7687C130.761 54.7248 130.511 54.6984 130.177 54.6896V54.3863H132.418C132.489 54.6149 132.563 54.8303 132.643 55.0325C132.73 55.2347 132.832 55.4589 132.946 55.705L135.61 61.5601H135.636L138.089 55.705C138.186 55.4764 138.269 55.2567 138.339 55.0457C138.418 54.8259 138.489 54.6061 138.55 54.3863H140.634V54.6896C140.388 54.6984 140.194 54.7248 140.054 54.7687C139.913 54.8127 139.816 54.905 139.764 55.0457C139.72 55.1775 139.702 55.3973 139.711 55.705L139.988 61.837C140.005 62.1359 140.045 62.3557 140.106 62.4964C140.168 62.637 140.278 62.7293 140.436 62.7733C140.603 62.8085 140.832 62.8348 141.122 62.8524V63.1557H138.062V62.8524C138.273 62.8348 138.44 62.8085 138.564 62.7733C138.687 62.7293 138.77 62.637 138.814 62.4964C138.867 62.3557 138.884 62.1359 138.867 61.837L138.616 56.0874H138.59L136.177 61.7843C136.027 62.1535 135.909 62.4436 135.821 62.6546C135.742 62.8568 135.676 63.059 135.623 63.2612H135.082Z" fill="#555555"/>
<path d="M150.006 61.837C150.006 62.1359 150.037 62.3557 150.099 62.4964C150.16 62.637 150.279 62.7293 150.455 62.7733C150.639 62.8173 150.903 62.8436 151.246 62.8524V63.1557H147.962V62.8524C148.2 62.8436 148.384 62.8173 148.516 62.7733C148.657 62.7293 148.754 62.637 148.806 62.4964C148.859 62.3557 148.886 62.1359 148.886 61.837V55.705C148.886 55.3358 148.815 55.1028 148.675 55.0061C148.543 54.9094 148.283 54.861 147.896 54.861H145.193C144.973 54.861 144.806 54.9094 144.692 55.0061C144.587 55.1028 144.534 55.3358 144.534 55.705V61.837C144.534 62.1359 144.565 62.3557 144.626 62.4964C144.696 62.637 144.82 62.7293 144.995 62.7733C145.171 62.8173 145.431 62.8436 145.773 62.8524V63.1557H142.49V62.8524C142.727 62.8436 142.912 62.8173 143.044 62.7733C143.184 62.7293 143.281 62.637 143.334 62.4964C143.387 62.3557 143.413 62.1359 143.413 61.837V55.705C143.413 55.3973 143.378 55.1775 143.307 55.0457C143.246 54.905 143.127 54.8127 142.951 54.7687C142.776 54.7248 142.512 54.6984 142.16 54.6896V54.3863H150.93V54.6896C150.692 54.6984 150.508 54.7248 150.376 54.7687C150.244 54.8127 150.147 54.905 150.086 55.0457C150.033 55.1775 150.006 55.3973 150.006 55.705V61.837Z" fill="#555555"/>
<path d="M158.954 61.837C159.059 62.1447 159.16 62.3689 159.257 62.5096C159.354 62.6414 159.468 62.7293 159.6 62.7733C159.741 62.8085 159.925 62.8348 160.154 62.8524V63.1557H157.002V62.8524C157.301 62.8348 157.521 62.8041 157.661 62.7601C157.811 62.7162 157.894 62.6239 157.912 62.4832C157.929 62.3425 157.886 62.1271 157.78 61.837L157.028 59.5688C156.984 59.6128 156.918 59.6436 156.831 59.6612C156.743 59.6699 156.65 59.6743 156.554 59.6743H154.826C154.633 59.6743 154.488 59.6963 154.391 59.7403C154.294 59.7842 154.211 59.9029 154.14 60.0963L153.521 61.837C153.406 62.1711 153.406 62.4217 153.521 62.5887C153.644 62.7469 153.987 62.8348 154.549 62.8524V63.1557H151.819V62.8524C152.101 62.8348 152.321 62.7469 152.479 62.5887C152.646 62.4217 152.791 62.1711 152.914 61.837L155.248 55.4281C155.336 55.1995 155.42 54.9753 155.499 54.7555C155.578 54.5358 155.648 54.3116 155.71 54.083H156.356C156.417 54.3116 156.483 54.5358 156.554 54.7555C156.633 54.9753 156.716 55.1995 156.804 55.4281L158.954 61.837ZM156.58 59.1996C156.694 59.1996 156.773 59.1864 156.817 59.16C156.861 59.1249 156.861 59.0545 156.817 58.949L155.736 55.7446H155.71L154.444 59.2392C154.488 59.2216 154.54 59.2128 154.602 59.2128C154.663 59.204 154.734 59.1996 154.813 59.1996H156.58Z" fill="#555555"/>
<path d="M161.034 63.1557V62.8524C161.272 62.8436 161.456 62.8173 161.588 62.7733C161.729 62.7293 161.825 62.637 161.878 62.4964C161.931 62.3557 161.957 62.1359 161.957 61.837V55.705C161.957 55.3973 161.922 55.1775 161.852 55.0457C161.79 54.905 161.672 54.8127 161.496 54.7687C161.32 54.7248 161.056 54.6984 160.704 54.6896V54.3863H164.001V54.6896C163.764 54.6984 163.579 54.7248 163.447 54.7687C163.316 54.8127 163.219 54.905 163.157 55.0457C163.105 55.1775 163.078 55.3973 163.078 55.705V58.0128C163.148 57.96 163.232 57.9248 163.329 57.9073C163.434 57.8897 163.557 57.8809 163.698 57.8809H167.179C167.417 57.8809 167.584 57.8413 167.68 57.7622C167.777 57.6831 167.826 57.5248 167.826 57.2875V55.705C167.826 55.3973 167.79 55.1775 167.72 55.0457C167.658 54.905 167.54 54.8127 167.364 54.7687C167.188 54.7248 166.924 54.6984 166.573 54.6896V54.3863H169.87V54.6896C169.632 54.6984 169.448 54.7248 169.316 54.7687C169.184 54.8127 169.087 54.905 169.026 55.0457C168.973 55.1775 168.946 55.3973 168.946 55.705V61.837C168.946 62.1359 168.977 62.3557 169.039 62.4964C169.1 62.637 169.219 62.7293 169.395 62.7733C169.579 62.8173 169.843 62.8436 170.186 62.8524V63.1557H166.902V62.8524C167.14 62.8436 167.324 62.8173 167.456 62.7733C167.597 62.7293 167.694 62.637 167.746 62.4964C167.799 62.3557 167.826 62.1359 167.826 61.837V58.2106C167.755 58.2721 167.667 58.3117 167.562 58.3293C167.456 58.3468 167.338 58.3556 167.206 58.3556H163.724C163.487 58.3556 163.32 58.3952 163.223 58.4743C163.126 58.5534 163.078 58.7073 163.078 58.9359V61.837C163.078 62.1359 163.109 62.3557 163.17 62.4964C163.241 62.637 163.364 62.7293 163.54 62.7733C163.716 62.8173 163.975 62.8436 164.318 62.8524V63.1557H161.034Z" fill="#555555"/>
<path d="M171.594 63.1557V62.8524C171.831 62.8436 172.016 62.8173 172.148 62.7733C172.289 62.7293 172.385 62.637 172.438 62.4964C172.491 62.3557 172.517 62.1359 172.517 61.837V55.705C172.517 55.3973 172.482 55.1775 172.412 55.0457C172.35 54.905 172.232 54.8127 172.056 54.7687C171.88 54.7248 171.616 54.6984 171.264 54.6896V54.3863H174.561V54.6896C174.324 54.6984 174.139 54.7248 174.007 54.7687C173.876 54.8127 173.779 54.905 173.717 55.0457C173.665 55.1775 173.638 55.3973 173.638 55.705V61.7579L178.649 54.3863H180.429V54.6896C180.192 54.6984 180.007 54.7248 179.876 54.7687C179.744 54.8127 179.647 54.905 179.586 55.0457C179.533 55.1775 179.506 55.3973 179.506 55.705V61.837C179.506 62.1359 179.537 62.3557 179.599 62.4964C179.66 62.637 179.779 62.7293 179.955 62.7733C180.139 62.8173 180.403 62.8436 180.746 62.8524V63.1557H177.462V62.8524C177.7 62.8436 177.884 62.8173 178.016 62.7733C178.157 62.7293 178.254 62.637 178.306 62.4964C178.359 62.3557 178.385 62.1359 178.385 61.837V55.7973L173.374 63.1557H171.594Z" fill="#555555"/>
<path d="M181.917 63.2349C181.679 63.2349 181.442 63.2085 181.205 63.1557V62.8524C181.407 62.8524 181.583 62.8305 181.732 62.7865C181.882 62.7425 182.035 62.6458 182.194 62.4964C182.352 62.3469 182.537 62.114 182.748 61.7975L184.989 58.382C184.365 58.2589 183.851 58.0347 183.446 57.7095C183.051 57.3754 182.853 56.9358 182.853 56.3908C182.853 56.0127 182.954 55.6699 183.156 55.3622C183.367 55.0457 183.688 54.7951 184.119 54.6105C184.55 54.4171 185.099 54.3204 185.767 54.3204C186.022 54.3204 186.304 54.3336 186.611 54.3599C186.928 54.3775 187.284 54.3863 187.68 54.3863H189.104V54.6896C188.866 54.6984 188.682 54.7248 188.55 54.7687C188.418 54.8127 188.321 54.905 188.26 55.0457C188.207 55.1775 188.181 55.3973 188.181 55.705V61.837C188.181 62.1359 188.211 62.3557 188.273 62.4964C188.334 62.637 188.453 62.7293 188.629 62.7733C188.814 62.8173 189.077 62.8436 189.42 62.8524V63.1557H186.137V62.8524C186.374 62.8436 186.559 62.8173 186.69 62.7733C186.831 62.7293 186.928 62.637 186.981 62.4964C187.033 62.3557 187.06 62.1359 187.06 61.837V55.705C187.06 55.3006 186.981 55.0501 186.822 54.9534C186.673 54.8479 186.44 54.7951 186.123 54.7951C185.789 54.7951 185.464 54.8347 185.148 54.9138C184.84 54.9929 184.589 55.1468 184.396 55.3753C184.203 55.5951 184.106 55.9204 184.106 56.3512C184.106 56.9842 184.343 57.4545 184.818 57.7622C185.293 58.0699 185.952 58.1886 186.796 58.1183V58.5139C186.541 58.5139 186.352 58.5402 186.229 58.593C186.115 58.637 186.009 58.7337 185.912 58.8831L183.789 62.1931C183.587 62.5184 183.35 62.7733 183.077 62.9579C182.813 63.1425 182.427 63.2349 181.917 63.2349Z" fill="#555555"/>
<path fill-rule="evenodd" clip-rule="evenodd" d="M13.9577 18.8187L6.15195 6.2543C5.26995 4.69072 4.47615 3.5925 3.77055 2.95962C3.06495 2.28952 2.2932 1.84278 1.4553 1.61942C0.970201 1.50773 0.59535 1.39605 0.33075 1.28436C0.11025 1.17268 0 0.967927 0 0.670103C0 0.223368 0.5292 0 1.5876 0H7.21035L16.4714 15.6916L26.46 0H28.9737C29.5911 0 29.966 0.130298 30.0983 0.390893C30.2747 0.651489 30.2526 0.967927 30.0321 1.34021L18.7205 18.2045L31.752 38.9218H26.7908L16.1406 21.6667L5.5566 38.9218H1.12455L13.9577 18.8187ZM13.7295 29.665H15.9697V33.0253H13.7295V29.665ZM15.9697 33.4727H13.7295V36.8329H15.9697V33.4727ZM16.4175 29.665H18.6576V33.0253H16.4175V29.665ZM18.6576 33.4727H16.4175V36.8329H18.6576V33.4727Z" fill="#060606"/>
</svg>
